<svg width="324" height="89" viewBox="0 0 324 89" fill="none" xmlns="http://www.w3.org/2000/svg">
<path d="M293.481 84.4543L293.487 84.4593L293.492 84.4641C296.488 86.9602 300.534 88.18 305.572 88.18C309.63 88.18 313.076 87.4498 315.886 85.9619L315.886 85.962L315.896 85.9565C318.693 84.3935 320.88 82.2496 322.446 79.5295L322.623 79.2213L322.39 78.9525L320.83 77.1525L320.479 76.7467L320.099 77.1265C318.844 78.3814 317.596 79.3941 316.357 80.1698C315.161 80.8403 313.81 81.18 312.292 81.18C310.605 81.18 309.181 80.5287 307.991 79.1938C306.901 77.8807 306.312 75.8585 306.312 73.04V32.62H319.612H320.112V32.12V28.4V27.9H319.612H306.443L306.792 11.7308L306.803 11.22H306.292H302.692H302.437L302.287 11.4273L294.489 22.225C293.161 24.0208 291.687 25.4136 290.069 26.4149L290.069 26.4148L290.06 26.4208C288.53 27.4154 286.639 28.115 284.373 28.5063L281.139 28.9854L280.712 29.0486V29.48V32.12V32.62H281.212H289.232V60.56C289.232 62.8746 289.192 64.9068 289.113 66.6573L289.112 66.6686V66.68V66.6898V66.6997V66.7095V66.7194V66.7293V66.7391V66.749V66.7588V66.7687V66.7786V66.7885V66.7983V66.8082V66.8181V66.828V66.8379V66.8477V66.8576V66.8675V66.8774V66.8873V66.8972V66.9071V66.917V66.927V66.9369V66.9468V66.9567V66.9666V66.9766V66.9865V66.9964V67.0063V67.0163V67.0262V67.0362V67.0461V67.056V67.066V67.076V67.0859V67.0959V67.1058V67.1158V67.1258V67.1357V67.1457V67.1557V67.1656V67.1756V67.1856V67.1956V67.2056V67.2156V67.2256V67.2356V67.2456V67.2556V67.2656V67.2756V67.2856V67.2956V67.3056V67.3156V67.3256V67.3357V67.3457V67.3557V67.3658V67.3758V67.3858V67.3959V67.4059V67.416V67.426V67.4361V67.4461V67.4562V67.4662V67.4763V67.4864V67.4964V67.5065V67.5166V67.5266V67.5367V67.5468V67.5569V67.567V67.5771V67.5872V67.5973V67.6073V67.6175V67.6276V67.6377V67.6478V67.6579V67.668V67.6781V67.6882V67.6984V67.7085V67.7186V67.7287V67.7389V67.749V67.7591V67.7693V67.7794V67.7896V67.7997V67.8099V67.82V67.8302V67.8404V67.8505V67.8607V67.8709V67.881V67.8912V67.9014V67.9116V67.9217V67.9319V67.9421V67.9523V67.9625V67.9727V67.9829V67.9931V68.0033V68.0135V68.0237V68.0339V68.0442V68.0544V68.0646V68.0748V68.085V68.0953V68.1055V68.1157V68.126V68.1362V68.1465V68.1567V68.167V68.1772V68.1875V68.1977V68.208V68.2182V68.2285V68.2388V68.2491V68.2593V68.2696V68.2799V68.2902V68.3004V68.3107V68.321V68.3313V68.3416V68.3519V68.3622V68.3725V68.3828V68.3931V68.4034V68.4138V68.4241V68.4344V68.4447V68.455V68.4654V68.4757V68.486V68.4964V68.5067V68.5171V68.5274V68.5378V68.5481V68.5585V68.5688V68.5792V68.5895V68.5999V68.6103V68.6206V68.631V68.6414V68.6518V68.6621V68.6725V68.6829V68.6933V68.7037V68.7141V68.7245V68.7349V68.7453V68.7557V68.7661V68.7765V68.7869V68.7973V68.8078V68.8182V68.8286V68.839V68.8495V68.8599V68.8703V68.8808V68.8912V68.9016V68.9121V68.9225V68.933V68.9435V68.9539V68.9644V68.9748V68.9853V68.9958V69.0062V69.0167V69.0272V69.0377V69.0482V69.0586V69.0691V69.0796V69.0901V69.1006V69.1111V69.1216V69.1321V69.1426V69.1531V69.1636V69.1742V69.1847V69.1952V69.2057V69.2162V69.2268V69.2373V69.2478V69.2584V69.2689V69.2795V69.29V69.3006V69.3111V69.3217V69.3322V69.3428V69.3533V69.3639V69.3745V69.385V69.3956V69.4062V69.4168V69.4273V69.4379V69.4485V69.4591V69.4697V69.4803V69.4909V69.5015V69.5121V69.5227V69.5333V69.5439V69.5545V69.5652V69.5758V69.5864V69.597V69.6076V69.6183V69.6289V69.6395V69.6502V69.6608V69.6715V69.6821V69.6928V69.7034V69.7141V69.7247V69.7354V69.7461V69.7567V69.7674V69.7781V69.7887V69.7994V69.8101V69.8208V69.8315V69.8422V69.8528V69.8635V69.8742V69.8849V69.8956V69.9063V69.9171V69.9278V69.9385V69.9492V69.9599V69.9706V69.9814V69.9921V70.0028V70.0135V70.0243V70.035V70.0458V70.0565V70.0672V70.078V70.0887V70.0995V70.1103V70.121V70.1318V70.1425V70.1533V70.1641V70.1749V70.1856V70.1964V70.2072V70.218V70.2288V70.2396V70.2503V70.2611V70.2719V70.2827V70.2935V70.3044V70.3152V70.326V70.3368V70.3476V70.3584V70.3692V70.3801V70.3909V70.4017V70.4126V70.4234V70.4342V70.4451V70.4559V70.4668V70.4776V70.4885V70.4993V70.5102V70.5211V70.5319V70.5428V70.5537V70.5645V70.5754V70.5863V70.5972V70.608V70.6189V70.6298V70.6407V70.6516V70.6625V70.6734V70.6843V70.6952V70.7061V70.717V70.7279V70.7389V70.7498V70.7607V70.7716V70.7826V70.7935V70.8044V70.8154V70.8263V70.8372V70.8482V70.8591V70.8701V70.881V70.892V70.9029V70.9139V70.9249V70.9358V70.9468V70.9578V70.9687V70.9797V70.9907V71.0017V71.0127V71.0237V71.0346V71.0456V71.0566V71.0676V71.0786V71.0896V71.1006V71.1116V71.1227V71.1337V71.1447V71.1557V71.1667V71.1778V71.1888V71.1998V71.2109V71.2219V71.2329V71.244V71.255V71.2661V71.2771V71.2882V71.2992V71.3103V71.3214V71.3324V71.3435V71.3546V71.3656V71.3767V71.3878V71.3989V71.41V71.421V71.4321V71.4432V71.4543V71.4654V71.4765V71.4876V71.4987V71.5098V71.5209V71.5321V71.5432V71.5543V71.5654V71.5765V71.5877V71.5988V71.6099V71.6211V71.6322V71.6433V71.6545V71.6656V71.6768V71.6879V71.6991V71.7103V71.7214V71.7326V71.7437V71.7549V71.7661V71.7773V71.7884V71.7996V71.8108V71.822V71.8332V71.8444V71.8556V71.8668V71.8779V71.8892V71.9004V71.9116V71.9228V71.934V71.9452V71.9564V71.9676V71.9789V71.9901V72.0013V72.0126V72.0238V72.035V72.0463V72.0575V72.0688V72.08C289.112 77.6741 290.531 81.8416 293.481 84.4543Z" fill="black" stroke="black"/>
<path d="M228.377 86.4527L228.377 86.4529L228.389 86.4581C231.019 87.6088 233.928 88.18 237.109 88.18C241.174 88.18 244.849 87.4074 248.124 85.8516C251.094 84.4408 253.86 82.6895 256.421 80.5985L257.374 87.2707L257.439 87.7263L257.899 87.6991L278.179 86.4991L278.649 86.4713V86V83.72V83.3507L278.296 83.2421L276.74 82.7632C276.739 82.763 276.739 82.7628 276.738 82.7626C275.299 82.3078 274.447 81.6585 274.047 80.8774C273.683 79.9185 273.489 78.6335 273.489 77V45.5653L273.849 28.6506L273.854 28.4373L273.703 28.2865L272.383 26.9665L272.192 26.7751L271.927 26.8306L251.887 31.0306L251.489 31.1139V31.52V33.68V34.0619L251.858 34.1624L253.175 34.5218C253.176 34.5219 253.176 34.522 253.176 34.522C254.577 34.9112 255.394 35.4279 255.773 35.9974L255.783 36.0126L255.795 36.027C256.245 36.6058 256.529 37.7356 256.529 39.5575C256.529 39.5583 256.529 39.5592 256.529 39.56L256.172 76.2524C254.277 77.5209 252.426 78.4918 250.619 79.1697C248.843 79.7869 246.821 80.1 244.549 80.1C242.409 80.1 240.647 79.5304 239.231 78.4167C237.943 77.2649 237.249 75.4305 237.249 72.8V45.5688L237.849 28.6577L237.857 28.4403L237.703 28.2865L236.383 26.9665L236.195 26.7788L235.935 26.8291L215.415 30.7891L215.009 30.8673V31.28V33.44V33.8004L215.351 33.9143L216.791 34.3943L216.816 34.4025L216.841 34.4081C218.219 34.7145 219.08 35.2306 219.54 35.8867C220.01 36.5582 220.289 37.7095 220.289 39.437C220.289 39.438 220.289 39.439 220.289 39.44L219.929 69.5509C219.929 69.5514 219.929 69.5519 219.929 69.5524C219.849 74.0022 220.535 77.6542 222.027 80.4739L222.032 80.4818L222.036 80.4895C223.603 83.211 225.717 85.2058 228.377 86.4527Z" fill="black" stroke="black"/>
<path d="M165.331 84.3956L165.334 84.3975C169.899 86.9245 175.185 88.18 181.176 88.18C187.243 88.18 192.529 86.9662 197.016 84.519L197.016 84.519L197.022 84.5156C201.507 81.9877 204.974 78.397 207.418 73.7545C209.943 69.029 211.196 63.4652 211.196 57.08C211.196 50.6133 209.863 45.0826 207.17 40.5107C204.566 35.874 200.98 32.3272 196.417 29.8818C191.935 27.3569 186.851 26.1 181.176 26.1C175.5 26.1 170.376 27.3575 165.815 29.8818C161.331 32.328 157.747 35.8749 155.064 40.5095L155.063 40.5095L155.06 40.5152C152.45 45.1641 151.156 50.6921 151.156 57.08C151.156 63.463 152.368 68.9866 154.814 73.6329L154.814 73.6329L154.817 73.6389C157.341 78.2789 160.847 81.8682 165.331 84.3956ZM191.606 40.8581L191.606 40.86C192.396 44.7311 192.796 50.212 192.796 57.32C192.796 64.3476 192.396 69.7887 191.606 73.66C190.815 77.5357 189.527 80.1681 187.808 81.6627C186.159 83.0861 183.965 83.82 181.176 83.82C178.389 83.82 176.196 83.0872 174.548 81.6657C172.903 80.1679 171.616 77.5307 170.745 73.6553C169.956 69.7842 169.556 64.3447 169.556 57.32C169.556 50.2142 169.956 44.7345 170.745 40.8636C171.618 36.8999 172.907 34.2713 174.543 32.8584L174.543 32.8585L174.553 32.85C176.202 31.3505 178.393 30.58 181.176 30.58C183.959 30.58 186.15 31.3505 187.8 32.85L187.809 32.8579L187.818 32.8655C189.525 34.276 190.814 36.8981 191.606 40.8581Z" fill="black" stroke="black"/>
<path d="M101.33 88.0584L101.706 88.0882L101.838 87.7356L103.411 83.5406C105.652 85.0686 108.169 86.2086 110.959 86.9627L110.963 86.9635C114.043 87.7741 117.126 88.18 120.21 88.18C124.86 88.18 129.111 86.9958 132.952 84.6255C136.804 82.249 139.864 78.732 142.139 74.1005L142.14 74.0974C144.422 69.3715 145.55 63.5723 145.55 56.72C145.55 46.4236 143.34 38.7182 138.823 33.7068C134.327 28.6391 128.63 26.1 121.77 26.1C115.405 26.1 109.449 27.8808 103.91 31.4321V19.7671L104.39 2.85419L104.397 2.58321L104.175 2.42891L102.615 1.34891L102.428 1.21978L102.208 1.27511L81.688 6.4351L81.3099 6.53017V6.92001V9.08001V9.47776L81.6975 9.5672L83.253 9.92617C84.7955 10.3125 85.7279 10.9052 86.1881 11.6284L86.1964 11.6415L86.2056 11.6541C86.7604 12.4169 87.0699 13.5382 87.0699 15.08V77.48C87.0699 79.0415 86.6993 80.2432 86.0057 81.1325C85.3142 82.0191 84.259 82.6497 82.7844 82.9912L81.5919 83.2297L81.1899 83.3101V83.72V86V86.462L81.6504 86.4985L101.33 88.0584ZM121.47 35.04L121.47 35.0401L121.478 35.0458C123.35 36.394 124.825 38.7931 125.85 42.3388C126.871 45.8729 127.39 50.8188 127.39 57.2C127.39 63.5788 126.831 68.5625 125.732 72.1744C124.627 75.804 123.11 78.2912 121.227 79.7219C119.319 81.1723 117.107 81.9 114.57 81.9C110.835 81.9 107.405 80.9723 104.27 79.1171V35.8964C107.879 33.9441 111.391 32.98 114.81 32.98C117.437 32.98 119.648 33.6734 121.47 35.04Z" fill="black" stroke="black"/>
<path d="M1.34009 86V86.5H1.84009H20.2001H20.7001V86V83.48V83.1144L20.3517 83.0035L17.7215 82.1667C16.0238 81.5475 15.234 80.7586 15.049 79.8952C14.8353 78.8982 14.9682 77.5565 15.5152 75.8359C15.5156 75.8345 15.5161 75.833 15.5166 75.8316L20.5587 60.94H46.357L51.2836 76.0716C51.2838 76.0722 51.284 76.0727 51.2841 76.0732C51.8257 77.7761 51.8799 79.1393 51.5257 80.2019L51.5209 80.2164L51.517 80.2312C51.26 81.1947 50.4125 81.9867 48.7337 82.5219L46.699 83.1203L46.3401 83.2259V83.6V86V86.5H46.8401H77.3201H77.8201V86V83.6V83.2159L77.4489 83.1169L75.6605 82.64C73.9538 82.0956 72.7731 81.4149 72.0572 80.6315C71.3111 79.7333 70.6184 78.4361 69.9917 76.7137C69.9911 76.7122 69.9905 76.7107 69.99 76.7091L45.8732 6.15828L45.7576 5.82001H45.4001H35.4401H35.084L34.9676 6.15656L10.7275 76.2366L10.7257 76.2419C10.1831 77.8699 9.45755 79.1154 8.56653 80.0065L8.55885 80.0141L8.55151 80.0222C7.75178 80.8946 6.56337 81.5762 4.94272 82.0392L4.93804 82.0406L1.69804 83.0006L1.34009 83.1067V83.48V86ZM22.1018 56.46L33.866 22.4118L44.9515 56.46H22.1018Z" fill="black" stroke="black"/>
</svg>
