<svg width="591" height="114" viewBox="0 0 591 114" fill="none" xmlns="http://www.w3.org/2000/svg">
<path d="M552.984 55.86H588.597H588.969L589.076 55.5037C589.327 54.6698 589.493 53.7967 589.575 52.8852L589.576 52.8815C589.657 51.9066 589.698 50.8927 589.698 49.84C589.698 45.05 588.683 40.806 586.638 37.1228C584.674 33.3613 581.848 30.4134 578.168 28.287C574.477 26.1547 570.067 25.1 564.958 25.1C559.911 25.1 555.069 26.3625 550.44 28.88C545.88 31.3233 542.138 34.865 539.215 39.493L539.215 39.493L539.211 39.4983C536.353 44.1531 534.938 49.8085 534.938 56.44C534.938 62.823 536.15 68.3466 538.595 72.9929L538.595 72.9929L538.6 73.0021C541.124 77.5609 544.59 81.0699 548.995 83.5171C553.399 85.9641 558.485 87.18 564.237 87.18C569.989 87.18 574.96 85.9644 579.131 83.511L579.134 83.5095C583.373 80.982 586.715 77.4751 589.156 72.9994L589.342 72.6598L589.059 72.3952L587.139 70.5952L586.76 70.2396L586.42 70.6325C584.375 72.9914 582.142 74.8306 579.723 76.1586C577.338 77.3877 574.187 78.02 570.237 78.02C564.59 78.02 560.346 76.261 557.422 72.8C554.632 69.4053 553.12 63.795 552.984 55.86ZM558.541 31.5177L558.543 31.5156C560.212 30.2263 562.143 29.58 564.357 29.58C566.407 29.58 568.09 30.0146 569.432 30.854C570.773 31.6915 571.811 32.9545 572.537 34.6745C573.977 38.0842 574.326 43.6661 573.508 51.5H552.992C553.169 45.7683 553.722 41.3501 554.636 38.2241C555.664 34.9057 556.983 32.7046 558.541 31.5177Z" fill="black" stroke="black"/>
<path d="M490.999 83.6389L490.999 83.639L491.005 83.6423C495.483 86.0036 500.485 87.18 505.998 87.18C511.752 87.18 516.726 85.9232 520.898 83.3872L520.9 83.3858C525.155 80.7672 528.302 77.0025 530.34 72.1123L530.489 71.7533L530.178 71.52L528.258 70.08L527.86 69.7814L527.56 70.178C525.593 72.7743 523.44 74.7664 521.106 76.168C518.803 77.4715 515.857 78.14 512.238 78.14C506.119 78.14 501.69 76.1084 498.846 72.1101C495.97 68.0684 494.498 62.2268 494.498 54.52C494.498 45.5049 495.819 39.1096 498.375 35.2364C500.999 31.3007 504.72 29.34 509.598 29.34C510.911 29.34 511.838 29.5738 512.441 29.976L512.451 29.9826L512.461 29.9887C513.095 30.3693 513.602 31.1334 513.907 32.4154C514.056 33.3974 514.056 34.4213 513.903 35.4893L513.901 35.5067L513.899 35.5244C513.817 36.671 513.818 38.0525 513.899 39.6649L513.899 39.6766L513.9 39.6881C514.148 42.2504 514.979 44.3923 516.417 46.0838L516.422 46.0892L516.426 46.0945C517.966 47.8046 519.943 48.66 522.318 48.66C524.497 48.66 526.306 48.029 527.695 46.7299C529.183 45.4135 529.898 43.544 529.898 41.2C529.898 38.4468 529.02 35.8666 527.285 33.4699C525.546 30.987 523.033 28.977 519.773 27.4283C516.489 25.8687 512.532 25.1 507.918 25.1C502.242 25.1 497.002 26.3575 492.207 28.8766C487.485 31.3195 483.698 34.8632 480.852 39.4983C477.994 44.1522 476.578 49.7672 476.578 56.32C476.578 62.863 477.83 68.4695 480.359 73.1189L480.359 73.1189L480.364 73.128C482.969 77.686 486.515 81.1932 490.999 83.6389Z" fill="black" stroke="black"/>
<path d="M407.192 85V85.5H407.692H435.172H435.672V85V82.72V82.348L435.316 82.2411L434.116 81.8811L434.116 81.881L434.109 81.8792C432.795 81.5036 431.85 80.8692 431.229 79.9994C430.605 79.1261 430.272 77.9665 430.272 76.48V38.0792C434.389 34.7841 438.3 33.18 442.012 33.18C444.754 33.18 446.585 33.8092 447.647 34.9419C448.721 36.0874 449.312 37.9748 449.312 40.72V76.36C449.312 77.8088 448.998 78.9539 448.407 79.8307C447.822 80.7002 446.935 81.3491 445.708 81.7609L443.923 82.2369L443.552 82.3358V82.72V85V85.5H444.052H471.652H472.152V85V82.72V82.3381L471.783 82.2376L470.466 81.8782C470.465 81.8781 470.465 81.8779 470.464 81.8778C469.108 81.5007 468.134 80.8641 467.495 79.9939C466.854 79.1213 466.512 77.9637 466.512 76.48V43.12C466.512 37.1292 465.055 32.5781 462.048 29.5689C459.127 26.5661 454.941 25.1 449.572 25.1C446.049 25.1 442.458 25.9604 438.803 27.6658C435.53 29.1538 432.529 31.0519 429.802 33.3597L429.069 26.8639L429.048 26.6779L428.91 26.5514L427.47 25.2314L427.247 25.0276L426.963 25.1292L407.523 32.0892L407.192 32.2079V32.56V34.72V35.1104L407.571 35.205L409.491 35.685L409.502 35.6879L409.514 35.6903C411.043 35.9961 411.904 36.5814 412.285 37.3436L412.289 37.3516L412.293 37.3594C412.719 38.1407 412.993 39.3289 413.072 40.972V76.36C413.072 77.8518 412.756 79.0159 412.167 79.8907C411.584 80.757 410.702 81.385 409.479 81.7579L407.571 82.2349L407.192 82.3296V82.72V85Z" fill="black" stroke="black"/>
<path d="M365.367 55.86H400.98H401.352L401.459 55.5037C401.709 54.6698 401.875 53.7967 401.958 52.8852L401.959 52.8815C402.04 51.9066 402.08 50.8927 402.08 49.84C402.08 45.05 401.065 40.806 399.021 37.1228C397.057 33.3613 394.231 30.4134 390.55 28.287C386.86 26.1547 382.45 25.1 377.34 25.1C372.293 25.1 367.452 26.3625 362.823 28.88C358.263 31.3233 354.521 34.865 351.598 39.493L351.598 39.493L351.594 39.4983C348.736 44.1531 347.32 49.8085 347.32 56.44C347.32 62.823 348.532 68.3466 350.978 72.9929L350.978 72.9929L350.983 73.0021C353.506 77.5609 356.973 81.0699 361.377 83.5171C365.782 85.9641 370.868 87.18 376.62 87.18C382.372 87.18 387.343 85.9644 391.514 83.511L391.516 83.5095C395.756 80.982 399.098 77.4751 401.539 72.9994L401.725 72.6598L401.442 72.3952L399.522 70.5952L399.143 70.2396L398.802 70.6325C396.758 72.9914 394.525 74.8306 392.105 76.1586C389.721 77.3877 386.57 78.02 382.62 78.02C376.973 78.02 372.729 76.261 369.805 72.8C367.015 69.4053 365.503 63.795 365.367 55.86ZM370.923 31.5177L370.926 31.5156C372.595 30.2263 374.526 29.58 376.74 29.58C378.79 29.58 380.472 30.0146 381.815 30.854C383.155 31.6915 384.193 32.9545 384.92 34.6745C386.359 38.0842 386.709 43.6661 385.891 51.5H365.375C365.552 45.7683 366.105 41.3501 367.019 38.2241C368.047 34.9057 369.366 32.7046 370.923 31.5177Z" fill="black" stroke="black"/>
<path d="M314.031 85V85.5H314.531H342.011H342.511V85V82.72V82.3381L342.142 82.2376L340.832 81.8802C339.392 81.424 338.432 80.7622 337.875 79.935C337.38 79.079 337.111 77.9003 337.111 76.36V43.9653L337.471 26.9306L337.475 26.7043L337.309 26.5514L335.869 25.2314L335.652 25.033L335.373 25.1254L314.373 32.0854L314.031 32.199V32.56V34.72V35.1242L314.426 35.2089L316.106 35.5689L316.106 35.5689L316.113 35.5703C317.639 35.8756 318.559 36.4641 319.019 37.2519L319.032 37.2737L319.046 37.2941C319.601 38.0569 319.911 39.1782 319.911 40.72V40.7289L319.911 40.7378C319.991 42.9721 320.031 45.1662 320.031 47.32V47.3322V47.3444V47.3566V47.3688V47.381V47.3932V47.4054V47.4176V47.4299V47.4421V47.4543V47.4666V47.4788V47.4911V47.5033V47.5156V47.5278V47.5401V47.5524V47.5647V47.5769V47.5892V47.6015V47.6138V47.6261V47.6384V47.6507V47.663V47.6754V47.6877V47.7V47.7123V47.7247V47.737V47.7494V47.7617V47.7741V47.7864V47.7988V47.8112V47.8235V47.8359V47.8483V47.8607V47.8731V47.8855V47.8979V47.9103V47.9227V47.9351V47.9475V47.9599V47.9724V47.9848V47.9972V48.0097V48.0221V48.0346V48.047V48.0595V48.0719V48.0844V48.0969V48.1094V48.1218V48.1343V48.1468V48.1593V48.1718V48.1843V48.1968V48.2094V48.2219V48.2344V48.2469V48.2595V48.272V48.2845V48.2971V48.3096V48.3222V48.3348V48.3473V48.3599V48.3725V48.385V48.3976V48.4102V48.4228V48.4354V48.448V48.4606V48.4732V48.4858V48.4985V48.5111V48.5237V48.5364V48.549V48.5616V48.5743V48.5869V48.5996V48.6122V48.6249V48.6376V48.6503V48.6629V48.6756V48.6883V48.701V48.7137V48.7264V48.7391V48.7518V48.7645V48.7773V48.79V48.8027V48.8155V48.8282V48.8409V48.8537V48.8664V48.8792V48.892V48.9047V48.9175V48.9303V48.943V48.9558V48.9686V48.9814V48.9942V49.007V49.0198V49.0326V49.0455V49.0583V49.0711V49.0839V49.0968V49.1096V49.1225V49.1353V49.1482V49.161V49.1739V49.1867V49.1996V49.2125V49.2254V49.2383V49.2511V49.264V49.2769V49.2898V49.3028V49.3157V49.3286V49.3415V49.3544V49.3674V49.3803V49.3932V49.4062V49.4191V49.4321V49.445V49.458V49.471V49.484V49.4969V49.5099V49.5229V49.5359V49.5489V49.5619V49.5749V49.5879V49.6009V49.6139V49.627V49.64V49.653V49.666V49.6791V49.6921V49.7052V49.7182V49.7313V49.7444V49.7574V49.7705V49.7836V49.7967V49.8098V49.8228V49.8359V49.849V49.8622V49.8753V49.8884V49.9015V49.9146V49.9277V49.9409V49.954V49.9672V49.9803V49.9935V50.0066V50.0198V50.0329V50.0461V50.0593V50.0725V50.0856V50.0988V50.112V50.1252V50.1384V50.1516V50.1648V50.1781V50.1913V50.2045V50.2177V50.231V50.2442V50.2574V50.2707V50.2839V50.2972V50.3105V50.3237V50.337V50.3503V50.3635V50.3768V50.3901V50.4034V50.4167V50.43V50.4433V50.4566V50.4699V50.4833V50.4966V50.5099V50.5233V50.5366V50.5499V50.5633V50.5766V50.59V50.6034V50.6167V50.6301V50.6435V50.6568V50.6702V50.6836V50.697V50.7104V50.7238V50.7372V50.7506V50.7641V50.7775V50.7909V50.8043V50.8178V50.8312V50.8446V50.8581V50.8716V50.885V50.8985V50.9119V50.9254V50.9389V50.9524V50.9659V50.9793V50.9928V51.0063V51.0198V51.0333V51.0469V51.0604V51.0739V51.0874V51.101V51.1145V51.128V51.1416V51.1551V51.1687V51.1822V51.1958V51.2094V51.2229V51.2365V51.2501V51.2637V51.2773V51.2909V51.3045V51.3181V51.3317V51.3453V51.3589V51.3725V51.3862V51.3998V51.4134V51.4271V51.4407V51.4544V51.468V51.4817V51.4953V51.509V51.5227V51.5364V51.55V51.5637V51.5774V51.5911V51.6048V51.6185V51.6322V51.646V51.6597V51.6734V51.6871V51.7009V51.7146V51.7283V51.7421V51.7558V51.7696V51.7833V51.7971V51.8109V51.8246V51.8384V51.8522V51.866V51.8798V51.8936V51.9074V51.9212V51.935V51.9488V51.9626V51.9765V51.9903V52.0041V52.018V52.0318V52.0457V52.0595V52.0734V52.0872V52.1011V52.115V52.1288V52.1427V52.1566V52.1705V52.1844V52.1983V52.2122V52.2261V52.24V52.2539V52.2678V52.2817V52.2957V52.3096V52.3236V52.3375V52.3514V52.3654V52.3794V52.3933V52.4073V52.4212V52.4352V52.4492V52.4632V52.4772V52.4912V52.5052V52.5192V52.5332V52.5472V52.5612V52.5752V52.5893V52.6033V52.6173V52.6314V52.6454V52.6594V52.6735V52.6876V52.7016V52.7157V52.7298V52.7438V52.7579V52.772V52.7861V52.8002V52.8143V52.8284V52.8425V52.8566V52.8707V52.8848V52.899V52.9131V52.9272V52.9414V52.9555V52.9697V52.9838V52.998V53.0121V53.0263V53.0405V53.0547V53.0688V53.083V53.0972V53.1114V53.1256V53.1398V53.154V53.1682V53.1825V53.1967V53.2109V53.2251V53.2394V53.2536V53.2679V53.2821V53.2964V53.3106V53.3249V53.3391V53.3534V53.3677V53.382V53.3963V53.4106V53.4249V53.4392V53.4535V53.4678V53.4821V53.4964V53.5107V53.5251V53.5394V53.5537V53.5681V53.5824V53.5968V53.6111V53.6255V53.6398V53.6542V53.6686V53.683V53.6973V53.7117V53.7261V53.7405V53.7549V53.7693V53.7837V53.7981V53.8126V53.827V53.8414V53.8559V53.8703V53.8847V53.8992V53.9136V53.9281V53.9425V53.957V53.9715V53.986V54.0004V54.0149V54.0294V54.0439V54.0584V54.0729V54.0874V54.1019V54.1164V54.1309V54.1455V54.16V76.2274C319.952 77.7743 319.643 78.9633 319.139 79.8281C318.669 80.6333 317.728 81.2975 316.194 81.7589L314.402 82.2369L314.031 82.3359V82.72V85ZM321.274 16.8492C323.212 18.6187 325.574 19.5 328.331 19.5C331.087 19.5 333.45 18.6187 335.388 16.8492C337.335 15.0716 338.311 12.8161 338.311 10.12C338.311 7.35094 337.339 5.0897 335.383 3.38667C333.446 1.61994 331.085 0.73999 328.331 0.73999C325.576 0.73999 323.215 1.61994 321.278 3.38667C319.322 5.0897 318.351 7.35094 318.351 10.12C318.351 12.8161 319.327 15.0716 321.274 16.8492Z" fill="black" stroke="black"/>
<path d="M261.762 85V85.5H262.262H292.262H292.762V85V82.72V82.348L292.406 82.2411L288.806 81.1611L288.798 81.1586L288.789 81.1564C287.349 80.7773 286.395 80.1528 285.843 79.3301C285.265 78.3874 284.962 77.206 284.962 75.76V44.4142C285.503 43.0346 286.078 41.8533 286.685 40.8662C287.389 39.7729 288.126 38.8433 288.896 38.0735L288.909 38.0599L288.922 38.0454C289.831 36.9847 290.631 36.6549 291.34 36.7732L291.362 36.7768L291.384 36.7785C292.263 36.8461 293.066 37.2817 293.798 38.1601L293.813 38.1775L293.829 38.1935L294.05 38.4147C296.445 41.3781 299.334 42.9 302.702 42.9C304.977 42.9 306.938 42.1798 308.556 40.7326L308.561 40.7279L308.566 40.723C310.213 39.1625 311.002 36.9341 311.002 34.12C311.002 31.529 310.204 29.3603 308.585 27.6556C306.939 25.9233 304.506 25.1 301.382 25.1C299.126 25.1 296.883 25.7276 294.659 26.9629C292.452 28.189 290.413 29.7807 288.541 31.734C287.082 33.2562 285.82 34.879 284.755 36.6024L283.76 26.8691L283.74 26.6799L283.6 26.5514L282.16 25.2314L281.938 25.028L281.655 25.1289L262.095 32.0889L261.762 32.2072V32.56V34.72V35.1041L262.133 35.2031L263.933 35.6831L263.949 35.6872L263.964 35.6903C265.491 35.9956 266.411 36.584 266.87 37.3719L266.875 37.3803L266.88 37.3884C267.37 38.1584 267.683 39.3717 267.762 41.0914V76.24C267.762 77.7782 267.454 78.9509 266.886 79.8026L266.878 79.8151L266.87 79.828C266.405 80.6255 265.473 81.2518 263.941 81.6349L263.922 81.6396L263.904 81.6456L262.104 82.2456L261.762 82.3596V82.72V85Z" fill="black" stroke="black"/>
<path d="M219.937 55.86H255.551H255.923L256.03 55.5037C256.28 54.6698 256.446 53.7967 256.529 52.8852L256.529 52.8815C256.61 51.9066 256.651 50.8927 256.651 49.84C256.651 45.05 255.636 40.806 253.591 37.1228C251.627 33.3613 248.801 30.4134 245.121 28.287C241.43 26.1547 237.02 25.1 231.911 25.1C226.864 25.1 222.023 26.3625 217.393 28.88C212.833 31.3233 209.091 34.865 206.168 39.493L206.168 39.493L206.165 39.4983C203.306 44.1531 201.891 49.8085 201.891 56.44C201.891 62.823 203.103 68.3466 205.548 72.9929L205.548 72.9929L205.553 73.0021C208.077 77.5609 211.543 81.0699 215.948 83.5171C220.353 85.9641 225.438 87.18 231.191 87.18C236.942 87.18 241.913 85.9644 246.084 83.511L246.087 83.5095C250.326 80.982 253.668 77.4751 256.11 72.9994L256.295 72.6598L256.013 72.3952L254.093 70.5952L253.713 70.2396L253.373 70.6325C251.328 72.9914 249.096 74.8306 246.676 76.1586C244.291 77.3877 241.14 78.02 237.191 78.02C231.543 78.02 227.299 76.261 224.375 72.8C221.585 69.4053 220.073 63.795 219.937 55.86ZM225.494 31.5177L225.496 31.5156C227.165 30.2263 229.096 29.58 231.311 29.58C233.36 29.58 235.043 30.0146 236.386 30.854C237.726 31.6915 238.764 32.9545 239.49 34.6745C240.93 38.0842 241.279 43.6661 240.461 51.5H219.945C220.122 45.7683 220.675 41.3501 221.589 38.2241C222.617 34.9057 223.936 32.7046 225.494 31.5177Z" fill="black" stroke="black"/>
<path d="M132.153 112.72V113.22H132.653H160.973H161.473V112.72V110.44V110.055L161.1 109.956L158.83 109.359C158.829 109.359 158.827 109.358 158.825 109.358C157.516 108.983 156.574 108.341 155.952 107.453C155.327 106.56 154.993 105.369 154.993 103.84C154.993 100.559 154.953 97.5163 154.873 94.7128V94.7036V94.6872V94.6708V94.6544V94.638V94.6216V94.6052V94.5889V94.5725V94.5561V94.5398V94.5234V94.5071V94.4907V94.4744V94.4581V94.4417V94.4254V94.4091V94.3928V94.3765V94.3601V94.3438V94.3275V94.3113V94.295V94.2787V94.2624V94.2461V94.2299V94.2136V94.1973V94.1811V94.1648V94.1486V94.1323V94.1161V94.0998V94.0836V94.0674V94.0512V94.035V94.0187V94.0025V93.9863V93.9701V93.9539V93.9378V93.9216V93.9054V93.8892V93.873V93.8569V93.8407V93.8246V93.8084V93.7923V93.7761V93.76V93.7438V93.7277V93.7116V93.6955V93.6794V93.6632V93.6471V93.631V93.6149V93.5988V93.5828V93.5667V93.5506V93.5345V93.5184V93.5024V93.4863V93.4703V93.4542V93.4382V93.4221V93.4061V93.3901V93.374V93.358V93.342V93.326V93.31V93.294V93.278V93.262V93.246V93.23V93.214V93.198V93.182V93.1661V93.1501V93.1341V93.1182V93.1022V93.0863V93.0704V93.0544V93.0385V93.0226V93.0066V92.9907V92.9748V92.9589V92.943V92.9271V92.9112V92.8953V92.8794V92.8635V92.8476V92.8318V92.8159V92.8V92.7842V92.7683V92.7525V92.7366V92.7208V92.705V92.6891V92.6733V92.6575V92.6417V92.6258V92.61V92.5942V92.5784V92.5626V92.5468V92.5311V92.5153V92.4995V92.4837V92.468V92.4522V92.4364V92.4207V92.4049V92.3892V92.3735V92.3577V92.342V92.3263V92.3105V92.2948V92.2791V92.2634V92.2477V92.232V92.2163V92.2006V92.1849V92.1693V92.1536V92.1379V92.1222V92.1066V92.0909V92.0753V92.0596V92.044V92.0283V92.0127V91.9971V91.9814V91.9658V91.9502V91.9346V91.919V91.9034V91.8878V91.8722V91.8566V91.841V91.8254V91.8099V91.7943V91.7787V91.7632V91.7476V91.732V91.7165V91.701V91.6854V91.6699V91.6544V91.6388V91.6233V91.6078V91.5923V91.5768V91.5613V91.5458V91.5303V91.5148V91.4993V91.4838V91.4684V91.4529V91.4374V91.422V91.4065V91.3911V91.3756V91.3602V91.3447V91.3293V91.3139V91.2984V91.283V91.2676V91.2522V91.2368V91.2214V91.206V91.1906V91.1752V91.1598V91.1444V91.1291V91.1137V91.0983V91.083V91.0676V91.0523V91.0369V91.0216V91.0062V90.9909V90.9756V90.9603V90.9449V90.9296V90.9143V90.899V90.8837V90.8684V90.8531V90.8378V90.8225V90.8073V90.792V90.7767V90.7615V90.7462V90.7309V90.7157V90.7005V90.6852V90.67V90.6547V90.6395V90.6243V90.6091V90.5939V90.5787V90.5634V90.5482V90.5331V90.5179V90.5027V90.4875V90.4723V90.4571V90.442V90.4268V90.4117V90.3965V90.3813V90.3662V90.3511V90.3359V90.3208V90.3057V90.2906V90.2754V90.2603V90.2452V90.2301V90.215V90.1999V90.1848V90.1697V90.1547V90.1396V90.1245V90.1094V90.0944V90.0793V90.0643V90.0492V90.0342V90.0191V90.0041V89.9891V89.974V89.959V89.944V89.929V89.914V89.899V89.884V89.869V89.854V89.839V89.824V89.8091V89.7941V89.7791V89.7642V89.7492V89.7342V89.7193V89.7044V89.6894V89.6745V89.6595V89.6446V89.6297V89.6148V89.5999V89.585V89.5701V89.5552V89.5403V89.5254V89.5105V89.4956V89.4807V89.4659V89.451V89.4361V89.4213V89.4064V89.3916V89.3767V89.3619V89.3471V89.3322V89.3174V89.3026V89.2878V89.273V89.2582V89.2434V89.2286V89.2138V89.199V89.1842V89.1694V89.1547V89.1399V89.1251V89.1104V89.0956V89.0808V89.0661V89.0514V89.0366V89.0219V89.0072V88.9924V88.9777V88.963V88.9483V88.9336V88.9189V88.9042V88.8895V88.8748V88.8601V88.8454V88.8308V88.8161V88.8014V88.7868V88.7721V88.7575V88.7428V88.7282V88.7136V88.6989V88.6843V88.6697V88.655V88.6404V88.6258V88.6112V88.5966V88.582V88.5674V88.5528V88.5383V88.5237V88.5091V88.4945V88.48V88.4654V88.4509V88.4363V88.4218V88.4072V88.3927V88.3782V88.3636V88.3491V88.3346V88.3201V88.3056V88.2911V88.2766V88.2621V88.2476V88.2331V88.2186V88.2041V88.1897V88.1752V88.1607V88.1463V88.1318V88.1174V88.1029V88.0885V88.0741V88.0596V88.0452V88.0308V88.0164V88.0019V87.9875V87.9731V87.9587V87.9443V87.93V87.9156V87.9012V87.8868V87.8724V87.8581V87.8437V87.8293V87.815V87.8006V87.7863V87.772V87.7576V87.7433V87.729V87.7147V87.7003V87.686V87.6717V87.6574V87.6431V87.6288V87.6145V87.6003V87.586V87.5717V87.5574V87.5432V87.5289V87.5146V87.5004V87.4861V87.4719V87.4577V87.4434V87.4292V87.415V87.4007V87.3865V87.3723V87.3581V87.3439V87.3297V87.3155V87.3013V87.2871V87.273V87.2588V87.2446V87.2305V87.2163V87.2021V87.188V87.1738V87.1597V87.1456V87.1314V87.1173V87.1032V87.0891V87.0749V87.0608V87.0467V87.0326V87.0185V87.0044V86.9903V86.9763V86.9622V86.9481V86.934V86.92V84.127C156.893 85.0902 159.133 85.8235 161.592 86.3297L161.595 86.3303C164.43 86.8973 167.423 87.18 170.573 87.18C178.462 87.18 184.73 84.448 189.316 78.9612C193.975 73.4031 196.273 65.7148 196.273 55.96C196.273 45.9029 194.183 38.2113 189.922 32.9664C185.743 27.7234 180.157 25.1 173.213 25.1C166.407 25.1 160.268 26.875 154.81 30.4281L153.899 26.6818L153.86 26.5215L153.733 26.4159L152.293 25.2159L152.073 25.0325L151.803 25.1296L132.483 32.0896L132.153 32.2086V32.56V34.72V35.1299L132.555 35.2103L134.355 35.5703L134.453 35.08L134.355 35.5703C135.881 35.8756 136.801 36.464 137.261 37.2519L137.266 37.2603L137.271 37.2684C137.758 38.033 138.033 39.2024 138.033 40.84V40.8489L138.033 40.8578C138.113 43.0931 138.153 45.127 138.153 46.96V46.9703V46.9806V46.991V47.0013V47.0116V47.022V47.0324V47.0427V47.0531V47.0635V47.0739V47.0843V47.0947V47.1052V47.1156V47.126V47.1365V47.1469V47.1574V47.1679V47.1784V47.1888V47.1993V47.2098V47.2204V47.2309V47.2414V47.252V47.2625V47.2731V47.2836V47.2942V47.3048V47.3154V47.326V47.3366V47.3472V47.3578V47.3684V47.3791V47.3897V47.4004V47.411V47.4217V47.4324V47.4431V47.4538V47.4645V47.4752V47.4859V47.4966V47.5074V47.5181V47.5289V47.5396V47.5504V47.5612V47.572V47.5828V47.5936V47.6044V47.6152V47.626V47.6369V47.6477V47.6585V47.6694V47.6803V47.6912V47.702V47.7129V47.7238V47.7347V47.7457V47.7566V47.7675V47.7785V47.7894V47.8004V47.8113V47.8223V47.8333V47.8443V47.8553V47.8663V47.8773V47.8883V47.8994V47.9104V47.9215V47.9325V47.9436V47.9547V47.9658V47.9768V47.9879V47.9991V48.0102V48.0213V48.0324V48.0436V48.0547V48.0659V48.077V48.0882V48.0994V48.1106V48.1218V48.133V48.1442V48.1554V48.1667V48.1779V48.1891V48.2004V48.2117V48.2229V48.2342V48.2455V48.2568V48.2681V48.2794V48.2907V48.3021V48.3134V48.3248V48.3361V48.3475V48.3588V48.3702V48.3816V48.393V48.4044V48.4158V48.4272V48.4387V48.4501V48.4616V48.473V48.4845V48.4959V48.5074V48.5189V48.5304V48.5419V48.5534V48.5649V48.5765V48.588V48.5995V48.6111V48.6227V48.6342V48.6458V48.6574V48.669V48.6806V48.6922V48.7038V48.7154V48.7271V48.7387V48.7504V48.762V48.7737V48.7854V48.7971V48.8088V48.8205V48.8322V48.8439V48.8556V48.8673V48.8791V48.8908V48.9026V48.9144V48.9261V48.9379V48.9497V48.9615V48.9733V48.9851V48.997V49.0088V49.0206V49.0325V49.0443V49.0562V49.0681V49.08V49.0919V49.1037V49.1157V49.1276V49.1395V49.1514V49.1634V49.1753V49.1873V49.1992V49.2112V49.2232V49.2352V49.2472V49.2592V49.2712V49.2832V49.2952V49.3073V49.3193V49.3314V49.3435V49.3555V49.3676V49.3797V49.3918V49.4039V49.416V49.4281V49.4403V49.4524V49.4645V49.4767V49.4889V49.501V49.5132V49.5254V49.5376V49.5498V49.562V49.5742V49.5865V49.5987V49.6109V49.6232V49.6354V49.6477V49.66V49.6723V49.6846V49.6969V49.7092V49.7215V49.7338V49.7462V49.7585V49.7709V49.7832V49.7956V49.808V49.8204V49.8327V49.8451V49.8576V49.87V49.8824V49.8948V49.9073V49.9197V49.9322V49.9447V49.9571V49.9696V49.9821V49.9946V50.0071V50.0196V50.0322V50.0447V50.0572V50.0698V50.0823V50.0949V50.1075V50.1201V50.1327V50.1453V50.1579V50.1705V50.1831V50.1957V50.2084V50.221V50.2337V50.2463V50.259V50.2717V50.2844V50.2971V50.3098V50.3225V50.3352V50.348V50.3607V50.3734V50.3862V50.399V50.4117V50.4245V50.4373V50.4501V50.4629V50.4757V50.4885V50.5014V50.5142V50.5271V50.5399V50.5528V50.5656V50.5785V50.5914V50.6043V50.6172V50.6301V50.643V50.656V50.6689V50.6819V50.6948V50.7078V50.7207V50.7337V50.7467V50.7597V50.7727V50.7857V50.7987V50.8118V50.8248V50.8378V50.8509V50.8639V50.877V50.8901V50.9032V50.9163V50.9294V50.9425V50.9556V50.9687V50.9819V50.995V51.0082V51.0213V51.0345V51.0477V51.0608V51.074V51.0872V51.1004V51.1137V51.1269V51.1401V51.1534V51.1666V51.1799V51.1931V51.2064V51.2197V51.233V51.2463V51.2596V51.2729V51.2862V51.2996V51.3129V51.3263V51.3396V51.353V51.3664V51.3797V51.3931V51.4065V51.4199V51.4333V51.4468V51.4602V51.4736V51.4871V51.5005V51.514V51.5275V51.541V51.5544V51.5679V51.5814V51.595V51.6085V51.622V51.6356V51.6491V51.6627V51.6762V51.6898V51.7034V51.717V51.7306V51.7442V51.7578V51.7714V51.785V51.7987V51.8123V51.826V51.8396V51.8533V51.867V51.8807V51.8943V51.9081V51.9218V51.9355V51.9492V51.9629V51.9767V51.9904V52.0042V52.018V52.0317V52.0455V52.0593V52.0731V52.0869V52.1008V52.1146V52.1284V52.1423V52.1561V52.17V52.1838V52.1977V52.2116V52.2255V52.2394V52.2533V52.2672V52.2811V52.2951V52.309V52.323V52.3369V52.3509V52.3649V52.3789V52.3929V52.4069V52.4209V52.4349V52.4489V52.4629V52.477V52.491V52.5051V52.5191V52.5332V52.5473V52.5614V52.5755V52.5896V52.6037V52.6178V52.632V52.6461V52.6603V52.6744V52.6886V52.7028V52.7169V52.7311V52.7453V52.7595V52.7737V52.788V52.8022V52.8164V52.8307V52.8449V52.8592V52.8735V52.8877V52.902V52.9163V52.9306V52.9449V52.9593V52.9736V52.9879V53.0023V53.0166V53.031V53.0454V53.0597V53.0741V53.0885V53.1029V53.1173V53.1318V53.1462V53.1606V53.1751V53.1895V53.204V53.2185V53.2329V53.2474V53.2619V53.2764V53.2909V53.3055V53.32V86.32C138.153 89.0351 138.113 91.8305 138.033 94.7061H138.033V94.72V94.7373V94.7547V94.772V94.7894V94.8067V94.8241V94.8415V94.8588V94.8762V94.8936V94.911V94.9284V94.9458V94.9632V94.9805V94.9979V95.0154V95.0328V95.0502V95.0676V95.085V95.1024V95.1199V95.1373V95.1547V95.1722V95.1896V95.207V95.2245V95.2419V95.2594V95.2769V95.2943V95.3118V95.3293V95.3467V95.3642V95.3817V95.3992V95.4167V95.4342V95.4516V95.4691V95.4866V95.5042V95.5217V95.5392V95.5567V95.5742V95.5917V95.6093V95.6268V95.6443V95.6619V95.6794V95.697V95.7145V95.7321V95.7496V95.7672V95.7848V95.8023V95.8199V95.8375V95.8551V95.8726V95.8902V95.9078V95.9254V95.943V95.9606V95.9782V95.9958V96.0134V96.0311V96.0487V96.0663V96.0839V96.1016V96.1192V96.1368V96.1545V96.1721V96.1898V96.2074V96.2251V96.2427V96.2604V96.2781V96.2957V96.3134V96.3311V96.3488V96.3665V96.3842V96.4019V96.4195V96.4372V96.455V96.4727V96.4904V96.5081V96.5258V96.5435V96.5613V96.579V96.5967V96.6145V96.6322V96.6499V96.6677V96.6854V96.7032V96.721V96.7387V96.7565V96.7743V96.792V96.8098V96.8276V96.8454V96.8632V96.881V96.8988V96.9166V96.9344V96.9522V96.97V96.9878V97.0056V97.0234V97.0413V97.0591V97.0769V97.0948V97.1126V97.1304V97.1483V97.1661V97.184V97.2019V97.2197V97.2376V97.2554V97.2733V97.2912V97.3091V97.327V97.3448V97.3627V97.3806V97.3985V97.4164V97.4343V97.4522V97.4702V97.4881V97.506V97.5239V97.5419V97.5598V97.5777V97.5957V97.6136V97.6315V97.6495V97.6674V97.6854V97.7034V97.7213V97.7393V97.7573V97.7752V97.7932V97.8112V97.8292V97.8472V97.8652V97.8832V97.9012V97.9192V97.9372V97.9552V97.9732V97.9912V98.0093V98.0273V98.0453V98.0634V98.0814V98.0994V98.1175V98.1355V98.1536V98.1716V98.1897V98.2078V98.2258V98.2439V98.262V98.2801V98.2981V98.3162V98.3343V98.3524V98.3705V98.3886V98.4067V98.4248V98.4429V98.461V98.4791V98.4973V98.5154V98.5335V98.5517V98.5698V98.5879V98.6061V98.6242V98.6424V98.6605V98.6787V98.6969V98.715V98.7332V98.7514V98.7695V98.7877V98.8059V98.8241V98.8423V98.8605V98.8787V98.8969V98.9151V98.9333V98.9515V98.9697V98.9879V99.0062V99.0244V99.0426V99.0609V99.0791V99.0974V99.1156V99.1338V99.1521V99.1704V99.1886V99.2069V99.2252V99.2434V99.2617V99.28V99.2983V99.3166V99.3348V99.3531V99.3714V99.3897V99.408V99.4263V99.4447V99.463V99.4813V99.4996V99.5179V99.5363V99.5546V99.5729V99.5913V99.6096V99.628V99.6463V99.6647V99.6831V99.7014V99.7198V99.7382V99.7565V99.7749V99.7933V99.8117V99.8301V99.8485V99.8669V99.8853V99.9037V99.9221V99.9405V99.9589V99.9773V99.9957V100.014V100.033V100.051V100.069V100.088V100.106V100.125V100.143V100.162V100.18V100.199V100.217V100.236V100.254V100.273V100.291V100.309V100.328V100.346V100.365V100.383V100.402V100.42V100.439V100.457V100.476V100.495V100.513V100.532V100.55V100.569V100.587V100.606V100.624V100.643V100.661V100.68V100.698V100.717V100.736V100.754V100.773V100.791V100.81V100.829V100.847V100.866V100.884V100.903V100.922V100.94V100.959V100.977V100.996V101.015V101.033V101.052V101.07V101.089V101.108V101.126V101.145V101.164V101.182V101.201V101.22V101.238V101.257V101.276V101.294V101.313V101.332V101.35V101.369V101.388V101.407V101.425V101.444V101.463V101.481V101.5V101.519V101.538V101.556V101.575V101.594V101.612V101.631V101.65V101.669V101.687V101.706V101.725V101.744V101.763V101.781V101.8V101.819V101.838V101.856V101.875V101.894V101.913V101.932V101.95V101.969V101.988V102.007V102.026V102.045V102.063V102.082V102.101V102.12V102.139V102.158V102.176V102.195V102.214V102.233V102.252V102.271V102.29V102.308V102.327V102.346V102.365V102.384V102.403V102.422V102.441V102.46V102.479V102.497V102.516V102.535V102.554V102.573V102.592V102.611V102.63V102.649V102.668V102.687V102.706V102.725V102.744V102.763V102.782V102.801V102.82V102.838V102.857V102.876V102.895V102.914V102.933V102.952V102.971V102.99V103.009V103.028V103.048V103.067V103.086V103.105V103.124V103.143V103.162V103.181V103.2V103.219V103.238V103.257V103.276V103.295V103.314V103.333V103.352V103.371V103.39V103.41V103.429V103.448V103.467V103.486V103.505V103.524V103.543V103.562V103.582V103.601V103.62V103.639V103.658V103.677V103.696V103.715V103.735V103.754V103.773V103.792V103.811V103.83V103.85V103.869V103.888V103.907V103.926V103.946V103.965V103.984V104.003V104.022V104.042V104.061V104.08C138.033 105.708 137.721 106.866 137.168 107.626L137.162 107.634L137.157 107.643C136.61 108.462 135.622 109.092 134.092 109.475L134.079 109.478L134.066 109.482L132.506 109.962L132.153 110.071V110.44V112.72ZM174.473 75.9687L174.471 75.971C172.157 79.5961 168.992 81.38 164.933 81.38C161.512 81.38 158.28 80.755 155.233 79.5068V34.7744C157.11 33.7441 158.866 33.0091 160.504 32.5624C162.23 32.0918 163.825 31.86 165.293 31.86C169.351 31.86 172.474 33.6426 174.707 37.2625L174.71 37.2666C176.948 40.8168 178.113 47.1692 178.113 56.44C178.113 65.7858 176.869 72.2583 174.473 75.9687Z" fill="black" stroke="black"/>
<path d="M66.5054 85V85.5H67.0054H86.0854H86.5854V85V82.72V82.3189L86.1938 82.2319L84.0399 81.7533C84.0389 81.7531 84.0379 81.7529 84.0369 81.7526C82.7764 81.4554 82.1249 80.8976 81.8797 80.1619C81.6315 79.4172 81.8173 78.4661 82.6559 77.2455C82.6564 77.2448 82.6569 77.244 82.6574 77.2433L92.7865 62.8554L102.105 77.3504L102.113 77.3633L102.122 77.3757C102.948 78.5014 103.09 79.3935 102.784 80.1277L102.777 80.1446L102.771 80.1619C102.527 80.8949 101.839 81.4951 100.489 81.8734L98.7073 82.2297L98.3054 82.3101V82.72V85V85.5H98.8054H131.085H131.585V85V82.72V82.3296L131.207 82.235L128.815 81.6371C128.814 81.6367 128.812 81.6364 128.811 81.636C125.647 80.7861 123.192 79.0576 121.423 76.4448L105.895 52.2639L118.524 35.6223L118.524 35.6224L118.531 35.6128C119.554 34.196 120.52 33.159 121.425 32.48L121.436 32.4723L121.445 32.4641C122.327 31.7297 123.566 31.1566 125.194 30.7681L128.067 30.1695L128.465 30.0866V29.68V27.4V26.9H127.965H109.485H108.985V27.4V29.68V30.0619L109.354 30.1624L111.994 30.8824L112.008 30.8863L112.022 30.8893C112.743 31.041 113.222 31.2574 113.513 31.5025C113.785 31.7313 113.905 31.9933 113.905 32.32V32.3408L113.907 32.3616C113.973 33.1537 113.646 34.1552 112.796 35.3924L103.384 48.4783L94.5463 35.0501C93.7813 33.8246 93.5853 32.9022 93.7642 32.2249C94.0094 31.507 94.6878 30.9472 96.0338 30.6481L96.0441 30.6458L96.0542 30.6431L97.8542 30.1631L98.2254 30.0642V29.68V27.4V26.9H97.7254H67.7254H67.2254V27.4V29.68V30.076L67.6109 30.1667L69.6509 30.6467C70.964 30.9557 71.9169 31.4082 72.5532 31.9737L72.5629 31.9824L72.573 31.9905C73.3191 32.5873 74.085 33.4617 74.866 34.6324L90.1627 58.8225L77.28 76.7873C77.2798 76.7877 77.2795 76.788 77.2792 76.7884C76.2646 78.1931 75.2278 79.2226 74.175 79.8994L74.1678 79.9041L74.1608 79.9089C73.1908 80.5805 71.8573 81.1208 70.1356 81.5122C70.1353 81.5123 70.1349 81.5124 70.1346 81.5125L66.8969 82.2319L66.5054 82.3189V82.72V85Z" fill="black" stroke="black"/>
<path d="M1.26001 85V85.5H1.76001H61.28H61.7586L61.7795 85.0218L62.6195 65.8218L62.6424 65.3H62.12H58.76H58.425L58.2976 65.6099L53.8576 76.4099L53.854 76.4184L53.8508 76.4271C53.3105 77.8937 52.6271 79.0227 51.815 79.8379C51.0552 80.5239 49.9535 80.9 48.44 80.9H25.8997C25.8956 77.9403 25.8557 74.9449 25.78 71.9137V71.9008V71.8815V71.8623V71.843V71.8238V71.8045V71.7852V71.7659V71.7466V71.7273V71.708V71.6886V71.6693V71.6499V71.6306V71.6112V71.5918V71.5724V71.553V71.5336V71.5142V71.4947V71.4753V71.4558V71.4364V71.4169V71.3974V71.3779V71.3584V71.3389V71.3194V71.2998V71.2803V71.2607V71.2412V71.2216V71.202V71.1824V71.1628V71.1432V71.1236V71.1039V71.0843V71.0646V71.045V71.0253V71.0056V70.9859V70.9662V70.9465V70.9267V70.907V70.8873V70.8675V70.8477V70.8279V70.8082V70.7884V70.7686V70.7487V70.7289V70.7091V70.6892V70.6694V70.6495V70.6296V70.6097V70.5898V70.5699V70.55V70.5301V70.5101V70.4902V70.4702V70.4503V70.4303V70.4103V70.3903V70.3703V70.3503V70.3302V70.3102V70.2901V70.2701V70.25V70.2299V70.2098V70.1897V70.1696V70.1495V70.1294V70.1092V70.0891V70.0689V70.0488V70.0286V70.0084V69.9882V69.968V69.9478V69.9275V69.9073V69.887V69.8668V69.8465V69.8262V69.8059V69.7856V69.7653V69.745V69.7247V69.7043V69.684V69.6636V69.6432V69.6229V69.6025V69.5821V69.5617V69.5412V69.5208V69.5004V69.4799V69.4594V69.439V69.4185V69.398V69.3775V69.357V69.3365V69.3159V69.2954V69.2748V69.2543V69.2337V69.2131V69.1925V69.1719V69.1513V69.1307V69.11V69.0894V69.0687V69.0481V69.0274V69.0067V68.986V68.9653V68.9446V68.9239V68.9031V68.8824V68.8616V68.8409V68.8201V68.7993V68.7785V68.7577V68.7369V68.7161V68.6953V68.6744V68.6535V68.6327V68.6118V68.5909V68.57V68.5491V68.5282V68.5073V68.4863V68.4654V68.4444V68.4235V68.4025V68.3815V68.3605V68.3395V68.3185V68.2975V68.2764V68.2554V68.2343V68.2133V68.1922V68.1711V68.15V68.1289V68.1078V68.0867V68.0655V68.0444V68.0232V68.002V67.9809V67.9597V67.9385V67.9173V67.8961V67.8748V67.8536V67.8323V67.8111V67.7898V67.7685V67.7472V67.7259V67.7046V67.6833V67.662V67.6407V67.6193V67.5979V67.5766V67.5552V67.5338V67.5124V67.491V67.4696V67.4482V67.4267V67.4053V67.3838V67.3623V67.3409V67.3194V67.2979V67.2764V67.2548V67.2333V67.2118V67.1902V67.1687V67.1471V67.1255V67.1039V67.0823V67.0607V67.0391V67.0175V66.9958V66.9742V66.9525V66.9308V66.9091V66.8875V66.8658V66.844V66.8223V66.8006V66.7789V66.7571V66.7353V66.7136V66.6918V66.67V66.6482V66.6264V66.6046V66.5827V66.5609V66.539V66.5172V66.4953V66.4734V66.4515V66.4296V66.4077V66.3858V66.3638V66.3419V66.32V66.298V66.276V66.254V66.232V66.21V66.188V66.166V66.144V66.1219V66.0999V66.0778V66.0557V66.0336V66.0116V65.9895V65.9673V65.9452V65.9231V65.9009V65.8788V65.8566V65.8344V65.8123V65.7901V65.7679V65.7456V65.7234V65.7012V65.6789V65.6567V65.6344V65.6121V65.5899V65.5676V65.5453V65.5229V65.5006V65.4783V65.4559V65.4336V65.4112V65.3888V65.3664V65.3441V65.3216V65.2992V65.2768V65.2544V65.2319V65.2095V65.187V65.1645V65.142V65.1195V65.097V65.0745V65.052V65.0294V65.0069V64.9843V64.9618V64.9392V64.9166V64.894V64.8714V64.8488V64.8262V64.8035V64.7809V64.7582V64.7356V64.7129V64.6902V64.6675V64.6448V64.6221V64.5993V64.5766V64.5538V64.5311V64.5083V64.4855V64.4627V64.44V64.4171V64.3943V64.3715V64.3487V64.3258V64.3029V64.2801V64.2572V64.2343V64.2114V64.1885V64.1656V64.1427V64.1197V64.0968V64.0738V64.0508V64.0279V64.0049V63.9819V63.9588V63.9358V63.9128V63.8898V63.8667V63.8436V63.8206V63.7975V63.7744V63.7513V63.7282V63.7051V63.6819V63.6588V63.6356V63.6125V63.5893V63.5661V63.5429V63.5197V63.4965V63.4733V63.4501V63.4268V63.4036V63.3803V63.357V63.3338V63.3105V63.2872V63.2639V63.2405V63.2172V63.1939V63.1705V63.1471V63.1238V63.1004V63.077V63.0536V63.0302V63.0068V62.9833V62.9599V62.9364V62.913V62.8895V62.866V62.8425V62.819V62.7955V62.772V62.7484V62.7249V62.7013V62.6778V62.6542V62.6306V62.607V62.5834V62.5598V62.5362V62.5125V62.4889V62.4652V62.4416V62.4179V62.3942V62.3705V62.3468V62.3231V62.2994V62.2756V62.2519V62.2281V62.2044V62.1806V62.1568V62.133V62.1092V62.0854V62.0616V62.0377V62.0139V61.99V61.9662V61.9423V61.9184V61.8945V61.8706V61.8467V61.8227V61.7988V61.7749V61.7509V61.7269V61.703V61.679V61.655V61.631V61.607V61.5829V61.5589V61.5348V61.5108V61.4867V61.4626V61.4385V61.4144V61.3903V61.3662V61.3421V61.318V61.2938V61.2696V61.2455V61.2213V61.1971V61.1729V61.1487V61.1245V61.1003V61.076V61.0518V61.0275V61.0032V60.979V60.9547V60.9304V60.9061V60.8817V60.8574V60.8331V60.8087V60.7844V60.76V60.7356V60.7112V60.6868V60.6623V60.6379V60.6134V60.5889V60.5644V60.5399V60.5153V60.4908V60.4662V60.4416V60.417V60.3923V60.3676V60.343V60.3183V60.2936V60.2688V60.2441V60.2193V60.1945V60.1697V60.1449V60.1201V60.0952V60.0703V60.0454V60.0205V59.9956V59.9706V59.9456V59.9207V59.8957V59.8706V59.8456V59.8205V59.7954V59.7703V59.7452V59.7201V59.6949V59.6698V59.6446V59.6194V59.5941V59.5689V59.5436V59.5184V59.4931V59.4677V59.4424V59.417V59.3917V59.3663V59.3409V59.3154V59.29V59.2645V59.2391V59.2136V59.188V59.1625V59.1369V59.1114V59.0858V59.0602V59.0345V59.0089V58.9832V58.9575V58.9318V58.9061V58.8804V58.8546V58.8288V58.803V58.7772V58.7514V58.7256V58.6997V58.6738V58.6479V58.622V58.596V58.5701V58.5441V58.5181V58.4921V58.4661V58.44V58.4139V58.3878V58.3617V58.3356V58.3095V58.2833V58.2571V58.2309V58.2047V58.1785V58.1522V58.126V58.0997V58.0734V58.0471V58.0207V57.9943V57.968V57.9416V57.9151V57.8887V57.8623V57.8358V57.8093V57.7828V57.7563V57.7297V57.7032V57.6766V57.65V57.6234V57.5967V57.5701V57.5434V57.5167V57.49V57.4633V57.4365V57.4098V57.383V57.3562V57.3294V57.3025V57.2757V57.2488V57.2219V57.195V57.168V57.1411V57.1141V57.0872V57.0602V57.0331V57.0061V56.979V56.952V56.9249V56.8978V56.8706V56.8435V56.8163V56.7891V56.7619V56.7347V56.7075V56.6802V56.6529V56.6256V56.5983V56.571V56.5436V56.5163V56.4889V56.4615V56.434V56.4066V56.3791V56.3517V56.3242V56.2966V56.2691V56.2416V56.214V56.1864V56.1588V56.1312V56.1035V56.0759V56.0482V56.0205V55.9928V55.965V55.9373V55.9095V55.8817V55.8539V55.8261V55.7982V55.7704V55.7425V55.7146V55.6867V55.6587V55.6308V55.6028V55.5748V55.5468V55.5188V55.4907V55.4627V55.4346V55.4065V55.3784V55.3502V55.3221V55.2939V55.2657V55.2375V55.2093V55.181V55.1528V55.1245V55.0962V55.0678V55.0395V55.0111V54.9828V54.9544V54.926V54.8975V54.8691V54.8406V54.8121V54.7836V54.7551V54.7266V54.698V54.6694V54.6408V54.6122V54.5836V54.5549V54.5263V54.4976V54.4689V54.4402V54.4114V54.3826V54.3539V54.3251V54.2963V54.2674V54.2386V54.2097V54.1808V54.1519V54.123V54.094V54.0651V54.0361V54.0071V53.9781V53.949V53.92V53.8909V53.8618V53.8327V53.8036V53.7745V53.7453V53.7161V53.6869V53.6577V53.6285V53.5992V53.5699V53.5406V53.5113V53.482V53.4526V53.4233V53.3939V53.3645V53.3351V53.3056V53.2762V53.2467V53.2172V53.1877V53.1582V53.1286V53.0991V53.0695V53.0399V53.0103V52.9806V52.951V52.9213V52.8916V52.8619V52.8321V52.8024V52.7726V52.7428V52.713V52.6832V52.6534V52.6235V52.5936V52.5637V52.5338V52.5039V52.4739V52.444V52.414V52.384V52.354V52.3239V52.2939V52.2638V52.2337V52.2036V52.1734V52.1433V52.1131V52.0829V52.0527V52.0225V51.9922V51.962V51.9317V51.9014V51.8711V51.8408V51.8104V51.78V51.7496V51.7192V51.6888V51.6584V51.6279V51.5974V51.5669V51.5364V51.5059V51.4753V51.4447V51.4141V51.3835V51.3529V51.3223V51.2916V51.2609V51.2302V51.1995V51.1688V51.138V51.1072V51.0764V51.0456V51.0148V50.9839V50.9531V50.9222V50.8913V50.8604V50.8294V50.7985V50.7675V50.7365V50.7055V50.6745V50.6434V50.6123V50.5812V50.5501V50.519V50.4879V50.4567V50.4255V50.3944V50.3631V50.3319V50.3007V50.2694V50.2381V50.2068V50.1755V50.1441V50.1128V50.0814V50.05V50.0186V49.9871V49.9557V49.9242V49.8927V49.8612V49.8297V49.7982V49.7666V49.735V49.7034V49.6718V49.6402V49.6085V49.5768V49.5451V49.5134V49.4817V49.45V49.4182V49.3864V49.3546V49.3228V49.291V49.2591V49.2272V49.1953V49.1634V49.1315V49.0996V49.0676V49.0356V49.0036V48.9716V48.9396V48.9075V48.8754V48.8433V48.8112V48.7791V48.7469V48.7148V48.6826V48.6504V48.6182V48.5859V48.5537V48.5214V48.4891V48.4568V48.4245V48.3921V48.3597V48.3274V48.295V48.2625V48.2301V48.1976V48.1651V48.1327V48.1001V48.0676V48.0351V48.0025V47.9699V47.9373V47.9047V47.872V47.8394V47.8067V47.774V47.7413V47.7085V47.6758V47.643V47.6102V47.5774V47.5446V47.5118V47.4789V47.446V47.4131V47.3802V47.3473V47.3143V47.2813V47.2483V47.2153V47.1823V47.1493V47.1162V47.0831V47.05V47.0169V46.9838V46.9506V46.9174V46.8843V46.851V46.8178V46.7846V46.7513V46.718V46.6847V46.6514V46.6181V46.5847V46.5513V46.5179V46.4845V46.4511V46.4176V46.3842V46.38H37.28C38.79 46.38 39.8343 46.793 40.51 47.5363C41.2646 48.3664 41.9582 49.477 42.5831 50.8831L42.583 50.8831L42.5881 50.894L44.7481 55.454L44.8836 55.74H45.2H47.84H48.34V55.24V33.04V32.54H47.84H45.2H44.8759L44.7436 32.8358L42.708 37.386C42.0066 38.7867 41.2373 39.8956 40.4065 40.7264C39.7333 41.3996 38.6829 41.78 37.16 41.78H25.78V41.7434V41.7052V41.667V41.6288V41.5906V41.5525V41.5144V41.4762V41.4381V41.4V41.362V41.3239V41.2859V41.2479V41.2098V41.1718V41.1339V41.0959V41.058V41.02V40.9821V40.9442V40.9063V40.8685V40.8306V40.7928V40.7549V40.7171V40.6793V40.6416V40.6038V40.5661V40.5283V40.4906V40.4529V40.4152V40.3776V40.3399V40.3023V40.2647V40.2271V40.1895V40.1519V40.1143V40.0768V40.0393V40.0018V39.9643V39.9268V39.8893V39.8519V39.8144V39.777V39.7396V39.7022V39.6649V39.6275V39.5902V39.5528V39.5155V39.4782V39.441V39.4037V39.3664V39.3292V39.292V39.2548V39.2176V39.1804V39.1433V39.1062V39.069V39.0319V38.9948V38.9578V38.9207V38.8836V38.8466V38.8096V38.7726V38.7356V38.6987V38.6617V38.6248V38.5879V38.5509V38.5141V38.4772V38.4403V38.4035V38.3667V38.3298V38.2931V38.2563V38.2195V38.1828V38.146V38.1093V38.0726V38.0359V37.9992V37.9626V37.926V37.8893V37.8527V37.8161V37.7796V37.743V37.7064V37.6699V37.6334V37.5969V37.5604V37.5239V37.4875V37.4511V37.4146V37.3782V37.3418V37.3055V37.2691V37.2328V37.1964V37.1601V37.1238V37.0875V37.0513V37.015V36.9788V36.9426V36.9064V36.8702V36.834V36.7978V36.7617V36.7256V36.6895V36.6534V36.6173V36.5812V36.5452V36.5091V36.4731V36.4371V36.4011V36.3652V36.3292V36.2933V36.2573V36.2214V36.1855V36.1497V36.1138V36.078V36.0421V36.0063V35.9705V35.9347V35.899V35.8632V35.8275V35.7918V35.756V35.7204V35.6847V35.649V35.6134V35.5777V35.5421V35.5065V35.471V35.4354V35.3998V35.3643V35.3288V35.2933V35.2578V35.2223V35.1869V35.1514V35.116V35.0806V35.0452V35.0098V34.9745V34.9391V34.9038V34.8685V34.8332V34.7979V34.7626V34.7273V34.6921V34.6569V34.6217V34.5865V34.5513V34.5161V34.481V34.4459V34.4107V34.3757V34.3406V34.3055V34.2704V34.2354V34.2004V34.1654V34.1304V34.0954V34.0605V34.0255V33.9906V33.9557V33.9208V33.8859V33.851V33.8162V33.7813V33.7465V33.7117V33.6769V33.6422V33.6074V33.5727V33.5379V33.5032V33.4685V33.4339V33.3992V33.3645V33.3299V33.2953V33.2607V33.2261V33.1915V33.157V33.1225V33.0879V33.0534V33.0189V32.9845V32.95V32.9155V32.8811V32.8467V32.8123V32.7779V32.7436V32.7092V32.6749V32.6405V32.6062V32.5719V32.5377V32.5034V32.4692V32.4349V32.4007V32.3665V32.3324V32.2982V32.264V32.2299V32.1958V32.1617V32.1276V32.0935V32.0595V32.0254V31.9914V31.9574V31.9234V31.8894V31.8555V31.8215V31.7876V31.7537V31.7198V31.6859V31.652V31.6182V31.5843V31.5505V31.5167V31.4829V31.4491V31.4154V31.3816V31.3479V31.3142V31.2805V31.2468V31.2131V31.1795V31.1458V31.1122V31.0786V31.045V31.0114V30.9779V30.9443V30.9108V30.8773V30.8438V30.8103V30.7769V30.7434V30.71V30.6766V30.6432V30.6098V30.5764V30.543V30.5097V30.4764V30.4431V30.4098V30.3765V30.3432V30.31V30.2768V30.2435V30.2103V30.1772V30.144V30.1108V30.0777V30.0446V30.0115V29.9784V29.9453V29.9122V29.8792V29.8462V29.8132V29.7802V29.7472V29.7142V29.6813V29.6483V29.6154V29.5825V29.5496V29.5167V29.4839V29.451V29.4182V29.3854V29.3526V29.3198V29.2871V29.2543V29.2216V29.1889V29.1562V29.1235V29.0908V29.0581V29.0255V28.9929V28.9603V28.9277V28.8951V28.8625V28.83V28.7975V28.7649V28.7324V28.7V28.6675V28.635V28.6026V28.5702V28.5378V28.5054V28.473V28.4406V28.4083V28.376V28.3437V28.3114V28.2791V28.2468V28.2146V28.1823V28.1501V28.1179V28.0857V28.0535V28.0214V27.9892V27.9571V27.925V27.8929V27.8608V27.8288V27.7967V27.7647V27.7327V27.7007V27.6687V27.6367V27.6048V27.5728V27.5409V27.509V27.4771V27.4452V27.4134V27.3815V27.3497V27.3179V27.2861V27.2543V27.2225V27.1908V27.159V27.1273V27.0956V27.0639V27.0322V27.0006V26.9689V26.9373V26.9057V26.8741V26.8425V26.8109V26.7794V26.7479V26.7163V26.6848V26.6533V26.6219V26.5904V26.559V26.5275V26.4961V26.4647V26.4334V26.402V26.3706V26.3393V26.308V26.2767V26.2454V26.2141V26.1829V26.1516V26.1204V26.0892V26.058V26.0268V25.9957V25.9645V25.9334V25.9023V25.8712V25.8401V25.809V25.778V25.747V25.7159V25.6849V25.6539V25.623V25.592V25.5611V25.5301V25.4992V25.4683V25.4374V25.4066V25.3757V25.3449V25.3141V25.2833V25.2525V25.2217V25.191V25.1602V25.1295V25.0988V25.0681V25.0374V25.0067V24.9761V24.9455V24.9148V24.8842V24.8537V24.8231V24.7925V24.762V24.7315V24.701V24.6705V24.64C25.78 19.5369 25.8174 14.5836 25.8922 9.77999H45.8C47.31 9.77999 48.3543 10.193 49.03 10.9363L49.038 10.9451L49.0465 10.9535C49.7848 11.6919 50.4738 12.7887 51.0992 14.274L51.0991 14.2741L51.1031 14.2831L55.9031 25.0831L56.0351 25.38H56.36H59.72H60.2424L60.2195 24.8581L59.3795 5.65814L59.3586 5.17999H58.88H1.76001H1.26001V5.67999V8.19999V8.56036L1.6019 8.67433L4.1219 9.51433L4.12188 9.51439L4.12944 9.51678C5.5828 9.97573 6.43741 10.6328 6.8328 11.4236L6.83679 11.4316L6.84106 11.4394C7.26722 12.2207 7.54074 13.4089 7.62001 15.052V75.3886C7.54125 77.0972 7.23159 78.4085 6.72387 79.3553C6.2486 80.1649 5.38101 80.7819 4.02619 81.1582L4.01035 81.1626L3.99483 81.1681L1.59483 82.0081L1.26001 82.1253V82.48V85Z" fill="black" stroke="black"/>
</svg>
