<svg width="1920" height="1080" viewBox="0 0 1920 1080" fill="none" xmlns="http://www.w3.org/2000/svg">

<path fill-rule="evenodd" clip-rule="evenodd" d="M1386.44 -164.026C1493.79 -173.836 1602.8 -145.997 1697.23 -95.8551C1761.38 -61.7907 1819.83 -18.3096 1873.2 30.6804C1906.04 60.821 1934.77 89.2399 1959.37 126.672C2010.41 204.314 2020.81 303.097 2006.53 393.15C2049.02 399.392 2090.92 410.029 2130.13 427.289C2152.77 437.252 2180.74 455.673 2198.01 474.554C2228.06 507.424 2247.62 553.957 2261.61 594.969C2275.97 637.073 2282.56 665.439 2286.5 709.592C2294.39 798.127 2276.94 891.183 2245.57 973.756C2211.88 1062.4 2157.11 1150.71 2075.65 1203.12C2034.5 1229.6 1989.11 1241.63 1940.33 1231.12C1908.81 1224.34 1862.49 1202.41 1836.11 1186.76C1753.98 1138.05 1682.25 1073.48 1615.77 1004.23C1580.76 1024.77 1542.43 1040.45 1502.65 1047.5C1436.44 1059.24 1362.7 1046.06 1300.5 1023.71C1257.65 1008.32 1230.4 993.378 1192.69 968.039C1168.6 951.85 1145.58 934.139 1123.49 915.273C1117.35 949.659 1110.32 983.869 1102.26 1017.85C1081.63 1104.83 1053.5 1202.13 999.789 1276.35C996.571 1280.8 990.488 1288.4 983.109 1293.86C975.773 1299.28 966.708 1302.9 957.867 1298.36C956.681 1297.75 955.372 1296.68 954.024 1295.37C952.655 1294.05 951.164 1292.39 949.613 1290.54C946.511 1286.83 943.109 1282.24 939.886 1277.66C933.44 1268.5 927.649 1259.3 926.298 1257.05C919.895 1246.41 914.018 1235.46 908.164 1224.55C907.617 1223.53 907.07 1222.51 906.522 1221.49C897.369 1204.46 881.842 1174.33 868.689 1148.82C861.631 1135.12 855.257 1122.76 850.917 1114.45C849.494 1111.73 848.07 1109 846.645 1106.28C813.508 1135.89 778.241 1163.35 740.243 1188.17C669.034 1234.7 588.268 1263.92 502.453 1263.76C477.227 1263.71 453.379 1260.52 430.459 1254.36C365.621 1292.4 288.023 1304.91 214.185 1297.79C137.845 1290.44 70.4365 1259.19 8.89877 1214.57C-68.7743 1158.26 -136.409 1086.3 -196.032 1011.83C-246.016 949.4 -278.935 901.281 -319.572 832.366C-368.054 750.147 -412.155 662.234 -438.071 569.779C-449.217 530.018 -456.422 478.732 -457.685 437.219C-459.482 378.139 -453.951 315.945 -431.955 260.413C-393.395 163.063 -298.904 97.2026 -210.791 49.2119C-65.3121 -30.0231 100.876 -69.6941 266.524 -65.4242C276.861 -65.1578 286.834 -64.8188 296.506 -64.3869C290.702 -67.9726 284.805 -71.3999 278.81 -74.649C278.218 -74.9694 277.622 -75.2941 277.022 -75.6211C268.842 -80.0776 259.864 -84.9684 250.895 -85.6091C250.068 -85.6681 249.446 -86.3858 249.505 -87.2121C249.564 -88.0385 250.282 -88.6605 251.109 -88.6015C260.763 -87.9119 270.303 -82.7059 278.345 -78.3176C278.986 -77.9678 279.618 -77.6232 280.239 -77.2865C287.851 -73.1613 295.304 -68.7522 302.608 -64.1C389.883 -59.784 453.161 -47.3407 540.968 -11.1634C584.749 6.87526 626.74 29.4476 666.873 54.5087C739.345 99.7646 862.241 200.396 924.054 255.499C929.124 260.018 934.175 264.554 939.209 269.105C944.236 258.948 949.331 248.822 954.5 238.73C986.26 176.72 1031.78 97.8478 1073.97 40.7637C1121.27 -23.222 1179.73 -86.7227 1250.86 -125.008C1298.88 -150.855 1332.43 -159.091 1386.44 -164.026ZM937.828 271.901C932.59 267.163 927.334 262.441 922.058 257.738C860.275 202.662 737.532 102.17 665.283 57.0533C625.259 32.0598 583.419 9.57169 539.825 -8.38956C454.141 -43.6921 391.983 -56.2972 307.649 -60.836C347.408 -34.6712 382.789 -1.45012 415.784 32.0919C449.862 66.7358 482.536 102.723 514.118 139.669C555.905 147.911 597.271 158.419 638.009 171.34C724.389 198.738 797.17 231.236 871.801 269.021C889.106 269.587 906.41 270.917 923.368 274.529C927.328 275.372 931.27 276.283 935.196 277.252C936.071 275.468 936.949 273.684 937.828 271.901ZM938.171 277.999C938.826 276.664 939.483 275.329 940.14 273.995C942.49 276.125 944.835 278.259 947.177 280.396C944.184 279.566 941.182 278.766 938.171 277.999ZM933.846 280.009C930.16 279.106 926.461 278.255 922.744 277.463C908.096 274.344 893.196 272.947 878.199 272.271C893.868 280.255 909.637 288.471 925.649 296.921C928.361 291.275 931.093 285.637 933.846 280.009ZM928.304 298.323C931.122 292.456 933.961 286.598 936.823 280.751C941.946 282.048 947.042 283.442 952.117 284.913C974.029 304.998 995.619 325.385 1016.93 346.035C1004.15 338.957 991.295 331.954 978.366 325.019C961.316 315.875 944.679 306.977 928.304 298.323ZM924.35 299.628C906.335 290.12 888.633 280.911 871.041 271.999C862.646 271.735 854.229 271.646 845.816 271.557C840.4 271.5 834.986 271.442 829.581 271.338C828.752 271.323 828.094 270.638 828.11 269.81C828.126 268.982 828.81 268.323 829.638 268.339C834.985 268.442 840.36 268.498 845.752 268.555C852.072 268.621 858.414 268.688 864.764 268.83C792.198 232.31 721.091 200.84 637.102 174.2C597.685 161.698 557.675 151.46 517.261 143.353C577.655 214.285 634.08 288.69 688.751 363.852C719.312 405.867 749.149 448.403 778.979 490.93C791.857 509.289 804.734 527.647 817.668 545.96C850.961 462.896 885.684 380.345 924.35 299.628ZM819.73 548.88C853.218 465.273 888.119 382.216 927.005 301.03C943.338 309.662 959.935 318.539 976.948 327.663C993.143 336.349 1009.22 345.143 1025.18 354.056C1071.99 399.723 1117.48 446.642 1162.08 494.393C1161.84 499.556 1161.6 504.72 1161.36 509.886C1083.73 535.237 1008.79 568.132 938.81 613.572C921.736 624.659 905.626 635.61 890.175 646.578C866.28 614.324 842.909 581.676 819.73 548.88ZM816.339 549.279C802.996 530.394 789.718 511.465 776.442 492.538C746.625 450.031 716.82 407.541 686.325 365.616C630.929 289.458 573.763 214.122 512.515 142.411C389.672 118.294 263.168 113.791 138.314 125.186C67.6025 131.64 -28.0573 151.022 -95.3931 179.764C-160.555 207.578 -220.393 254.568 -250.181 319.721C-261.377 344.21 -267.399 364.499 -269.924 385.499C-272.45 406.516 -271.482 428.314 -268.616 455.852C-259.57 542.761 -235.224 623.437 -205.044 705.586C-186.078 757.21 -166.027 808.569 -141.544 857.738C-101.579 937.998 -44.8091 1026.79 19.7093 1090.78C76.6237 1147.22 155.721 1198.48 238.904 1190.41C257.186 1188.63 274.407 1183.74 290.745 1176.65C236.765 1133.34 189.168 1081.56 148.469 1026.27C71.699 921.974 15.7683 800.345 -16.1226 675.144C-28.3139 627.282 -45.1226 544.04 -53.4543 494.65C-53.6365 493.569 -53.8195 492.486 -54.003 491.4C-60.4481 453.244 -67.4334 411.891 -63.3369 372.727C-63.2505 371.902 -63.167 371.082 -63.0841 370.269C-61.7051 356.74 -60.4999 344.915 -49.2081 334.13C-37.0542 322.523 -20.1801 316.31 -2.68396 312.835C14.8249 309.358 33.1423 308.588 48.2949 308C74.8746 306.969 108.233 309.468 134.269 313.998C186.455 323.076 239.621 337.699 285.289 365.719C335.292 396.399 370.409 430.572 411.628 473.256C500.372 565.154 579.326 666.262 652.457 770.801C663.372 786.404 674.037 802.166 684.479 818.066C693.04 810.135 701.661 802.26 710.35 794.45C715.752 789.595 721.078 784.821 726.34 780.121C733.265 762.318 740.117 744.472 747.116 726.24C755.545 704.288 764.187 681.777 773.43 658.11C787.607 621.812 801.84 585.498 816.339 549.279ZM731.265 775.727C737.477 759.716 743.648 743.645 749.936 727.267C758.36 705.325 766.995 682.833 776.225 659.202C790.166 623.505 804.159 587.803 818.402 552.198C841.212 584.458 864.219 616.578 887.731 648.317C832.016 688.05 784.72 728.107 731.265 775.727ZM723.935 786.295C720.112 789.717 716.254 793.178 712.355 796.682C703.552 804.594 694.82 812.573 686.147 820.61C691.172 828.287 696.146 835.995 701.072 843.733C708.985 824.314 716.516 805.307 723.935 786.295ZM703.045 846.838C712.026 824.84 720.507 803.386 728.875 781.879C784.122 732.551 832.393 691.463 889.518 650.727C911.775 680.72 934.49 710.366 957.926 739.461C989.767 778.99 1023.22 818.107 1059.09 854.798C1041.61 878.967 1024.01 902.961 1005.99 926.493C957.523 989.756 905.806 1048.97 847.512 1101.47C802.213 1015.06 755.334 929.28 703.045 846.838ZM699.682 847.138C694.482 838.951 689.228 830.798 683.917 822.68C642.503 861.152 602.439 900.921 562.56 940.899C555.607 947.87 548.659 954.847 541.71 961.825C499.765 1003.95 457.797 1046.09 414.476 1086.96C413.365 1088 412.25 1089.06 411.133 1090.11C377.219 1122.13 340.041 1157.22 296.464 1177.37C311.805 1189.49 327.653 1200.93 343.998 1211.56C371.798 1229.64 400.127 1242.95 430.025 1251.13C430.4 1250.91 430.774 1250.69 431.148 1250.46C473.462 1225.14 515.969 1181.24 545.541 1142.37C601.453 1068.86 642.121 982.196 678.464 897.746C685.93 880.396 692.949 863.611 699.682 847.138ZM434.068 1252.21C476.374 1226.49 518.552 1182.8 547.928 1144.18C604.079 1070.36 644.866 983.405 681.219 898.932C688.395 882.258 695.158 866.103 701.652 850.245C753.55 932.241 800.14 1017.55 845.209 1103.54C812.01 1133.25 776.677 1160.79 738.602 1185.66C667.775 1231.94 587.572 1260.92 502.459 1260.76C478.544 1260.71 455.88 1257.81 434.068 1252.21ZM426.413 1253.24C397.233 1244.91 369.53 1231.74 342.363 1214.07C325.506 1203.11 309.177 1191.3 293.39 1178.76C276.36 1186.3 258.356 1191.53 239.194 1193.39C154.644 1201.59 74.6973 1149.54 17.5968 1092.91C-47.2341 1028.61 -104.178 939.509 -144.229 859.076C-168.787 809.755 -188.884 758.272 -207.86 706.621C-238.075 624.376 -262.516 543.431 -271.6 456.163C-274.473 428.552 -275.469 406.492 -272.902 385.14C-270.333 363.77 -264.204 343.179 -252.909 318.474C-222.718 252.438 -162.182 205.01 -96.5708 177.005C-28.8572 148.102 67.1332 128.671 138.041 122.199C261.886 110.895 387.388 115.2 509.377 138.744C478.599 102.853 446.786 67.8862 413.645 34.1956C379.478 -0.537415 342.904 -34.7614 301.666 -61.1428C290.368 -61.6941 278.664 -62.1103 266.447 -62.4252C101.321 -66.6816 -64.3445 -27.134 -209.356 51.8464C-297.403 99.8012 -391.027 165.23 -429.166 261.517C-450.953 316.522 -456.477 378.262 -454.686 437.128C-453.43 478.427 -446.256 529.469 -435.183 568.97C-409.366 661.067 -365.409 748.725 -316.988 830.843C-276.42 899.641 -243.581 947.641 -193.69 1009.95C-134.158 1084.31 -66.7143 1156.05 10.6597 1212.14C71.8926 1256.54 138.803 1287.52 214.473 1294.81C286.849 1301.78 362.735 1289.76 426.413 1253.24ZM293.834 1175.28C337.52 1155.47 374.885 1120.2 409.379 1087.64C410.394 1086.68 411.407 1085.73 412.417 1084.77C455.7 1043.95 497.629 1001.84 539.575 959.718C546.526 952.737 553.477 945.756 560.436 938.781C600.437 898.68 640.654 858.759 682.249 820.135C671.733 804.115 660.993 788.237 649.999 772.521C576.926 668.064 498.07 567.09 409.47 475.34C368.283 432.689 333.383 398.747 283.72 368.276C238.519 340.542 185.779 326.003 133.755 316.953C107.909 312.457 74.7627 309.976 48.4113 310.998C33.2342 311.587 15.1442 312.353 -2.09952 315.778C-19.356 319.205 -35.5796 325.263 -47.1361 336.3C-57.6088 346.302 -58.7147 357.082 -60.1184 370.766C-60.1952 371.515 -60.2729 372.273 -60.3531 373.039C-64.4063 411.787 -57.4821 452.785 -51.0172 491.064C-50.8431 492.095 -50.6693 493.124 -50.4961 494.151C-42.1739 543.485 -25.3811 626.642 -13.2154 674.403C18.5857 799.252 74.3572 920.525 150.885 1024.49C191.763 1080.02 239.593 1131.97 293.834 1175.28ZM848.949 1104.21C850.493 1107.16 852.036 1110.11 853.576 1113.06C857.932 1121.4 864.318 1133.79 871.383 1147.49C884.527 1173 900.021 1203.06 909.165 1220.07C909.71 1221.09 910.255 1222.1 910.799 1223.12C916.66 1234.04 922.505 1244.93 928.869 1255.51C930.184 1257.69 935.938 1266.84 942.34 1275.94C945.541 1280.49 948.889 1285 951.914 1288.62C953.428 1290.42 954.846 1291.99 956.112 1293.22C957.399 1294.47 958.452 1295.29 959.236 1295.69C966.513 1299.42 974.272 1296.66 981.325 1291.45C988.334 1286.26 994.203 1278.96 997.359 1274.6C1050.68 1200.9 1078.71 1104.12 1099.34 1017.16C1107.53 982.661 1114.64 947.925 1120.85 913.007C1100.2 895.23 1080.37 876.452 1061.23 856.974C1043.85 880.999 1026.33 904.871 1008.37 928.317C959.673 991.883 907.654 1051.42 848.949 1104.21ZM1063.01 854.508C1081.79 873.638 1101.24 892.087 1121.45 909.569C1131.23 854.024 1138.72 798.023 1144.6 741.803C1125.45 767.605 1106.69 793.741 1087.93 819.862C1079.63 831.424 1071.34 842.983 1063.01 854.508ZM1148.1 737.091C1142.08 795.65 1134.33 853.992 1124.1 911.846C1146.52 931.072 1169.89 949.102 1194.36 965.549C1231.92 990.782 1258.94 1005.59 1301.51 1020.89C1363.43 1043.13 1436.61 1056.17 1502.13 1044.55C1541.26 1037.61 1579.04 1022.22 1613.63 1002.01C1574.67 961.295 1537.5 919.011 1501.08 877.414C1472.93 845.264 1444.91 813.003 1416.9 780.748C1364.78 720.739 1312.68 660.749 1259.78 601.531C1219.65 644.116 1183.19 690.011 1148.1 737.091ZM1257.77 599.287C1218.63 640.808 1182.97 685.475 1148.7 731.285C1156.05 658.366 1160.76 585.128 1164.26 512.096C1167.92 510.905 1171.6 509.731 1175.28 508.573C1203.06 538.536 1230.52 568.808 1257.77 599.287ZM1261.84 599.342C1314.83 658.656 1367.01 718.732 1419.18 778.808C1447.19 811.057 1475.2 843.306 1503.34 875.438C1539.92 917.226 1577.22 959.647 1616.29 1000.44C1630.07 992.252 1643.34 983.306 1655.96 973.834C1685.22 951.893 1712.82 927.41 1738.75 901.078C1712.04 876.369 1685.35 851.734 1658.23 827.84C1597.22 774.086 1450.66 647.014 1386.81 595.717C1364.55 577.827 1342.07 560.436 1319.36 543.503C1315.46 547.012 1311.62 550.514 1307.82 554C1291.92 568.592 1276.63 583.742 1261.84 599.342ZM1316.9 541.676C1313.15 545.058 1309.45 548.432 1305.79 551.79C1289.9 566.37 1274.62 581.509 1259.84 597.099C1232.96 567.028 1205.86 537.155 1178.45 507.58C1199.89 500.893 1221.52 494.749 1243.31 489.045C1268.11 506.102 1292.64 523.628 1316.9 541.676ZM1321.63 541.458C1344.2 558.298 1366.55 575.591 1388.69 593.378C1452.6 644.724 1599.2 771.838 1660.21 825.589C1687.43 849.569 1714.15 874.229 1740.85 898.935C1792.55 846.056 1837.55 785.853 1875.71 723.88C1910.09 668.045 1927.85 628.27 1951.57 568.549C1958.12 552.038 1964.48 535.265 1970.43 518.294C1917.61 481.794 1859.12 453.791 1797.17 436.444C1750.46 423.364 1701.52 415.363 1652.48 411.943C1599.23 419.705 1546.1 428.543 1493.23 437.745C1478.5 440.309 1463.76 442.894 1449.02 445.529C1403.32 471.782 1360.2 506.849 1321.63 541.458ZM1440.46 447.064C1396.93 473.064 1355.93 506.626 1319.18 539.629C1295.42 521.951 1271.41 504.772 1247.15 488.045C1310.72 471.563 1375.54 458.764 1440.46 447.064ZM1456.97 441.065C1468.89 438.949 1480.81 436.862 1492.71 434.79C1540.92 426.4 1589.35 418.31 1637.9 411.061C1614.38 409.853 1590.88 409.688 1567.64 410.512C1534.78 411.675 1518.7 412.329 1488.32 425.599C1477.76 430.212 1467.3 435.402 1456.97 441.065ZM1652.36 408.928C1623.97 406.96 1595.56 406.521 1567.53 407.513C1534.58 408.68 1518.03 409.346 1487.12 422.85C1473.89 428.628 1460.83 435.302 1447.98 442.667C1379.5 454.914 1311.01 468.276 1243.88 485.795C1218.72 468.516 1193.29 451.721 1167.56 435.355C1167.63 433.505 1167.7 431.655 1167.77 429.806C1169.4 387.283 1170.84 344.665 1171.66 302.103C1171.68 301.287 1171.72 300.444 1171.77 299.575C1171.81 298.713 1171.86 297.823 1171.88 296.951C1171.93 295.224 1171.89 293.433 1171.51 291.846C1171.12 290.237 1170.34 288.699 1168.82 287.687C1167.31 286.689 1165.32 286.367 1162.85 286.639C1150.77 287.966 1139.03 294.453 1129.11 300.331C1125.82 302.276 1122.56 304.397 1119.32 306.499C1117.18 307.892 1115.05 309.276 1112.93 310.595C1107.56 313.949 1102.11 316.998 1096.22 319.136C1087.52 322.294 1078.45 322.043 1069.34 320.248C1061.71 318.745 1054.16 316.184 1046.83 313.698C1045.38 313.207 1043.94 312.718 1042.51 312.241C1031.87 308.696 1021.26 304.944 1010.62 301.184C991.774 294.521 972.857 287.834 953.63 282.231C949.604 278.543 945.568 274.865 941.521 271.198C946.664 260.797 951.879 250.429 957.17 240.098C988.891 178.164 1034.32 99.4493 1076.38 42.547C1123.58 -21.3003 1181.72 -84.3892 1252.28 -122.366C1299.88 -147.985 1333.02 -156.132 1386.71 -161.039C1493.38 -170.786 1601.8 -143.127 1695.82 -93.2055C1759.71 -59.2824 1817.95 -15.9618 1871.18 32.8906C1903.97 62.9936 1932.47 91.209 1956.87 128.32C2007.38 205.166 2017.77 303.146 2003.56 392.721C1977.18 388.973 1950.6 386.898 1924.31 385.963C1867.53 383.942 1827.17 387.66 1770.79 393.758C1731.28 398.032 1691.79 403.185 1652.36 408.928ZM1666.02 409.993C1710.77 413.876 1755.29 421.603 1797.98 433.556C1860 450.921 1918.55 478.905 1971.45 515.356C1984.92 476.578 1996.21 436.784 2002.91 396.722C2002.97 396.376 2003.03 396.03 2003.08 395.683C1976.85 391.959 1950.39 389.893 1924.2 388.961C1867.64 386.948 1827.45 390.646 1771.12 396.74C1736.06 400.532 1701.02 405.017 1666.02 409.993ZM2006.05 396.112C2005.99 396.48 2005.93 396.849 2005.87 397.217C1999.09 437.758 1987.64 477.99 1974.01 517.13C1984.18 524.215 1994.14 531.615 2003.87 539.313C2068.36 590.321 2108.95 662.915 2138.35 738.52C2170.47 821.095 2179.81 910.148 2167.05 997.706C2163.93 1019.13 2158.35 1048.35 2147.14 1073.94C2135.95 1099.49 2119 1121.73 2092.97 1128.61C2072.37 1134.05 2050.41 1129.42 2029.69 1121.21C2011.04 1113.81 1993.22 1103.43 1978.13 1094.64C1976.46 1093.67 1974.82 1092.71 1973.21 1091.78C1937.53 1071.1 1912.46 1053.36 1880.57 1027.26C1833.48 988.742 1788.54 947.153 1743.7 905.656C1742.78 904.809 1741.87 903.963 1740.95 903.117C1714.91 929.573 1687.17 954.178 1657.76 976.234C1645.24 985.626 1632.09 994.511 1618.42 1002.66C1684.65 1071.6 1756.01 1135.76 1837.64 1184.18C1863.9 1199.76 1909.9 1221.5 1940.96 1228.19C1988.81 1238.49 2033.39 1226.74 2074.03 1200.6C2154.73 1148.67 2209.2 1061.02 2242.76 972.69C2274.02 890.441 2291.35 797.845 2283.51 709.859C2279.6 665.975 2273.07 637.845 2258.77 595.937C2244.81 554.988 2225.4 508.963 2195.79 476.578C2178.87 458.067 2151.27 439.867 2128.93 430.034C2089.99 412.897 2048.34 402.322 2006.05 396.112ZM1743.06 900.973C1743.99 901.837 1744.92 902.702 1745.86 903.566C1790.63 945.001 1835.43 986.456 1882.47 1024.94C1914.25 1050.95 1939.18 1068.59 1974.72 1089.19C1976.32 1090.12 1977.96 1091.07 1979.63 1092.04C1994.75 1100.85 2012.37 1111.11 2030.8 1118.42C2051.27 1126.53 2072.51 1130.91 2092.2 1125.71C2116.91 1119.18 2133.33 1097.98 2144.39 1072.73C2155.43 1047.53 2160.97 1018.62 2164.08 997.274C2176.77 910.211 2167.48 821.683 2135.56 739.607C2106.24 664.224 2065.9 592.198 2002.01 541.666C1992.55 534.179 1982.86 526.975 1972.98 520.07C1967.09 536.824 1960.82 553.373 1954.35 569.657C1930.6 629.467 1912.77 669.416 1878.27 725.453C1840.03 787.546 1794.92 847.915 1743.06 900.973ZM958.668 286.858C981.782 308.13 1004.54 329.736 1026.99 351.63C1073.83 377.798 1119.68 404.994 1164.62 433.495C1164.67 432.227 1164.72 430.958 1164.77 429.691C1166.4 387.176 1167.84 344.579 1168.66 302.045C1168.68 301.175 1168.73 300.287 1168.77 299.421L1168.78 299.249C1168.82 298.436 1168.86 297.643 1168.88 296.868C1168.93 295.192 1168.88 293.731 1168.59 292.549C1168.31 291.39 1167.85 290.644 1167.16 290.189C1166.45 289.72 1165.26 289.392 1163.17 289.621C1151.82 290.868 1140.6 297.008 1130.63 302.912C1127.37 304.843 1124.23 306.885 1121.06 308.949C1118.91 310.346 1116.75 311.753 1114.52 313.141C1109.08 316.536 1103.42 319.712 1097.24 321.956C1087.84 325.368 1078.17 325.046 1068.76 323.192C1060.92 321.646 1053.14 319.009 1045.82 316.522C1044.38 316.035 1042.96 315.554 1041.56 315.087C1030.81 311.504 1020.13 307.728 1009.46 303.955C992.583 297.991 975.732 292.034 958.668 286.858ZM1164.49 436.962C1122.23 410.126 1079.17 384.446 1035.23 359.692C1078.58 402.251 1120.81 445.867 1162.27 490.203C1163.06 472.44 1163.8 454.69 1164.49 436.962ZM1164.94 497.461C1164.77 501.271 1164.59 505.082 1164.41 508.894C1167.27 507.966 1170.14 507.048 1173.02 506.14C1170.33 503.244 1167.64 500.351 1164.94 497.461ZM1176.19 505.144C1172.51 501.18 1168.82 497.222 1165.13 493.269C1165.95 475.103 1166.71 456.952 1167.42 438.825C1191.89 454.412 1216.09 470.388 1240.04 486.801C1218.6 492.452 1197.3 498.533 1176.19 505.144ZM1161.2 513.091C1157.63 587.381 1152.8 661.853 1145.2 735.961C1124.92 763.188 1105.1 790.793 1085.32 818.357C1077.17 829.698 1069.04 841.032 1060.88 852.331C1025.24 815.848 991.968 776.941 960.263 737.579C936.859 708.524 914.181 678.929 891.963 648.989C907.366 638.055 923.425 627.139 940.443 616.088C1009.85 571.021 1084.16 538.327 1161.2 513.091Z" stroke="#FFC700" stroke-width="4" stroke-linecap="round" mask="url(#path-1-inside-1_32_120)"/>
</svg>

