<svg width="1920" height="1080" viewBox="0 0 1920 1080" fill="none" xmlns="http://www.w3.org/2000/svg">
<path d="M1417.4 599.568C1416.29 601.019 1414.67 602.854 1412.53 605.072C1410.48 607.206 1408.22 609.211 1405.75 611.088C1403.27 612.966 1400.76 614.331 1398.2 615.184C1397.09 615.526 1396.06 615.782 1395.12 615.952C1394.19 616.123 1393.38 616.208 1392.69 616.208C1390.99 616.208 1389.75 615.739 1388.98 614.8C1388.3 613.862 1387.96 612.667 1387.96 611.216C1387.96 610.022 1388.13 608.699 1388.47 607.248C1388.81 605.798 1389.28 604.304 1389.88 602.768C1391.41 602.768 1393.03 602.598 1394.74 602.256C1396.45 601.915 1397.94 601.574 1399.22 601.232C1401.35 600.55 1403.57 599.696 1405.88 598.672C1408.18 597.563 1410.1 596.155 1411.64 594.448C1413.26 592.742 1414.07 590.566 1414.07 587.92C1414.07 586.47 1413.64 585.232 1412.79 584.208C1411.94 583.099 1410.4 582.544 1408.18 582.544C1405.62 582.544 1402.98 583.312 1400.24 584.848C1397.51 586.384 1395 588.262 1392.69 590.48C1390.39 592.699 1388.55 594.832 1387.19 596.88C1385.99 598.843 1384.71 601.232 1383.35 604.048C1382.07 606.864 1381.43 609.51 1381.43 611.984C1381.43 613.947 1382.11 615.611 1383.48 616.976C1384.84 618.342 1387.27 619.024 1390.77 619.024C1394.36 619.024 1397.81 618.171 1401.14 616.464C1404.47 614.672 1407.5 612.496 1410.23 609.936C1412.96 607.376 1415.18 604.902 1416.88 602.512C1417.48 601.574 1417.78 600.891 1417.78 600.464C1417.78 600.123 1417.65 599.824 1417.4 599.568ZM1417.4 599.568C1476.23 515.319 1529.39 350.217 1571.01 255.766C1586.34 220.954 1770.18 121.765 1767 83.5C1765.91 70.4204 1806.65 -61.0907 1799.03 -72.307C1791.33 -83.6386 1570.82 -29.5732 1560 -24C1532.82 -10.0029 1501.13 141.253 1479.72 162.431C1442 199.752 1404.58 235.455 1358.68 262.928C1312.92 290.324 1263.41 310.063 1210.81 319.751C1143.14 332.215 1070.23 330.138 1002.66 317.99C951.501 308.792 899.985 290.879 859.31 257.527C836.59 238.898 813.084 207.982 836.416 181.039C851.146 164.029 873.691 151.387 896.292 150.045C898.816 149.895 928.711 149.925 929.612 153.977C942.414 154.228 955.328 154.146 968.214 154.591M394.39 -227.736C403.648 -226.993 412.864 -220.795 420.755 -215.853C427.872 -211.395 463.772 -203.529 470.602 -198.489M470.602 -198.489C509.019 -170.138 514.138 -136.381 545.884 -99.0637C577.535 -61.8562 607.887 -23.1916 637.232 16.5133M470.602 -198.489C460.045 -199.063 449.107 -199.486 437.685 -199.797C284.988 -203.953 131.922 -161.011 -1.93335 -75.7186C-83.1067 -23.9954 -169.746 46.7138 -204.863 150.747C-224.91 210.134 -229.83 276.67 -228 339.974C-226.715 384.42 -219.926 439.327 -209.553 481.844C-185.401 580.837 -144.494 674.965 -99.5205 763.05C-61.8332 836.865 -31.3379 888.374 14.9482 955.203C70.17 1034.93 132.734 1111.89 204.469 1172.03C261.271 1219.65 323.364 1252.88 393.554 1260.55C461.7 1268 533.207 1254.31 592.754 1213.25M470.602 -198.489C551.248 -194.104 609.598 -180.954 690.717 -142.364C731.103 -123.152 769.866 -99.0723 806.94 -72.307C873.876 -23.9829 987.559 83.6591 1044.77 142.642C1049.92 147.949 1055.05 153.278 1060.16 158.628M637.232 16.5133C694.141 93.5153 747.263 174.429 798.733 256.209C839.776 321.424 879.451 387.869 919.751 453.774M637.232 16.5133C523.459 -9.19085 406.36 -13.7364 290.854 -1.15591C225.502 5.96201 137.095 27.0384 74.8413 58.1512C14.5595 88.2786 -40.8659 139.111 -68.3578 209.604C-88.976 262.472 -90.5523 297.438 -85.0901 356.626C-76.4643 450.093 -53.7059 536.782 -25.5844 624.945C-7.91804 680.33 10.7659 735.48 33.5488 788.283C70.7207 874.434 123.474 969.776 183.371 1038.47C236.167 1099.02 309.733 1154.27 387.135 1145.32C404.947 1143.26 421.662 1137.5 437.464 1129.21M637.232 16.5133C675.945 25.2596 714.273 36.4557 752.022 50.2605C831.862 79.458 899.146 114.172 968.214 154.591M919.751 453.774C941.656 489.599 680.405 492.779 703 528M919.751 453.774C950.686 363.127 982.952 273.05 1018.99 185.009M919.751 453.774C906.38 492.954 816.571 488.725 803.5 528C787.971 574.661 774.289 617.164 760.269 659.457M703 528C723.883 560.553 917.94 713.779 939.938 745.35C969.68 788.034 1111.52 741.672 1145 781.195M703 528C717.553 515.892 845.38 441.742 861.5 429.5C926.126 380.422 1061.68 454.423 1133.5 427M703 528C649.754 572.298 811.602 605.859 760.269 659.457M1145 781.195C1163.25 802.732 1211.1 826.566 1230.81 846.153M1145 781.195C1171.15 738.871 1555.16 631 1581.87 589.072M1145 781.195C1128.72 807.555 1112.31 833.738 1095.48 859.431C1050.53 928.077 1031.42 995.436 977.136 1052.38M1230.81 846.153C1251.79 866.997 1273.66 886.535 1296.57 904.336C1331.38 931.385 1356.48 947.285 1395.96 963.65C1453.31 987.424 1521.17 1001.31 1581.94 988.606C1618.81 980.896 1654.33 963.794 1686.73 941.42M1230.81 846.153C1225.15 883.987 1218.64 921.627 1211.12 959.007C1192.32 1052.43 1166.69 1156.68 1117.5 1236.2C1111.64 1245.68 1095.52 1268.28 1080.62 1259.44C1073.33 1255.12 1054.38 1220.53 1051.91 1215.78C1045.43 1203.34 1039.53 1190.51 1033.58 1177.72C1020.52 1149.66 993.495 1088.51 981.936 1062.97C980.338 1059.44 978.738 1055.91 977.136 1052.38M1230.81 846.153C1240.17 783.622 1576.45 652.372 1581.87 589.072M1686.73 941.42C1699.81 932.384 1683.46 919.394 1695.41 908.91C1722.79 884.9 1748.58 858.087 1772.78 829.249M1686.73 941.42C1650.23 897.404 1586.48 848.518 1552.34 803.446C1477.41 704.508 1460.74 491.563 1385.01 393.587M1686.73 941.42C1748.47 1015.88 1815.01 1085.25 1891.15 1137.45C1915.5 1154.14 1958.17 1177.47 1987.08 1184.62C2031.72 1195.67 2073.21 1182.79 2110.89 1154.44C2185.58 1098.23 2235.75 1003.64 2266.53 908.568C2295.2 820.019 2310.97 720.325 2303.45 625.596C2299.7 578.352 2293.56 548.044 2280.21 502.986C2267.19 459.029 2249.06 409.398 2221.42 374.447C2205.59 354.42 2179.88 334.835 2159.09 324.266C2122.55 305.689 2083.47 294.361 2043.85 287.819M1772.78 829.249C1820.83 771.977 1862.57 706.719 1897.89 639.578C1929.52 579.443 1945.83 536.605 1967.57 472.386C1973.7 454.255 1979.65 435.824 1985.19 417.167M1772.78 829.249C1747.71 802.427 1722.65 775.662 1697.15 749.682C1640.66 692.132 1504.97 556.069 1445.85 501.137C1424.92 481.699 1403.8 462.814 1382.46 444.435M1772.78 829.249C1815.46 874.922 1858.14 920.76 1902.96 963.163C1932.43 991.051 1955.56 1009.98 1988.5 1032.04C2018.3 1052 2060.95 1082.63 2098.12 1071.11C2144.91 1056.6 2159.48 977.648 2165.11 931.724C2176.6 837.963 2167.73 742.669 2137.93 654.373C2110.6 573.404 2073.03 495.881 2013.63 441.542C2004.36 433.071 1994.88 424.94 1985.19 417.167M1985.19 417.167C1997.79 374.813 2008.36 331.293 2014.54 287.468C2014.67 286.555 2043.73 288.734 2043.85 287.819M1985.19 417.167C1935.98 377.681 1881.46 347.443 1823.72 328.82C1780.41 314.85 1735.06 306.365 1689.64 302.819M2043.85 287.819C2057.06 190.938 2047.32 84.6449 1999.96 1.39648C1977.23 -38.5525 1950.73 -68.8785 1920.34 -101.131C1870.99 -153.513 1817 -199.956 1757.8 -236.286C1670.66 -289.756 1570.21 -319.269 1471.45 -308.5C1421.75 -303.08 1390.99 -294.202 1346.93 -266.456C1281.64 -225.342 1228.01 -157.246 1184.58 -88.5106C1145.85 -27.2206 1104.1 57.4804 1074.98 124.089C1069.97 135.561 1065.03 147.075 1060.16 158.628M2043.85 287.819C2019.1 283.732 1965.21 278.418 1940.53 277.465C1888.2 275.444 1851.04 279.527 1799.03 286.214C1762.53 290.907 1726.05 296.545 1689.64 302.819M1060.16 158.628C1059.04 161.295 1028.98 160.87 1027.87 163.541M1060.16 158.628C1064.25 162.905 1039.39 164.102 1043.45 168.406M1027.87 163.541C1024.88 170.683 1021.92 177.839 1018.99 185.009M1027.87 163.541C1033.09 165.044 1038.28 166.675 1043.45 168.406M1027.87 163.541C1023.9 162.398 1019.91 161.33 1015.9 160.349C1000.22 156.513 984.24 155.145 968.214 154.591M1018.99 185.009C1001.82 174.533 984.965 164.394 968.214 154.591M1018.99 185.009C1034.51 194.481 1050.28 204.23 1066.46 214.257C1081.49 223.578 1096.42 233.016 1111.24 242.583M760.269 659.457C752.487 682.932 821.287 749.858 812.922 773.879M760.269 659.457C755.345 664.598 827.048 713.337 821.991 718.651C813.592 727.477 805.264 736.381 796.995 745.35M812.922 773.879C806.669 791.837 800.148 810.137 793.204 829.06C759.898 919.823 722.555 1013.12 671.044 1092.34C643.801 1134.24 604.565 1181.64 565.367 1209.08C564.853 1209.44 593.27 1212.89 592.754 1213.25M812.922 773.879C807.673 764.326 802.366 754.815 796.995 745.35M812.922 773.879C861.88 862.987 934.696 958.873 977.136 1052.38M592.754 1213.25C613.993 1219.88 636.083 1223.28 659.45 1223.27C738.35 1223.23 812.567 1191.78 877.994 1141.8C913.441 1114.71 946.296 1084.73 977.136 1052.38M592.754 1213.25C564.772 1204.51 509.335 1187.06 483.33 1167.51C467.54 1155.64 452.247 1142.82 437.464 1129.21M1043.45 168.406C1066.41 192.736 1088.99 217.483 1111.24 242.583M1043.45 168.406C1071.27 177.725 1098.4 189.932 1125.85 200.484C1141.76 206.598 1159.68 214.832 1176.36 207.733C1187.5 202.999 1196.83 194.31 1206.9 187.333C1216.07 180.984 1226.65 174.177 1237.46 172.765C1245.86 171.668 1244.21 180.476 1244.1 187.716C1243.47 233.394 1242.27 279.138 1240.89 324.786C1240.82 327.08 1240.75 329.374 1240.68 331.669M1111.24 242.583C1154.8 291.712 1205.5 331.113 1247 382.5M1111.24 242.583C1155.31 271.031 1198.42 300.622 1240.68 331.669M1247 382.5C1250.75 387.144 1246.11 402.882 1249.85 407.541M1247 382.5C1246.78 388.639 1133.74 420.858 1133.5 427M1247 382.5C1247.75 361.839 1240.04 352.283 1240.68 331.669M1249.85 407.541C1276.09 440.247 1359.29 360.306 1385.01 393.587M1249.85 407.541C1270.53 399.927 1291.41 392.956 1312.44 386.501M1249.85 407.541C1148.74 419.111 1137.47 425.486 1133.5 427M1385.01 393.587C1398.91 376.392 1356.02 472.694 1370.99 456.628C1374.76 452.581 1378.59 448.512 1382.46 444.435M1385.01 393.587C1347.56 439.922 1614.51 537.812 1581.87 589.072M1689.64 302.819C1640.44 311.295 1591.35 320.93 1542.51 330.955C1528.84 333.761 1515.16 336.589 1501.48 339.474M1689.64 302.819C1663.43 300.772 1637.19 300.369 1611.32 301.506C1580.95 302.841 1565.88 303.591 1537.63 318.04C1525.41 324.288 1513.35 331.507 1501.48 339.474M1501.48 339.474C1438.02 352.852 1374.58 367.428 1312.44 386.501M1501.48 339.474C1458.66 368.21 1418.37 406.675 1382.46 444.435M1312.44 386.501C1288.79 367.707 1264.88 349.449 1240.68 331.669M1312.44 386.501C1336.04 405.258 1359.38 424.55 1382.46 444.435M1133.5 427C1130.41 507.696 1588.75 508.534 1581.87 589.072M796.995 745.35C711.592 837.986 632.539 937.609 547.824 1031.05C515.175 1067.06 479.557 1107.12 437.464 1129.21M796.995 745.35C787.028 727.781 776.843 710.371 766.414 693.142C698.618 581.148 625.475 472.88 543.342 374.532C505.177 328.832 472.757 292.36 426.662 259.663C384.634 229.853 335.705 214.334 287.576 204.736C263.613 199.957 232.908 197.368 208.478 198.538C180.481 199.878 141.265 202.02 119.442 226.39C108.851 238.218 108.304 251.111 106.931 266.862C103.183 309.85 110.197 355.326 116.402 397.286C124.235 450.256 78.6156 665.204 90 716.5C119.769 850.635 149.43 918.91 220.5 1030.5C258.627 1090.36 386.877 1082.62 437.464 1129.21M1390.9 600.208C1392.01 600.294 1393.25 600.294 1394.61 600.208C1396.06 600.038 1397.47 599.739 1398.84 599.312C1402.34 598.288 1404.85 596.667 1406.39 594.448C1408.01 592.144 1408.82 590.096 1408.82 588.304C1408.82 587.28 1408.61 586.427 1408.18 585.744C1407.75 585.062 1407.07 584.72 1406.13 584.72C1403.66 584.72 1401.44 585.659 1399.48 587.536C1397.51 589.328 1395.81 591.419 1394.36 593.808C1392.91 596.198 1391.75 598.331 1390.9 600.208ZM1358.9 619.024C1355.4 619.024 1352.97 618.342 1351.6 616.976C1350.24 615.611 1349.55 613.947 1349.55 611.984C1349.55 609.51 1350.19 606.864 1351.47 604.048C1352.84 601.232 1354.12 598.843 1355.31 596.88C1356.68 594.832 1358.51 592.699 1360.82 590.48C1363.12 588.262 1365.64 586.384 1368.37 584.848C1371.1 583.312 1373.75 582.544 1376.31 582.544C1378.52 582.544 1380.06 583.099 1380.91 584.208C1381.77 585.232 1382.19 586.47 1382.19 587.92C1382.19 590.566 1381.38 592.742 1379.76 594.448C1378.23 596.155 1376.31 597.563 1374 598.672C1371.7 599.696 1369.48 600.55 1367.35 601.232C1366.07 601.574 1364.57 601.915 1362.87 602.256C1361.16 602.598 1359.54 602.768 1358 602.768C1357.4 604.304 1356.94 605.798 1356.59 607.248C1356.25 608.699 1356.08 610.022 1356.08 611.216C1356.08 612.667 1356.42 613.862 1357.11 614.8C1357.87 615.739 1359.11 616.208 1360.82 616.208C1361.5 616.208 1362.31 616.123 1363.25 615.952C1364.19 615.782 1365.21 615.526 1366.32 615.184C1368.88 614.331 1371.4 612.966 1373.87 611.088C1376.35 609.211 1378.61 607.206 1380.66 605.072C1382.79 602.854 1384.41 601.019 1385.52 599.568C1385.78 599.824 1385.91 600.123 1385.91 600.464C1385.91 600.891 1385.61 601.574 1385.01 602.512C1383.3 604.902 1381.08 607.376 1378.35 609.936C1375.62 612.496 1372.59 614.672 1369.27 616.464C1365.94 618.171 1362.48 619.024 1358.9 619.024ZM1359.03 600.208C1360.14 600.294 1361.37 600.294 1362.74 600.208C1364.19 600.038 1365.6 599.739 1366.96 599.312C1370.46 598.288 1372.98 596.667 1374.51 594.448C1376.14 592.144 1376.95 590.096 1376.95 588.304C1376.95 587.28 1376.73 586.427 1376.31 585.744C1375.88 585.062 1375.2 584.72 1374.26 584.72C1371.78 584.72 1369.56 585.659 1367.6 587.536C1365.64 589.328 1363.93 591.419 1362.48 593.808C1361.03 596.198 1359.88 598.331 1359.03 600.208ZM1278.27 618.896C1278.19 618.982 1278.1 619.024 1278.02 619.024C1277.76 619.024 1277.63 618.64 1277.63 617.872C1277.63 617.36 1277.76 616.848 1278.02 616.336C1278.36 615.739 1278.96 615.398 1279.81 615.312C1282.2 615.142 1284.46 614.331 1286.59 612.88C1288.73 611.43 1290.6 609.723 1292.23 607.76C1293.85 605.712 1295 603.792 1295.68 602L1307.46 572.56C1309.08 568.55 1310.91 564.667 1312.96 560.912C1315.1 557.158 1317.78 554.086 1321.03 551.696C1324.35 549.307 1328.54 548.112 1333.57 548.112C1335.53 548.112 1337.5 548.368 1339.46 548.88C1341.51 549.307 1343.21 550.032 1344.58 551.056C1345.94 552.08 1346.63 553.531 1346.63 555.408C1346.63 555.664 1346.63 555.92 1346.63 556.176C1346.63 556.432 1346.58 556.688 1346.5 556.944C1346.24 558.31 1345.47 559.675 1344.19 561.04C1343 562.406 1342.06 564.112 1341.38 566.16C1341.29 566.758 1340.91 567.056 1340.23 567.056C1339.63 567.056 1339.5 566.672 1339.84 565.904C1340.52 564.88 1341.04 563.686 1341.38 562.32C1341.8 560.87 1342.02 559.419 1342.02 557.968C1342.02 555.75 1341.51 553.787 1340.48 552.08C1339.46 550.374 1337.71 549.52 1335.23 549.52C1333.02 549.52 1330.75 550.16 1328.45 551.44C1326.15 552.72 1324.14 554.939 1322.43 558.096L1298.75 601.744C1296.54 605.84 1294.49 608.784 1292.61 610.576C1290.82 612.283 1289.32 613.35 1288.13 613.776H1318.98C1323.07 613.776 1326.87 613.648 1330.37 613.392C1333.87 613.136 1336 612.496 1336.77 611.472C1337.62 610.278 1338.05 608.998 1338.05 607.632C1338.05 605.499 1336.9 603.92 1334.59 602.896C1334.34 602.726 1334.21 602.555 1334.21 602.384C1334.21 602.214 1334.3 602.043 1334.47 601.872C1334.72 601.702 1335.02 601.702 1335.36 601.872C1336.13 602.214 1337.03 602.982 1338.05 604.176C1339.16 605.286 1340.18 606.523 1341.12 607.888C1342.06 609.168 1342.66 610.192 1342.91 610.96C1343.17 611.728 1343.3 612.496 1343.3 613.264C1343.3 616.763 1340.27 618.512 1334.21 618.512C1329.43 618.512 1324.31 618.342 1318.85 618C1313.39 617.659 1307.97 617.275 1302.59 616.848C1297.3 616.422 1292.31 616.123 1287.62 615.952C1285.83 615.782 1284.03 616.038 1282.24 616.72C1280.54 617.318 1279.21 618.043 1278.27 618.896ZM1239.76 618.384C1238.91 618.384 1238.18 618.214 1237.58 617.872C1236.99 617.531 1236.69 616.891 1236.69 615.952C1236.69 614.758 1236.99 613.392 1237.58 611.856C1238.18 610.32 1238.86 608.827 1239.63 607.376C1240.4 605.84 1241.08 604.603 1241.68 603.664C1238.69 606.822 1235.58 609.808 1232.34 612.624C1230.71 613.99 1228.92 615.27 1226.96 616.464C1225 617.659 1222.91 618.256 1220.69 618.256C1219.83 618.256 1219.24 618 1218.9 617.488C1218.55 616.891 1218.38 616.208 1218.38 615.44C1218.38 615.014 1218.43 614.715 1218.51 614.544C1218.94 611.216 1220.01 607.76 1221.71 604.176C1223.42 600.592 1225.51 597.222 1227.98 594.064C1230.46 590.907 1232.98 588.347 1235.54 586.384C1238.44 584.166 1241.64 583.056 1245.14 583.056H1259.86C1260.28 583.056 1260.5 583.227 1260.5 583.568C1260.5 584.251 1260.11 584.592 1259.34 584.592C1258.49 584.592 1257.64 585.147 1256.78 586.256C1255.93 587.28 1255.29 588.134 1254.86 588.816C1254.27 589.755 1253.33 591.334 1252.05 593.552C1250.77 595.771 1249.45 598.203 1248.08 600.848C1246.8 603.408 1245.69 605.798 1244.75 608.016C1243.81 610.235 1243.34 611.856 1243.34 612.88C1243.34 614.075 1243.94 614.672 1245.14 614.672C1246.42 614.672 1247.87 614.075 1249.49 612.88C1251.11 611.686 1252.73 610.235 1254.35 608.528C1256.06 606.736 1257.59 604.987 1258.96 603.28C1260.41 601.488 1261.56 600.08 1262.42 599.056C1262.93 599.568 1262.89 600.294 1262.29 601.232C1261.78 602.086 1261.31 602.768 1260.88 603.28C1259.17 605.499 1257.21 607.803 1254.99 610.192C1252.77 612.496 1250.34 614.459 1247.7 616.08C1245.14 617.616 1242.49 618.384 1239.76 618.384ZM1225.94 613.904C1226.96 613.904 1228.37 613.179 1230.16 611.728C1232.04 610.192 1234.04 608.315 1236.18 606.096C1238.31 603.792 1240.31 601.403 1242.19 598.928C1244.07 596.368 1245.61 594.064 1246.8 592.016C1248.08 589.883 1248.72 588.262 1248.72 587.152C1248.72 586.214 1248.42 585.574 1247.82 585.232C1247.31 584.891 1246.63 584.72 1245.78 584.72C1244.41 584.72 1242.92 585.232 1241.3 586.256C1239.76 587.195 1238.52 588.134 1237.58 589.072C1236.56 590.011 1235.32 591.504 1233.87 593.552C1232.51 595.515 1231.14 597.691 1229.78 600.08C1228.41 602.47 1227.26 604.774 1226.32 606.992C1225.38 609.211 1224.91 611.003 1224.91 612.368C1224.91 613.392 1225.25 613.904 1225.94 613.904ZM1188.24 619.792C1187.9 619.792 1187.9 619.451 1188.24 618.768C1188.67 618 1189.06 617.147 1189.4 616.208C1189.82 615.27 1190.25 614.246 1190.68 613.136C1191.53 611.088 1192.47 608.784 1193.49 606.224C1194.52 603.664 1195.5 601.19 1196.44 598.8C1197.38 596.326 1198.19 594.235 1198.87 592.528C1199.64 590.736 1200.15 589.584 1200.4 589.072C1199.21 590.352 1197.76 591.974 1196.05 593.936C1194.43 595.814 1192.9 597.648 1191.44 599.44C1189.99 601.232 1188.88 602.64 1188.12 603.664C1187.86 604.006 1187.65 604.176 1187.48 604.176C1187.31 604.176 1187.22 603.963 1187.22 603.536C1187.22 602.854 1187.43 602.214 1187.86 601.616C1189.48 599.568 1191.27 597.264 1193.24 594.704C1195.28 592.144 1197.12 589.798 1198.74 587.664C1200.36 585.446 1201.39 583.995 1201.81 583.312C1202.75 583.142 1204.12 582.886 1205.91 582.544C1207.79 582.203 1209.07 581.734 1209.75 581.136C1210 580.88 1210.26 580.752 1210.52 580.752C1210.69 580.752 1210.77 580.923 1210.77 581.264C1210.86 581.52 1210.77 581.819 1210.52 582.16C1210 582.672 1209.24 583.782 1208.21 585.488C1207.27 587.195 1206.21 589.158 1205.01 591.376C1203.82 593.595 1202.67 595.728 1201.56 597.776C1202.41 596.496 1203.52 595.003 1204.88 593.296C1206.34 591.504 1207.91 589.798 1209.62 588.176C1211.33 586.47 1213.03 585.062 1214.74 583.952C1216.53 582.843 1218.2 582.288 1219.73 582.288C1220.84 582.288 1221.78 582.544 1222.55 583.056C1223.32 583.483 1223.91 584.294 1224.34 585.488C1224.6 586.086 1224.72 586.768 1224.72 587.536C1224.72 588.987 1224.34 590.395 1223.57 591.76C1222.89 593.04 1222.38 594.022 1222.04 594.704C1221.95 594.96 1221.65 595.216 1221.14 595.472C1220.63 595.643 1220.42 595.558 1220.5 595.216C1220.59 594.79 1220.63 594.363 1220.63 593.936C1220.71 593.51 1220.76 593.04 1220.76 592.528C1220.76 591.078 1220.46 589.755 1219.86 588.56C1219.35 587.366 1218.37 586.768 1216.92 586.768C1215.55 586.768 1213.89 587.622 1211.92 589.328C1209.96 591.035 1208 592.998 1206.04 595.216C1203.56 598.118 1201.6 600.891 1200.15 603.536C1198.7 606.096 1197.5 608.614 1196.56 611.088C1196.05 612.454 1195.54 613.819 1195.03 615.184C1194.52 616.464 1194.13 617.488 1193.88 618.256C1192.77 618.342 1191.66 618.598 1190.55 619.024C1189.44 619.536 1188.67 619.792 1188.24 619.792ZM1189.48 569.104C1188.28 569.104 1187.43 568.72 1186.92 567.952C1186.57 567.526 1186.4 566.971 1186.4 566.288C1186.4 564.923 1187.04 563.814 1188.32 562.96C1189.26 562.448 1190.12 562.192 1190.88 562.192C1192.16 562.192 1193.06 562.576 1193.57 563.344C1193.91 563.771 1194.08 564.326 1194.08 565.008C1194.08 566.374 1193.4 567.483 1192.04 568.336C1191.27 568.848 1190.41 569.104 1189.48 569.104ZM1167.2 618.384C1166.35 618.384 1165.63 618.214 1165.03 617.872C1164.52 617.531 1164.26 616.891 1164.26 615.952C1164.26 614.758 1164.56 613.35 1165.16 611.728C1165.84 610.107 1166.56 608.486 1167.33 606.864C1168.19 605.243 1168.83 603.92 1169.25 602.896C1169.85 601.702 1170.57 600.166 1171.43 598.288C1172.37 596.326 1173.22 594.491 1173.99 592.784C1174.84 590.992 1175.44 589.755 1175.78 589.072C1174.59 590.352 1173.13 591.974 1171.43 593.936C1169.81 595.814 1168.27 597.648 1166.82 599.44C1165.37 601.232 1164.26 602.64 1163.49 603.664C1163.24 604.006 1163.02 604.176 1162.85 604.176C1162.68 604.176 1162.6 603.963 1162.6 603.536C1162.6 602.854 1162.81 602.214 1163.24 601.616C1164.86 599.568 1166.65 597.264 1168.61 594.704C1170.66 592.144 1172.49 589.798 1174.12 587.664C1175.74 585.446 1176.76 583.995 1177.19 583.312C1178.13 583.142 1179.49 582.886 1181.28 582.544C1183.16 582.203 1184.44 581.734 1185.12 581.136C1185.38 580.88 1185.64 580.752 1185.89 580.752C1186.06 580.752 1186.15 580.923 1186.15 581.264C1186.23 581.52 1186.15 581.819 1185.89 582.16C1185.38 582.758 1184.48 584.208 1183.2 586.512C1181.92 588.816 1180.56 591.376 1179.11 594.192C1177.74 596.923 1176.46 599.398 1175.27 601.616C1174.07 603.92 1173.05 606.139 1172.2 608.272C1171.34 610.406 1170.92 611.942 1170.92 612.88C1170.92 614.075 1171.51 614.672 1172.71 614.672C1173.82 614.672 1175.23 613.99 1176.93 612.624C1178.72 611.259 1180.52 609.638 1182.31 607.76C1184.1 605.798 1185.68 604.006 1187.04 602.384C1187.47 601.872 1187.98 601.275 1188.58 600.592C1189.26 599.824 1189.69 599.355 1189.86 599.184C1190.03 599.355 1190.12 599.654 1190.12 600.08C1190.03 600.678 1189.82 601.275 1189.48 601.872C1189.13 602.384 1188.79 602.854 1188.45 603.28C1186.66 605.499 1184.7 607.803 1182.56 610.192C1180.43 612.496 1178.08 614.459 1175.52 616.08C1172.96 617.616 1170.19 618.384 1167.2 618.384ZM1144.26 618.64C1142.13 618.64 1140.51 617.915 1139.4 616.464C1138.72 615.44 1138.03 613.904 1137.35 611.856C1136.67 609.808 1136.07 607.675 1135.56 605.456C1135.05 603.238 1134.62 601.446 1134.28 600.08C1131.89 603.152 1129.76 606.224 1127.88 609.296C1126.09 612.368 1124.89 614.758 1124.3 616.464C1124.13 616.976 1123.53 617.403 1122.5 617.744C1121.57 618.086 1120.63 618.256 1119.69 618.256C1118.32 618.256 1117.81 617.83 1118.15 616.976C1120.8 611.088 1123.31 605.414 1125.7 599.952C1128.09 594.491 1130.61 588.987 1133.26 583.44C1135.99 577.894 1139.06 572.134 1142.47 566.16C1144.86 561.808 1147.72 557.627 1151.05 553.616C1154.46 549.52 1158.09 546.192 1161.93 543.632C1165.77 540.987 1169.65 539.664 1173.58 539.664C1174.86 539.664 1176.05 540.006 1177.16 540.688C1178.27 541.371 1178.82 542.438 1178.82 543.888V547.6C1178.82 547.942 1178.57 548.112 1178.06 548.112C1177.8 548.112 1177.67 548.027 1177.67 547.856C1177.67 546.491 1177.07 545.595 1175.88 545.168C1174.69 544.656 1173.53 544.4 1172.42 544.4C1169.44 544.4 1166.41 544.998 1163.34 546.192C1159.92 547.558 1157.06 549.606 1154.76 552.336C1152.46 555.067 1150.32 557.968 1148.36 561.04C1145.8 564.966 1143.28 569.574 1140.81 574.864C1138.33 580.07 1136.03 585.318 1133.9 590.608C1131.85 595.899 1130.01 600.678 1128.39 604.944C1129.33 603.75 1130.27 602.555 1131.21 601.36C1132.15 600.166 1133.04 599.056 1133.9 598.032C1133.9 597.862 1133.85 597.691 1133.77 597.52C1133.77 597.35 1133.77 597.179 1133.77 597.008C1133.77 596.411 1133.9 595.899 1134.15 595.472C1134.41 595.046 1134.75 594.534 1135.18 593.936C1135.77 593.083 1136.33 592.443 1136.84 592.016C1137.35 591.504 1137.91 590.864 1138.5 590.096L1138.89 592.272C1142.64 588.432 1145.93 585.659 1148.74 583.952C1150.71 582.758 1152.63 582.16 1154.5 582.16C1156.38 582.16 1157.32 582.886 1157.32 584.336C1157.32 585.531 1156.72 587.024 1155.53 588.816C1155.1 589.414 1154.85 589.84 1154.76 590.096C1154.67 590.352 1154.5 590.608 1154.25 590.864C1154.16 590.95 1153.99 590.95 1153.74 590.864C1153.48 590.779 1153.35 590.651 1153.35 590.48C1153.35 589.456 1153.01 588.816 1152.33 588.56C1151.65 588.219 1150.88 588.048 1150.02 588.048C1148.4 588.048 1146.65 588.646 1144.78 589.84C1142.98 590.95 1141.15 592.486 1139.27 594.448C1139.7 596.582 1140.17 598.928 1140.68 601.488C1141.28 603.963 1141.92 606.267 1142.6 608.4C1143.28 610.534 1143.92 612.112 1144.52 613.136C1144.95 613.819 1145.54 614.288 1146.31 614.544C1147.08 614.715 1147.72 614.8 1148.23 614.8C1149.43 614.8 1150.79 614.203 1152.33 613.008C1153.95 611.728 1155.57 610.235 1157.19 608.528C1158.9 606.736 1160.43 604.987 1161.8 603.28C1163.25 601.574 1164.36 600.208 1165.13 599.184C1165.47 599.611 1165.55 600.038 1165.38 600.464C1165.3 600.976 1165.04 601.531 1164.62 602.128C1164.27 602.64 1163.93 603.11 1163.59 603.536C1161.89 605.67 1160.05 607.846 1158.09 610.064C1156.13 612.198 1154.03 614.118 1151.82 615.824C1150.88 616.592 1149.73 617.275 1148.36 617.872C1146.99 618.384 1145.63 618.64 1144.26 618.64ZM1029.89 621.2C1027.24 621.2 1025.06 620.432 1023.36 618.896C1021.74 617.36 1021.1 615.056 1021.44 611.984C1021.52 610.875 1021.78 609.723 1022.21 608.528C1022.72 607.248 1023.27 606.011 1023.87 604.816C1024.38 603.622 1024.89 603.024 1025.41 603.024C1025.83 603.024 1025.88 603.366 1025.53 604.048C1024.42 606.352 1023.87 608.4 1023.87 610.192C1023.87 612.07 1024.51 613.478 1025.79 614.416C1027.16 615.355 1028.9 615.824 1031.04 615.824C1035.22 615.824 1039.83 614.502 1044.86 611.856C1049.9 609.126 1055.1 605.67 1060.48 601.488C1065.85 597.222 1071.02 592.784 1075.97 588.176C1072.64 588.006 1069.52 587.835 1066.62 587.664C1063.72 587.494 1061.16 587.408 1058.94 587.408C1057.06 587.408 1054.8 587.579 1052.16 587.92C1049.51 588.262 1047.46 589.158 1046.01 590.608C1045.42 591.206 1044.86 592.102 1044.35 593.296C1043.92 594.406 1043.71 595.558 1043.71 596.752C1043.71 597.094 1043.71 597.435 1043.71 597.776C1043.8 598.032 1043.88 598.331 1043.97 598.672C1043.62 598.502 1042.98 598.374 1042.05 598.288C1041.19 598.118 1040.64 597.563 1040.38 596.624C1040.3 596.368 1040.25 595.942 1040.25 595.344C1040.25 593.979 1040.77 592.87 1041.79 592.016C1042.81 591.078 1044.05 590.267 1045.5 589.584C1046.95 588.902 1048.28 588.304 1049.47 587.792C1052.29 586.598 1055.19 585.616 1058.17 584.848C1061.16 584.08 1064.19 583.696 1067.26 583.696C1070.76 583.696 1075.11 583.824 1080.32 584.08C1084.33 580.155 1088.04 576.443 1091.45 572.944C1094.87 569.446 1097.64 566.544 1099.77 564.24C1102.76 561.083 1105.92 558.395 1109.25 556.176C1112.66 553.872 1116.12 552.251 1119.61 551.312H1112.57C1109.59 551.312 1106.34 551.44 1102.85 551.696C1099.35 551.952 1096.06 552.507 1092.99 553.36C1089.92 554.214 1087.36 555.494 1085.31 557.2C1084.03 558.31 1083.05 559.59 1082.37 561.04C1081.77 562.406 1081.47 563.686 1081.47 564.88C1081.47 566.502 1081.94 567.611 1082.88 568.208C1082.96 568.208 1083.01 568.251 1083.01 568.336C1083.01 568.592 1082.71 568.891 1082.11 569.232C1081.51 569.488 1081.09 569.531 1080.83 569.36C1079.98 568.763 1079.21 567.568 1078.53 565.776C1077.93 563.899 1077.72 562.406 1077.89 561.296C1078.31 558.651 1079.46 556.518 1081.34 554.896C1083.3 553.19 1085.69 551.867 1088.51 550.928C1091.41 549.99 1094.44 549.35 1097.6 549.008C1100.84 548.667 1103.91 548.454 1106.81 548.368C1109.8 548.283 1112.32 548.24 1114.37 548.24H1128.32C1128.49 548.24 1128.53 548.283 1128.45 548.368C1130.58 547.43 1132.8 546.491 1135.1 545.552C1137.49 544.614 1139.54 544.144 1141.25 544.144C1141.67 544.144 1142.1 544.272 1142.53 544.528C1143.04 544.784 1143.29 545.04 1143.29 545.296C1143.29 545.723 1142.44 545.936 1140.73 545.936C1139.88 545.936 1138.98 546.107 1138.05 546.448C1137.19 546.704 1136.04 547.6 1134.59 549.136C1133.4 550.331 1131.9 552.251 1130.11 554.896C1128.32 557.542 1126.36 560.656 1124.22 564.24C1122.09 567.739 1119.96 571.494 1117.82 575.504C1115.69 579.43 1113.64 583.312 1111.68 587.152C1109.72 590.992 1108.01 594.534 1106.56 597.776C1106.39 598.288 1105.92 599.483 1105.15 601.36C1104.38 603.152 1103.66 605.158 1102.97 607.376C1102.29 609.51 1101.95 611.43 1101.95 613.136C1101.95 615.44 1102.76 616.592 1104.38 616.592C1105.15 616.592 1105.92 616.422 1106.69 616.08C1107.8 615.654 1108.95 615.014 1110.14 614.16C1111.34 613.307 1112.49 612.326 1113.6 611.216C1115.82 609.083 1117.69 607.035 1119.23 605.072C1120.77 603.024 1121.7 601.787 1122.05 601.36C1122.3 600.934 1122.6 600.72 1122.94 600.72C1123.28 600.72 1123.45 600.934 1123.45 601.36C1123.45 601.616 1123.33 601.958 1123.07 602.384C1122.47 603.238 1121.36 604.731 1119.74 606.864C1118.12 608.912 1116.2 611.003 1113.98 613.136C1111.85 615.27 1109.54 616.891 1107.07 618C1106.3 618.342 1105.49 618.598 1104.64 618.768C1103.78 619.024 1102.93 619.152 1102.08 619.152C1100.37 619.152 1098.79 618.555 1097.34 617.36C1095.98 616.166 1095.29 614.203 1095.29 611.472C1095.29 608.998 1095.76 606.352 1096.7 603.536C1097.73 600.635 1098.66 598.288 1099.52 596.496C1101.22 592.827 1103.23 588.731 1105.53 584.208C1107.92 579.686 1110.36 575.163 1112.83 570.64C1115.39 566.118 1117.74 562.022 1119.87 558.352C1122 554.683 1123.75 551.952 1125.12 550.16C1123.75 550.16 1121.92 550.715 1119.61 551.824C1117.31 552.848 1114.84 554.256 1112.19 556.048C1109.63 557.755 1107.24 559.76 1105.02 562.064C1102.38 564.795 1099.3 568.123 1095.81 572.048C1092.39 575.974 1088.68 580.07 1084.67 584.336C1086.63 584.422 1088.6 584.507 1090.56 584.592C1092.52 584.592 1094.48 584.592 1096.45 584.592C1097.81 584.592 1099.3 584.464 1100.93 584.208C1102.63 583.867 1104.21 583.355 1105.66 582.672C1105.66 582.672 1105.41 583.142 1104.89 584.08C1104.47 584.934 1103.7 585.83 1102.59 586.768C1101.57 587.622 1100.16 588.134 1098.37 588.304C1096.74 588.39 1095.12 588.475 1093.5 588.56C1091.88 588.56 1090.26 588.56 1088.64 588.56C1087.27 588.56 1085.91 588.56 1084.54 588.56C1083.26 588.56 1081.98 588.518 1080.7 588.432C1076.78 592.528 1072.68 596.539 1068.41 600.464C1064.15 604.304 1059.84 607.803 1055.49 610.96C1051.13 614.118 1046.78 616.592 1042.43 618.384C1038.16 620.262 1033.98 621.2 1029.89 621.2ZM983.707 618.768C982.854 618.768 982 618.555 981.147 618.128C980.038 617.616 978.971 616.592 977.947 615.056C976.923 613.52 976.07 611.899 975.387 610.192C974.704 608.486 974.235 607.078 973.979 605.968C971.59 608.016 969.542 610.022 967.835 611.984C966.128 613.947 964.166 616.038 961.947 618.256C961.691 618.512 961.051 618.64 960.027 618.64C959.43 618.64 958.832 618.555 958.235 618.384C957.638 618.214 957.339 617.958 957.339 617.616C957.339 617.19 957.595 616.806 958.107 616.464C961.094 614.075 963.696 612.027 965.915 610.32C968.134 608.528 970.694 606.438 973.595 604.048C973.51 603.622 973.339 602.683 973.083 601.232C972.827 599.782 972.528 598.203 972.187 596.496C971.931 594.79 971.718 593.296 971.547 592.016C971.376 590.651 971.291 589.84 971.291 589.584C971.462 588.56 972.016 587.664 972.955 586.896C973.894 586.043 974.96 585.403 976.155 584.976C977.435 584.464 978.544 584.208 979.483 584.208C980.678 584.208 981.275 584.507 981.275 585.104C981.275 585.446 980.934 585.616 980.251 585.616C979.142 585.616 978.459 586.086 978.203 587.024C977.947 587.963 977.776 588.731 977.691 589.328C977.606 589.84 977.52 590.352 977.435 590.864C977.435 591.376 977.435 591.888 977.435 592.4C977.435 593.68 977.52 594.96 977.691 596.24C977.862 597.52 978.075 598.758 978.331 599.952C978.758 599.611 979.611 598.928 980.891 597.904C982.171 596.88 983.664 595.686 985.371 594.32C987.078 592.955 988.784 591.59 990.491 590.224C992.198 588.859 993.648 587.707 994.843 586.768C996.038 585.83 996.763 585.275 997.019 585.104C998.043 584.422 999.28 584.123 1000.73 584.208C1002.27 584.208 1003.59 584.208 1004.7 584.208C1004.96 584.208 1005.08 584.464 1005.08 584.976C1005.08 585.744 1004.91 586.128 1004.57 586.128C1003.38 586.214 1002.14 586.512 1000.86 587.024C999.664 587.451 998.726 587.835 998.043 588.176C996.08 589.03 993.904 590.31 991.515 592.016C989.211 593.638 986.95 595.344 984.731 597.136C982.512 598.843 980.55 600.422 978.843 601.872C979.014 602.64 979.355 603.963 979.867 605.84C980.464 607.718 981.19 609.51 982.043 611.216C983.067 613.435 984.304 614.544 985.755 614.544C986.95 614.544 988.102 613.862 989.211 612.496C990.32 611.131 991.259 609.595 992.027 607.888C992.88 606.096 993.435 604.603 993.691 603.408C993.862 602.896 994.075 602.64 994.331 602.64C994.928 602.64 995.142 603.11 994.971 604.048C994.544 606.011 993.819 608.144 992.795 610.448C991.771 612.752 990.491 614.715 988.955 616.336C987.419 617.958 985.67 618.768 983.707 618.768ZM943.01 618.384C942.157 618.384 941.431 618.214 940.834 617.872C940.237 617.531 939.938 616.891 939.938 615.952C939.938 614.758 940.237 613.392 940.834 611.856C941.431 610.32 942.114 608.827 942.882 607.376C943.65 605.84 944.333 604.603 944.93 603.664C941.943 606.822 938.829 609.808 935.586 612.624C933.965 613.99 932.173 615.27 930.21 616.464C928.247 617.659 926.157 618.256 923.938 618.256C923.085 618.256 922.487 618 922.146 617.488C921.805 616.891 921.634 616.208 921.634 615.44C921.634 615.014 921.677 614.715 921.762 614.544C922.189 611.216 923.255 607.76 924.962 604.176C926.669 600.592 928.759 597.222 931.234 594.064C933.709 590.907 936.226 588.347 938.786 586.384C941.687 584.166 944.887 583.056 948.386 583.056H963.106C963.533 583.056 963.746 583.227 963.746 583.568C963.746 584.251 963.362 584.592 962.594 584.592C961.741 584.592 960.887 585.147 960.034 586.256C959.181 587.28 958.541 588.134 958.114 588.816C957.517 589.755 956.578 591.334 955.298 593.552C954.018 595.771 952.695 598.203 951.33 600.848C950.05 603.408 948.941 605.798 948.002 608.016C947.063 610.235 946.594 611.856 946.594 612.88C946.594 614.075 947.191 614.672 948.386 614.672C949.666 614.672 951.117 614.075 952.738 612.88C954.359 611.686 955.981 610.235 957.602 608.528C959.309 606.736 960.845 604.987 962.21 603.28C963.661 601.488 964.813 600.08 965.666 599.056C966.178 599.568 966.135 600.294 965.538 601.232C965.026 602.086 964.557 602.768 964.13 603.28C962.423 605.499 960.461 607.803 958.242 610.192C956.023 612.496 953.591 614.459 950.946 616.08C948.386 617.616 945.741 618.384 943.01 618.384ZM929.186 613.904C930.21 613.904 931.618 613.179 933.41 611.728C935.287 610.192 937.293 608.315 939.426 606.096C941.559 603.792 943.565 601.403 945.442 598.928C947.319 596.368 948.855 594.064 950.05 592.016C951.33 589.883 951.97 588.262 951.97 587.152C951.97 586.214 951.671 585.574 951.074 585.232C950.562 584.891 949.879 584.72 949.026 584.72C947.661 584.72 946.167 585.232 944.546 586.256C943.01 587.195 941.773 588.134 940.834 589.072C939.81 590.011 938.573 591.504 937.122 593.552C935.757 595.515 934.391 597.691 933.026 600.08C931.661 602.47 930.509 604.774 929.57 606.992C928.631 609.211 928.162 611.003 928.162 612.368C928.162 613.392 928.503 613.904 929.186 613.904ZM829.848 619.28C827.203 619.28 824.685 618.555 822.296 617.104C819.907 615.568 818.115 613.264 816.92 610.192C816.493 609.083 816.195 607.931 816.024 606.736C815.853 605.456 815.768 604.219 815.768 603.024C815.768 601.83 815.981 601.232 816.408 601.232C816.92 601.232 817.176 601.574 817.176 602.256C817.176 606.267 818.157 609.296 820.12 611.344C822.168 613.392 824.685 614.416 827.672 614.416C830.659 614.416 833.517 613.563 836.248 611.856C839.064 610.15 841.667 607.974 844.056 605.328C847.981 601.062 851.309 596.752 854.04 592.4C856.771 587.963 859.245 583.44 861.464 578.832C863.768 574.139 866.072 569.275 868.376 564.24C869.827 561.168 871.619 558.48 873.752 556.176C875.971 553.872 878.616 552.294 881.688 551.44L881.816 551.312H874.776C871.789 551.312 868.632 551.44 865.304 551.696C861.976 551.952 858.947 552.507 856.216 553.36C853.571 554.214 851.651 555.494 850.456 557.2C849.688 558.31 849.304 559.59 849.304 561.04C849.304 562.491 849.688 563.899 850.456 565.264C851.224 566.63 852.205 567.611 853.4 568.208C853.571 568.379 853.656 568.507 853.656 568.592C853.656 568.763 853.443 568.976 853.016 569.232C852.675 569.403 852.291 569.446 851.864 569.36C851.181 568.934 850.328 568.251 849.304 567.312C848.28 566.288 847.341 565.222 846.488 564.112C845.72 563.003 845.208 562.064 844.952 561.296C844.611 560.272 844.44 559.248 844.44 558.224C844.44 556.176 845.165 554.512 846.616 553.232C848.152 551.952 850.115 550.971 852.504 550.288C854.893 549.606 857.453 549.136 860.184 548.88C863 548.539 865.688 548.368 868.248 548.368C870.893 548.283 873.155 548.24 875.032 548.24H888.856C889.027 548.24 889.112 548.283 889.112 548.368C889.112 548.624 888.813 549.008 888.216 549.52C887.704 549.947 887.363 550.16 887.192 550.16C885.059 550.587 883.48 551.739 882.456 553.616C881.432 555.408 880.963 558.31 881.048 562.32C881.048 562.32 881.048 563.259 881.048 565.136C881.133 567.014 881.219 569.446 881.304 572.432C881.389 575.419 881.475 578.619 881.56 582.032C881.645 585.446 881.731 588.731 881.816 591.888C881.901 595.046 881.987 597.691 882.072 599.824V600.592L926.488 553.744C929.304 550.758 932.077 548.24 934.808 546.192C937.624 544.059 940.525 543.12 943.512 543.376C943.597 543.376 943.64 543.419 943.64 543.504C943.725 543.504 943.768 543.504 943.768 543.504C943.768 543.76 943.597 544.059 943.256 544.4C942.915 544.742 942.531 544.955 942.104 545.04C939.885 544.955 937.88 545.808 936.088 547.6C934.296 549.392 932.632 551.526 931.096 554C930.328 555.28 929.176 557.328 927.64 560.144C926.104 562.875 924.355 566.118 922.392 569.872C920.515 573.627 918.595 577.595 916.632 581.776C914.669 585.958 912.835 590.054 911.128 594.064C909.507 598.075 908.184 601.744 907.16 605.072C906.136 608.315 905.624 610.96 905.624 613.008C905.624 615.398 906.435 616.592 908.056 616.592C908.739 616.592 909.464 616.422 910.232 616.08C911.341 615.654 912.579 615.014 913.944 614.16C915.309 613.307 916.547 612.326 917.656 611.216C919.875 609.083 921.837 606.907 923.544 604.688C925.251 602.384 926.275 601.062 926.616 600.72C926.872 600.379 927.085 600.208 927.256 600.208C927.597 600.208 927.768 600.464 927.768 600.976C927.768 601.488 927.597 601.958 927.256 602.384C926.573 603.238 925.421 604.731 923.8 606.864C922.179 608.912 920.259 611.003 918.04 613.136C915.907 615.27 913.603 616.891 911.128 618C910.36 618.342 909.549 618.598 908.696 618.768C907.843 619.024 906.989 619.152 906.136 619.152C904.259 619.152 902.552 618.598 901.016 617.488C899.565 616.294 898.84 614.331 898.84 611.6C898.84 608.955 899.437 605.968 900.632 602.64C901.912 599.227 903.32 595.942 904.856 592.784C906.477 589.542 907.8 586.811 908.824 584.592C909.933 582.288 911.341 579.344 913.048 575.76C914.755 572.176 916.717 568.55 918.936 564.88L882.072 603.792C881.987 604.475 881.688 605.158 881.176 605.84C880.664 606.438 879.853 606.95 878.744 607.376C878.147 607.632 877.336 608.315 876.312 609.424C875.288 610.534 874.605 611.302 874.264 611.728C874.264 611.814 874.136 611.856 873.88 611.856C873.624 611.856 873.368 611.771 873.112 611.6C872.856 611.43 872.771 611.302 872.856 611.216C875.075 608.4 876.227 604.518 876.312 599.568L876.44 596.496C876.611 592.912 876.739 589.158 876.824 585.232C876.909 581.222 876.952 577.51 876.952 574.096C877.037 570.598 877.08 567.782 877.08 565.648C877.08 563.43 877.08 562.32 877.08 562.32C877.08 560.272 877.379 558.48 877.976 556.944C878.573 555.408 879.299 554.086 880.152 552.976C878.701 554.086 877.293 555.408 875.928 556.944C874.563 558.48 873.411 560.187 872.472 562.064C871.192 564.71 869.741 568.123 868.12 572.304C866.499 576.486 864.621 580.923 862.488 585.616C860.44 590.31 858.136 594.918 855.576 599.44C853.101 603.878 850.328 607.718 847.256 610.96C845.123 613.264 842.392 615.227 839.064 616.848C835.821 618.47 832.749 619.28 829.848 619.28Z" stroke="#989898" stroke-width="3" stroke-linecap="round"/>
</svg>
