<svg width="44" height="10" viewBox="0 0 44 10" fill="none" xmlns="http://www.w3.org/2000/svg">
<path d="M41.4608 7.578H41.3108V7.728V9V9.15H41.4608H42.7328H42.8828V9V7.728V7.578H42.7328H41.4608Z" stroke="black" stroke-width="0.3"/>
<path d="M37.5573 9.04779L38.4096 6.51196L39.2406 9.04674L39.2745 9.15001H39.3832H40.7752H40.9875L40.9165 8.94986L39.4103 4.70394L40.8446 0.650037L40.9153 0.450006H40.7032H39.4552H39.3474L39.313 0.552195L38.5329 2.87192L37.7737 0.55333L37.7399 0.450006H37.6312H36.2392H36.027L36.0977 0.650037L37.532 4.70394L36.0258 8.94986L35.9548 9.15001H36.1672H37.4152H37.523L37.5573 9.04779Z" stroke="black" stroke-width="0.3"/>
<path d="M32.7073 0.450006H32.5798L32.5593 0.575895L31.1913 8.9759L31.1629 9.15001H31.3393H32.5633H32.693L32.7117 9.02168L32.933 7.50601H34.1768L34.3948 9.02137L34.4133 9.15001H34.5433H35.8633H36.0397L36.0114 8.9759L34.6434 0.575895L34.6229 0.450006H34.4953H32.7073ZM33.1316 6.06601L33.5487 3.05897L33.9746 6.06601H33.1316Z" stroke="black" stroke-width="0.3"/>
<path d="M25.2303 0.450006H25.0803V0.600006V9.00001V9.15001H25.2303H26.3823H26.5323V9.00001V4.47977L27.218 9.02239L27.2372 9.15001H27.3663H28.4703H28.5993L28.6186 9.02239L29.3043 4.47977V9.00001V9.15001H29.4543H30.7023H30.8523V9.00001V0.600006V0.450006H30.7023H28.8183H28.6878L28.6697 0.57925L27.9663 5.61389L27.2628 0.57925L27.2448 0.450006H27.1143H25.2303Z" stroke="black" stroke-width="0.3"/>
<path d="M16.8514 0.450006H16.7014V0.600006V9.00001V9.15001H16.8514H18.0034H18.1534V9.00001V4.47977L18.8391 9.02239L18.8583 9.15001H18.9874H20.0914H20.2204L20.2397 9.02239L20.9254 4.47977V9.00001V9.15001H21.0754H22.3234H22.4734V9.00001V0.600006V0.450006H22.3234H20.4394H20.3089L20.2908 0.57925L19.5874 5.61389L18.8839 0.57925L18.8659 0.450006H18.7354H16.8514Z" stroke="black" stroke-width="0.3"/>
<path d="M14.5897 2.02201H14.8102L14.3761 3.26245L14.3062 3.46201H14.5177H15.1297H15.2253L15.2656 3.37533L15.9976 1.80333L16.0117 1.77322V1.74001V0.600006V0.450006H15.8617H14.5897H14.4397V0.600006V1.87201V2.02201H14.5897Z" stroke="black" stroke-width="0.3"/>
<path d="M12.2811 0.450006H12.1311V0.600006V9.00001V9.15001H12.2811H13.6011H13.7511V9.00001V0.600006V0.450006H13.6011H12.2811Z" stroke="black" stroke-width="0.3"/>
<path d="M7.79766 4.10401H7.79737L7.79796 4.1134L7.96596 6.7894L7.97478 6.93001H8.11566H9.09966H9.24054L9.24937 6.7894L9.41737 4.1134L9.41766 4.11342V4.10401V0.600006V0.450006H9.26766H7.94766H7.79766V0.600006V4.10401ZM7.97166 7.57801H7.82166V7.72801V9.00001V9.15001H7.97166H9.24366H9.39366V9.00001V7.72801V7.57801H9.24366H7.97166Z" stroke="black" stroke-width="0.3"/>
<path d="M5.53107 0.450006H5.38107V0.600006V9.00001V9.15001H5.53107H6.85107H7.00107V9.00001V0.600006V0.450006H6.85107H5.53107Z" stroke="black" stroke-width="0.3"/>
<path d="M0.492004 0.450006H0.342004V0.600006V9.00001V9.15001H0.492004H1.812H1.962V9.00001V5.37001H3.078V9.00001V9.15001H3.228H4.548H4.698V9.00001V0.600006V0.450006H4.548H3.228H3.078V0.600006V3.87001H1.962V0.600006V0.450006H1.812H0.492004Z" stroke="black" stroke-width="0.3"/>
</svg>
