<svg width="591" height="94" viewBox="0 0 591 94" fill="none" xmlns="http://www.w3.org/2000/svg">
<path d="M522.982 90V91H523.982H543.062H544.062V90V87.72V86.9178L543.279 86.7438L541.125 86.2652C539.964 85.9908 539.501 85.5154 539.331 85.0038C539.154 84.4741 539.246 83.6919 540.043 82.5311L549.744 68.7507L558.661 82.6208L558.677 82.6466L558.695 82.6714C559.466 83.7226 559.511 84.4269 559.299 84.9354L559.285 84.9691L559.273 85.0038C559.104 85.5115 558.605 86.031 557.348 86.3869L555.586 86.7394L554.782 86.9002V87.72V90V91H555.782H588.062H589.062V90V87.72V86.9392L588.304 86.7499L585.913 86.152C582.864 85.3323 580.515 83.6752 578.817 81.1693L563.481 57.2878L575.898 40.9245L575.906 40.9151L575.913 40.9055C576.919 39.5119 577.851 38.518 578.702 37.88L578.722 37.8646L578.742 37.8482C579.545 37.1793 580.703 36.6331 582.28 36.256L585.146 35.659L585.942 35.4931V34.68V32.4V31.4H584.942H566.462H565.462V32.4V34.68V35.4438L566.199 35.6448L568.839 36.3648L568.867 36.3725L568.896 36.3786C569.577 36.5219 569.966 36.7146 570.168 36.8849C570.331 37.0226 570.382 37.1466 570.382 37.32V37.3616L570.385 37.403C570.437 38.0278 570.183 38.9108 569.364 40.105L560.378 52.5966L551.944 39.7803C551.218 38.6154 551.101 37.8491 551.22 37.3697C551.391 36.8901 551.873 36.413 553.119 36.1362L553.139 36.1316L553.16 36.1262L554.96 35.6462L555.702 35.4483V34.68V32.4V31.4H554.702H524.702H523.702V32.4V34.68V35.472L524.473 35.6534L526.513 36.1334C527.779 36.4314 528.645 36.8563 529.198 37.3474L529.217 37.3647L529.237 37.3809C529.929 37.9347 530.661 38.7635 531.423 39.9048L546.537 63.8049L533.851 81.4945C533.851 81.495 533.851 81.4954 533.85 81.4959C532.861 82.8657 531.867 83.8451 530.881 84.4788L530.867 84.4881L530.853 84.4978C529.953 85.1208 528.686 85.6415 527.003 86.0242C527.002 86.0244 527.001 86.0247 527 86.0249L523.765 86.7438L522.982 86.9178V87.72V90Z" fill="black" stroke="black" stroke-width="2"/>
<path d="M468.415 88.6034L468.426 88.6123L468.437 88.6209C471.834 91.3388 475.941 92.68 480.701 92.68C484.835 92.68 488.289 91.812 490.982 89.9879C493.143 88.5242 495.319 86.687 497.512 84.4837C498.298 86.6432 499.559 88.4649 501.298 89.9257L501.314 89.9395L501.332 89.9526C503.634 91.7237 506.629 92.56 510.221 92.56C513.351 92.56 515.945 92.0286 517.915 90.8697C519.807 89.8349 521.502 88.341 523.009 86.4163L523.529 85.7518L522.961 85.1273L521.761 83.8073L521.464 83.48H521.021H518.261C516.788 83.48 515.863 83.0961 515.295 82.4999C514.718 81.8949 514.341 80.8974 514.341 79.32V52.56C514.341 44.6655 512.431 38.7318 508.376 35.0222C504.37 31.3567 498.652 29.6 491.381 29.6C486.974 29.6 482.837 30.1714 478.976 31.3216L478.976 31.3216L478.97 31.3233C475.166 32.481 472.053 34.2345 469.674 36.6129C467.239 39.0477 466.021 42.0653 466.021 45.6C466.021 47.8347 466.746 49.739 468.234 51.2271L468.256 51.2492L468.28 51.2698C469.842 52.648 471.765 53.32 473.981 53.32C476.389 53.32 478.449 52.5069 480.088 50.8671L480.098 50.8576L480.107 50.8477C481.758 49.1057 482.636 46.5084 482.893 43.2315L483.236 41.7449L483.248 41.6931L483.254 41.6403C483.565 39.0727 484.209 37.4493 485.033 36.5613C485.94 35.5902 487.142 35.08 488.741 35.08H489.101C491.798 35.08 493.606 36.0069 494.744 37.7473C495.929 39.5599 496.621 43.0523 496.621 48.48V56.1649C495.132 56.4338 493.614 56.7027 492.068 56.9717C490.301 57.2131 488.721 57.4959 487.333 57.8216C479.268 59.3562 473.194 61.8008 469.244 65.2464C465.41 68.581 463.381 72.3564 463.381 76.56C463.381 81.6713 465.027 85.7362 468.415 88.6034ZM491.774 82.0256C490.472 82.6766 489.105 83 487.661 83C485.593 83 483.941 82.3359 482.627 81.0316C481.428 79.6861 480.741 77.5756 480.741 74.52C480.741 71.0407 481.718 68.3931 483.575 66.4604C485.582 64.4566 488.202 63.0589 491.483 62.2951C493.223 61.9085 494.936 61.5746 496.621 61.2932V78.8287C494.658 80.3328 493.046 81.3896 491.774 82.0256Z" fill="black" stroke="black" stroke-width="2"/>
<path d="M454.494 20.04C454.494 18.44 454.774 17.16 455.334 16.2C455.894 15.16 456.934 14.4 458.454 13.92L454.494 20.04ZM454.494 20.04C454.414 24.68 454.374 29.32 454.374 33.96M454.494 20.04L454.374 33.96M454.374 33.96V47.88M454.374 33.96V47.88M454.374 47.88V52.8M454.374 47.88V52.8M454.374 52.8V66.72M454.374 52.8V66.72M454.374 66.72C454.374 71.36 454.414 75.96 454.494 80.52L454.374 66.72ZM369.254 90V91H370.254H387.054H388.054V90V87.36V86.6505L387.385 86.4161L384.985 85.5761L384.947 85.563L384.909 85.5529C383.564 85.1991 382.875 84.6189 382.562 83.9409C382.167 83.0838 381.934 81.8453 381.934 80.16V50.4V50.3912L381.934 50.3825L381.553 28.6736L405.321 90.3595L405.568 91H406.254H412.974H413.676L413.915 90.3401L436.411 28.1449L436.214 54.4725V54.48V80.52C436.214 82.0517 436.021 83.1848 435.691 83.9754L435.682 83.9966L435.675 84.0183C435.51 84.472 434.95 85.0469 433.529 85.574L430.911 86.4071L430.214 86.6288V87.36V90V91H431.214H460.374H461.374V90V87.36V86.6505L460.705 86.4161L458.313 85.579C456.889 85.0531 456.239 84.4615 456.005 83.9462C455.692 83.2588 455.494 82.1475 455.494 80.52V80.5112L455.494 80.5024C455.414 75.9484 455.374 71.3542 455.374 66.72V66.6928V66.6656V66.6384V66.6112V66.5841V66.5569V66.5297V66.5025V66.4753V66.4481V66.4209V66.3937V66.3666V66.3394V66.3122V66.285V66.2578V66.2306V66.2034V66.1762V66.1491V66.1219V66.0947V66.0675V66.0403V66.0131V65.9859V65.9587V65.9316V65.9044V65.8772V65.85V65.8228V65.7956V65.7684V65.7412V65.7141V65.6869V65.6597V65.6325V65.6053V65.5781V65.5509V65.5237V65.4966V65.4694V65.4422V65.415V65.3878V65.3606V65.3334V65.3062V65.2791V65.2519V65.2247V65.1975V65.1703V65.1431V65.1159V65.0887V65.0616V65.0344V65.0072V64.98V64.9528V64.9256V64.8984V64.8712V64.8441V64.8169V64.7897V64.7625V64.7353V64.7081V64.6809V64.6537V64.6266V64.5994V64.5722V64.545V64.5178V64.4906V64.4634V64.4362V64.4091V64.3819V64.3547V64.3275V64.3003V64.2731V64.2459V64.2187V64.1916V64.1644V64.1372V64.11V64.0828V64.0556V64.0284V64.0012V63.9741V63.9469V63.9197V63.8925V63.8653V63.8381V63.8109V63.7837V63.7566V63.7294V63.7022V63.675V63.6478V63.6206V63.5934V63.5662V63.5391V63.5119V63.4847V63.4575V63.4303V63.4031V63.3759V63.3487V63.3216V63.2944V63.2672V63.24V63.2128V63.1856V63.1584V63.1312V63.1041V63.0769V63.0497V63.0225V62.9953V62.9681V62.9409V62.9137V62.8866V62.8594V62.8322V62.805V62.7778V62.7506V62.7234V62.6962V62.6691V62.6419V62.6147V62.5875V62.5603V62.5331V62.5059V62.4787V62.4516V62.4244V62.3972V62.37V62.3428V62.3156V62.2884V62.2612V62.2341V62.2069V62.1797V62.1525V62.1253V62.0981V62.0709V62.0437V62.0166V61.9894V61.9622V61.935V61.9078V61.8806V61.8534V61.8262V61.7991V61.7719V61.7447V61.7175V61.6903V61.6631V61.6359V61.6087V61.5816V61.5544V61.5272V61.5V61.4728V61.4456V61.4184V61.3912V61.3641V61.3369V61.3097V61.2825V61.2553V61.2281V61.2009V61.1737V61.1466V61.1194V61.0922V61.065V61.0378V61.0106V60.9834V60.9562V60.9291V60.9019V60.8747V60.8475V60.8203V60.7931V60.7659V60.7387V60.7116V60.6844V60.6572V60.63V60.6028V60.5756V60.5484V60.5212V60.4941V60.4669V60.4397V60.4125V60.3853V60.3581V60.3309V60.3037V60.2766V60.2494V60.2222V60.195V60.1678V60.1406V60.1134V60.0862V60.0591V60.0319V60.0047V59.9775V59.9503V59.9231V59.8959V59.8687V59.8416V59.8144V59.7872V59.76V59.7328V59.7056V59.6784V59.6512V59.6241V59.5969V59.5697V59.5425V59.5153V59.4881V59.4609V59.4337V59.4066V59.3794V59.3522V59.325V59.2978V59.2706V59.2434V59.2162V59.1891V59.1619V59.1347V59.1075V59.0803V59.0531V59.0259V58.9987V58.9716V58.9444V58.9172V58.89V58.8628V58.8356V58.8084V58.7812V58.7541V58.7269V58.6997V58.6725V58.6453V58.6181V58.5909V58.5637V58.5366V58.5094V58.4822V58.455V58.4278V58.4006V58.3734V58.3462V58.3191V58.2919V58.2647V58.2375V58.2103V58.1831V58.1559V58.1287V58.1016V58.0744V58.0472V58.02V57.9928V57.9656V57.9384V57.9112V57.8841V57.8569V57.8297V57.8025V57.7753V57.7481V57.7209V57.6937V57.6666V57.6394V57.6122V57.585V57.5578V57.5306V57.5034V57.4762V57.4491V57.4219V57.3947V57.3675V57.3403V57.3131V57.2859V57.2587V57.2316V57.2044V57.1772V57.15V57.1228V57.0956V57.0684V57.0412V57.0141V56.9869V56.9597V56.9325V56.9053V56.8781V56.8509V56.8237V56.7966V56.7694V56.7422V56.715V56.6878V56.6606V56.6334V56.6062V56.5791V56.5519V56.5247V56.4975V56.4703V56.4431V56.4159V56.3887V56.3616V56.3344V56.3072V56.28V56.2528V56.2256V56.1984V56.1712V56.1441V56.1169V56.0897V56.0625V56.0353V56.0081V55.9809V55.9537V55.9266V55.8994V55.8722V55.845V55.8178V55.7906V55.7634V55.7362V55.7091V55.6819V55.6547V55.6275V55.6003V55.5731V55.5459V55.5187V55.4916V55.4644V55.4372V55.41V55.3828V55.3556V55.3284V55.3012V55.2741V55.2469V55.2197V55.1925V55.1653V55.1381V55.1109V55.0837V55.0566V55.0294V55.0022V54.975V54.9478V54.9206V54.8934V54.8662V54.8391V54.8119V54.7847V54.7575V54.7303V54.7031V54.6759V54.6487V54.6216V54.5944V54.5672V54.54V54.5128V54.4856V54.4584V54.4312V54.4041V54.3769V54.3497V54.3225V54.2953V54.2681V54.2409V54.2137V54.1866V54.1594V54.1322V54.105V54.0778V54.0506V54.0234V53.9962V53.9691V53.9419V53.9147V53.8875V53.8603V53.8331V53.8059V53.7787V53.7516V53.7244V53.6972V53.67V53.6428V53.6156V53.5884V53.5612V53.5341V53.5069V53.4797V53.4525V53.4253V53.3981V53.3709V53.3437V53.3166V53.2894V53.2622V53.235V53.2078V53.1806V53.1534V53.1262V53.0991V53.0719V53.0447V53.0175V52.9903V52.9631V52.9359V52.9087V52.8816V52.8544V52.8272V52.8V47.88V47.8523V47.8247V47.797V47.7694V47.7417V47.7141V47.6864V47.6588V47.6312V47.6035V47.5759V47.5482V47.5206V47.493V47.4654V47.4377V47.4101V47.3825V47.3549V47.3272V47.2996V47.272V47.2444V47.2168V47.1892V47.1615V47.1339V47.1063V47.0787V47.0511V47.0235V46.9959V46.9683V46.9407V46.9131V46.8856V46.858V46.8304V46.8028V46.7752V46.7476V46.72V46.6925V46.6649V46.6373V46.6097V46.5822V46.5546V46.527V46.4995V46.4719V46.4443V46.4168V46.3892V46.3617V46.3341V46.3066V46.279V46.2515V46.2239V46.1964V46.1688V46.1413V46.1137V46.0862V46.0587V46.0311V46.0036V45.9761V45.9485V45.921V45.8935V45.866V45.8384V45.8109V45.7834V45.7559V45.7284V45.7009V45.6733V45.6458V45.6183V45.5908V45.5633V45.5358V45.5083V45.4808V45.4533V45.4258V45.3983V45.3709V45.3434V45.3159V45.2884V45.2609V45.2334V45.2059V45.1785V45.151V45.1235V45.096V45.0686V45.0411V45.0136V44.9862V44.9587V44.9313V44.9038V44.8763V44.8489V44.8214V44.794V44.7665V44.7391V44.7116V44.6842V44.6567V44.6293V44.6019V44.5744V44.547V44.5196V44.4921V44.4647V44.4373V44.4098V44.3824V44.355V44.3276V44.3001V44.2727V44.2453V44.2179V44.1905V44.1631V44.1357V44.1083V44.0809V44.0535V44.0261V43.9987V43.9713V43.9439V43.9165V43.8891V43.8617V43.8343V43.8069V43.7795V43.7522V43.7248V43.6974V43.67V43.6426V43.6153V43.5879V43.5605V43.5332V43.5058V43.4784V43.4511V43.4237V43.3963V43.369V43.3416V43.3143V43.2869V43.2596V43.2322V43.2049V43.1775V43.1502V43.1229V43.0955V43.0682V43.0408V43.0135V42.9862V42.9589V42.9315V42.9042V42.8769V42.8496V42.8222V42.7949V42.7676V42.7403V42.713V42.6857V42.6584V42.631V42.6037V42.5764V42.5491V42.5218V42.4945V42.4672V42.4399V42.4127V42.3854V42.3581V42.3308V42.3035V42.2762V42.2489V42.2217V42.1944V42.1671V42.1398V42.1126V42.0853V42.058V42.0307V42.0035V41.9762V41.949V41.9217V41.8944V41.8672V41.8399V41.8127V41.7854V41.7582V41.7309V41.7037V41.6764V41.6492V41.622V41.5947V41.5675V41.5402V41.513V41.4858V41.4586V41.4313V41.4041V41.3769V41.3497V41.3224V41.2952V41.268V41.2408V41.2136V41.1864V41.1592V41.132V41.1048V41.0775V41.0503V41.0231V40.996V40.9688V40.9416V40.9144V40.8872V40.86V40.8328V40.8056V40.7784V40.7513V40.7241V40.6969V40.6697V40.6425V40.6154V40.5882V40.561V40.5339V40.5067V40.4795V40.4524V40.4252V40.3981V40.3709V40.3438V40.3166V40.2895V40.2623V40.2352V40.208V40.1809V40.1537V40.1266V40.0995V40.0723V40.0452V40.0181V39.9909V39.9638V39.9367V39.9095V39.8824V39.8553V39.8282V39.8011V39.774V39.7468V39.7197V39.6926V39.6655V39.6384V39.6113V39.5842V39.5571V39.53V39.5029V39.4758V39.4487V39.4216V39.3945V39.3674V39.3404V39.3133V39.2862V39.2591V39.232V39.205V39.1779V39.1508V39.1237V39.0967V39.0696V39.0425V39.0155V38.9884V38.9614V38.9343V38.9072V38.8802V38.8531V38.8261V38.799V38.772V38.7449V38.7179V38.6908V38.6638V38.6368V38.6097V38.5827V38.5557V38.5286V38.5016V38.4746V38.4476V38.4205V38.3935V38.3665V38.3395V38.3125V38.2854V38.2584V38.2314V38.2044V38.1774V38.1504V38.1234V38.0964V38.0694V38.0424V38.0154V37.9884V37.9614V37.9344V37.9074V37.8804V37.8535V37.8265V37.7995V37.7725V37.7455V37.7186V37.6916V37.6646V37.6376V37.6107V37.5837V37.5567V37.5298V37.5028V37.4759V37.4489V37.4219V37.395V37.368V37.3411V37.3141V37.2872V37.2602V37.2333V37.2064V37.1794V37.1525V37.1256V37.0986V37.0717V37.0448V37.0178V36.9909V36.964V36.9371V36.9101V36.8832V36.8563V36.8294V36.8025V36.7756V36.7486V36.7217V36.6948V36.6679V36.641V36.6141V36.5872V36.5603V36.5334V36.5065V36.4796V36.4528V36.4259V36.399V36.3721V36.3452V36.3183V36.2915V36.2646V36.2377V36.2108V36.184V36.1571V36.1302V36.1033V36.0765V36.0496V36.0228V35.9959V35.969V35.9422V35.9153V35.8885V35.8616V35.8348V35.8079V35.7811V35.7543V35.7274V35.7006V35.6737V35.6469V35.6201V35.5932V35.5664V35.5396V35.5128V35.4859V35.4591V35.4323V35.4055V35.3787V35.3518V35.325V35.2982V35.2714V35.2446V35.2178V35.191V35.1642V35.1374V35.1106V35.0838V35.057V35.0302V35.0034V34.9766V34.9498V34.9231V34.8963V34.8695V34.8427V34.8159V34.7892V34.7624V34.7356V34.7088V34.6821V34.6553V34.6285V34.6018V34.575V34.5482V34.5215V34.4947V34.468V34.4412V34.4145V34.3877V34.361V34.3342V34.3075V34.2807V34.254V34.2273V34.2005V34.1738V34.1471V34.1203V34.0936V34.0669V34.0402V34.0134V33.9867V33.96C455.374 29.3257 455.414 24.6915 455.494 20.0572L455.494 20.0486V20.04C455.494 18.5438 455.758 17.4581 456.198 16.7039L456.207 16.6891L456.215 16.6741C456.613 15.9341 457.394 15.3037 458.754 14.8741C458.754 14.8739 458.755 14.8737 458.756 14.8736L460.673 14.2745L461.374 14.0552V13.32V10.68V9.67999H460.374H436.974H436.273L436.034 10.3396L415.706 66.4999L394.108 10.3211L393.861 9.67999H393.174H370.254H369.254V10.68V13.32V14.0025L369.89 14.2512L372.65 15.3312L372.667 15.3378L372.684 15.3438C374.153 15.8579 374.831 16.5102 375.081 17.159L375.086 17.1719L375.091 17.1846C375.421 17.9752 375.614 19.1083 375.614 20.64V80.04C375.614 81.6955 375.351 82.9636 374.887 83.8988C374.487 84.6322 373.709 85.2572 372.36 85.6843C372.358 85.685 372.355 85.6857 372.353 85.6864L369.967 86.4022L369.254 86.616V87.36V90Z" fill="black" stroke="black" stroke-width="2"/>
<path d="M238.825 90V91H239.825H267.305H268.305V90V87.6V86.8518L267.587 86.6406L265.547 86.0406L265.527 86.0348L265.507 86.0299C264.576 85.7971 263.961 85.3743 263.564 84.8065C263.157 84.2245 262.905 83.3856 262.905 82.2V43.7933C266.907 40.5548 270.527 39.04 273.785 39.04C276.544 39.04 278.232 39.696 279.155 40.7416C280.106 41.8199 280.705 43.8273 280.705 47.04V82.08C280.705 83.2435 280.485 84.0884 280.127 84.6855L280.119 84.6998L280.111 84.7144C279.894 85.1035 279.351 85.5536 278.178 85.9219L275.67 86.6385L274.945 86.8457V87.6V90V91H275.945H303.065H304.065V90V87.6V86.8518L303.347 86.6406L301.307 86.0406L301.287 86.0348L301.267 86.0299C300.149 85.7504 299.548 85.3446 299.25 84.9332C298.951 84.3072 298.74 83.404 298.665 82.1701V51.72C298.665 48.8072 298.459 46.1825 298.041 43.8518C300.132 42.2344 302.024 41.0468 303.721 40.2691C305.508 39.4504 307.405 39.04 309.425 39.04C312.109 39.04 313.771 39.6585 314.695 40.6439L314.717 40.6675L314.741 40.6895C315.695 41.5845 316.345 43.5215 316.345 46.92V82.08C316.345 83.2231 316.104 84.0662 315.7 84.68C315.305 85.2785 314.702 85.7425 313.812 86.0436L311.677 86.6365L310.945 86.8399V87.6V90V91H311.945H338.945H339.945V90V87.6V86.8291L339.199 86.6329L336.93 86.0357C335.992 85.7658 335.367 85.322 334.964 84.7465C334.553 84.1599 334.305 83.338 334.305 82.2V47.52C334.305 41.5499 332.917 36.9582 329.932 33.9729C326.958 30.9992 322.579 29.6 316.985 29.6C313.219 29.6 309.435 30.5208 305.641 32.3341C302.282 33.8687 299.187 35.9505 296.358 38.5725C295.144 35.832 293.503 33.6843 291.406 32.1863C288.935 30.4215 285.583 29.6 281.465 29.6C277.687 29.6 274.006 30.5673 270.433 32.4782C267.511 34.0412 264.812 35.8603 262.339 37.9355L261.699 31.8161L261.66 31.439L261.38 31.1829L259.94 29.8629L259.496 29.4552L258.928 29.6585L239.488 36.6185L238.825 36.8559V37.56V39.72V40.5099L239.593 40.6928L242.113 41.2928L242.116 41.2934C243.349 41.5837 243.883 42.0325 244.09 42.4472L244.1 42.4667L244.111 42.4857C244.391 42.99 244.585 43.8317 244.585 45.12V45.1361L244.585 45.1522C244.665 47.6249 244.705 49.7737 244.705 51.6V51.6108V51.6216V51.6324V51.6432V51.654V51.6649V51.6757V51.6865V51.6974V51.7083V51.7192V51.73V51.7409V51.7518V51.7628V51.7737V51.7846V51.7956V51.8065V51.8175V51.8284V51.8394V51.8504V51.8614V51.8724V51.8834V51.8944V51.9055V51.9165V51.9276V51.9386V51.9497V51.9608V51.9719V51.983V51.9941V52.0052V52.0163V52.0274V52.0386V52.0497V52.0609V52.0721V52.0832V52.0944V52.1056V52.1168V52.1281V52.1393V52.1505V52.1618V52.173V52.1843V52.1955V52.2068V52.2181V52.2294V52.2407V52.252V52.2634V52.2747V52.286V52.2974V52.3088V52.3201V52.3315V52.3429V52.3543V52.3657V52.3771V52.3885V52.4V52.4114V52.4229V52.4343V52.4458V52.4573V52.4688V52.4803V52.4918V52.5033V52.5148V52.5264V52.5379V52.5495V52.5611V52.5726V52.5842V52.5958V52.6074V52.619V52.6306V52.6423V52.6539V52.6655V52.6772V52.6889V52.7005V52.7122V52.7239V52.7356V52.7473V52.759V52.7708V52.7825V52.7943V52.806V52.8178V52.8295V52.8413V52.8531V52.8649V52.8767V52.8886V52.9004V52.9122V52.9241V52.9359V52.9478V52.9597V52.9716V52.9835V52.9954V53.0073V53.0192V53.0311V53.0431V53.055V53.067V53.0789V53.0909V53.1029V53.1149V53.1269V53.1389V53.1509V53.163V53.175V53.187V53.1991V53.2112V53.2232V53.2353V53.2474V53.2595V53.2716V53.2838V53.2959V53.308V53.3202V53.3323V53.3445V53.3567V53.3689V53.3811V53.3933V53.4055V53.4177V53.43V53.4422V53.4544V53.4667V53.479V53.4913V53.5035V53.5158V53.5281V53.5405V53.5528V53.5651V53.5775V53.5898V53.6022V53.6145V53.6269V53.6393V53.6517V53.6641V53.6765V53.6889V53.7014V53.7138V53.7263V53.7387V53.7512V53.7637V53.7762V53.7887V53.8012V53.8137V53.8262V53.8388V53.8513V53.8639V53.8764V53.889V53.9016V53.9142V53.9268V53.9394V53.952V53.9646V53.9772V53.9899V54.0025V54.0152V54.0279V54.0406V54.0532V54.0659V54.0787V54.0914V54.1041V54.1168V54.1296V54.1423V54.1551V54.1679V54.1806V54.1934V54.2062V54.219V54.2319V54.2447V54.2575V54.2704V54.2832V54.2961V54.309V54.3218V54.3347V54.3476V54.3606V54.3735V54.3864V54.3993V54.4123V54.4252V54.4382V54.4512V54.4642V54.4772V54.4902V54.5032V54.5162V54.5292V54.5423V54.5553V54.5684V54.5814V54.5945V54.6076V54.6207V54.6338V54.6469V54.66V54.6731V54.6863V54.6994V54.7126V54.7257V54.7389V54.7521V54.7653V54.7785V54.7917V54.8049V54.8182V54.8314V54.8447V54.8579V54.8712V54.8845V54.8977V54.911V54.9243V54.9377V54.951V54.9643V54.9776V54.991V55.0044V55.0177V55.0311V55.0445V55.0579V55.0713V55.0847V55.0981V55.1115V55.125V55.1384V55.1519V55.1654V55.1788V55.1923V55.2058V55.2193V55.2328V55.2464V55.2599V55.2734V55.287V55.3006V55.3141V55.3277V55.3413V55.3549V55.3685V55.3821V55.3957V55.4094V55.423V55.4367V55.4503V55.464V55.4777V55.4914V55.5051V55.5188V55.5325V55.5462V55.5599V55.5737V55.5874V55.6012V55.615V55.6287V55.6425V55.6563V55.6701V55.6839V55.6978V55.7116V55.7255V55.7393V55.7532V55.767V55.7809V55.7948V55.8087V55.8226V55.8365V55.8505V55.8644V55.8783V55.8923V55.9063V55.9202V55.9342V55.9482V55.9622V55.9762V55.9902V56.0042V56.0183V56.0323V56.0464V56.0604V56.0745V56.0886V56.1027V56.1168V56.1309V56.145V56.1591V56.1733V56.1874V56.2016V56.2157V56.2299V56.2441V56.2583V56.2725V56.2867V56.3009V56.3152V56.3294V56.3436V56.3579V56.3722V56.3864V56.4007V56.415V56.4293V56.4436V56.4579V56.4723V56.4866V56.501V56.5153V56.5297V56.544V56.5584V56.5728V56.5872V56.6016V56.6161V56.6305V56.6449V56.6594V56.6738V56.6883V56.7028V56.7173V56.7318V56.7463V56.7608V56.7753V56.7898V56.8044V56.8189V56.8335V56.848V56.8626V56.8772V56.8918V56.9064V56.921V56.9356V56.9503V56.9649V56.9795V56.9942V57.0089V57.0236V57.0382V57.0529V57.0676V57.0823V57.0971V57.1118V57.1265V57.1413V57.1561V57.1708V57.1856V57.2004V57.2152V57.23V57.2448V57.2596V57.2745V57.2893V57.3041V57.319V57.3339V57.3488V57.3636V57.3785V57.3934V57.4084V57.4233V57.4382V57.4532V57.4681V57.4831V57.498V57.513V57.528V57.543V57.558V57.573V57.5881V57.6031V57.6181V57.6332V57.6482V57.6633V57.6784V57.6935V57.7086V57.7237V57.7388V57.7539V57.7691V57.7842V57.7994V57.8145V57.8297V57.8449V57.8601V57.8753V57.8905V57.9057V57.9209V57.9361V57.9514V57.9666V57.9819V57.9972V58.0125V58.0278V58.0431V58.0584V58.0737V58.089V58.1043V58.1197V58.135V58.1504V58.1658V58.1812V58.1966V58.212V58.2274V58.2428V58.2582V58.2736V58.2891V58.3045V58.32V82.0482C244.629 83.2193 244.412 84.0986 244.101 84.7314C243.879 85.116 243.336 85.5575 242.183 85.9202L239.562 86.6352L238.825 86.8362V87.6V90Z" fill="black" stroke="black" stroke-width="2"/>
<path d="M225.052 34.947L225.522 35.7453L226.354 35.3382C230.288 33.4126 233.578 30.4464 236.226 26.4747C238.89 22.4789 240.234 18.1674 240.234 13.56C240.234 9.95336 239.31 6.97645 237.351 4.74668C235.39 2.43284 232.786 1.28 229.634 1.28C227.062 1.28 224.818 2.17582 222.954 3.94709C221.042 5.68143 220.114 8.00275 220.114 10.8C220.114 13.3461 220.912 15.5504 222.531 17.349L222.54 17.359L222.549 17.3688C224.209 19.1162 226.408 20.3946 229.096 21.2345L229.108 21.2381L229.119 21.2415L230.673 21.6853C230.007 23.8227 229.143 25.6393 228.093 27.1489L228.085 27.1612L228.076 27.1737C226.93 28.9311 225.601 30.4101 224.089 31.6191L223.413 32.1603L223.852 32.907L225.052 34.947Z" fill="black" stroke="black" stroke-width="2"/>
<path d="M183.166 90V91H184.166H214.166H215.166V90V87.48V86.736L214.454 86.5222L212.084 85.8112C210.692 85.2943 209.894 84.6876 209.5 84.079C209.07 83.3309 208.806 82.2145 208.806 80.64V20.04C208.806 18.4448 209.077 17.3861 209.49 16.7369L209.5 16.7206L209.51 16.7039C209.907 16.0231 210.702 15.3825 212.084 14.8688L214.454 14.1578L215.166 13.944V13.2V10.68V9.67999H214.166H184.166H183.166V10.68V13.2V13.944L183.879 14.1578L186.257 14.8712C187.734 15.3918 188.481 16.0264 188.792 16.6472L188.815 16.6933L188.843 16.7369C189.256 17.3861 189.526 18.4448 189.526 20.04V80.64C189.526 82.2266 189.259 83.348 188.822 84.0961L188.815 84.1085L188.808 84.1211C188.507 84.6735 187.759 85.28 186.257 85.8088L183.879 86.5222L183.166 86.736V87.48V90Z" fill="black" stroke="black" stroke-width="2"/>
<path d="M136.904 62.44H137.73L137.886 61.6292L140.404 48.557C141.844 41.679 143.084 35.6796 144.124 30.5591C145.166 25.4315 145.704 21.5875 145.704 19.08C145.704 15.8501 144.807 13.1791 142.907 11.1895C141.004 9.19569 138.443 8.23999 135.344 8.23999C132.174 8.23999 129.569 9.19016 127.661 11.1895L127.652 11.1983L127.644 11.2073C125.834 13.1982 124.984 15.8627 124.984 19.08C124.984 21.6663 125.522 25.5489 126.564 30.6791L126.566 30.6864L126.567 30.6937C127.685 35.8055 128.924 41.7582 130.283 48.5527C130.283 48.5538 130.283 48.555 130.283 48.5561L132.802 61.6292L132.958 62.44H133.784H136.904ZM127.437 89.5071L127.444 89.5143L127.452 89.5214C129.64 91.6221 132.289 92.68 135.344 92.68C138.397 92.68 141.011 91.6235 143.124 89.5144C145.311 87.4112 146.424 84.8348 146.424 81.84C146.424 78.7776 145.32 76.1609 143.131 74.0527C141.023 71.8639 138.406 70.76 135.344 70.76C132.276 70.76 129.622 71.8675 127.437 74.0529C125.323 76.1669 124.264 78.784 124.264 81.84C124.264 84.8247 125.329 87.3992 127.437 89.5071Z" fill="black" stroke="black" stroke-width="2"/>
<path d="M84.3744 90V91H85.3744H112.854H113.854V90V87.72V86.9562L113.118 86.7552L111.817 86.4005C110.459 85.9687 109.617 85.3658 109.143 84.6698C108.712 83.9167 108.454 82.8389 108.454 81.36V48.9706L108.814 31.9411L108.824 31.4886L108.49 31.1828L107.05 29.8628L106.617 29.466L106.06 29.6508L85.0598 36.6108L84.3744 36.8379V37.56V39.72V40.5284L85.1649 40.6978L86.8449 41.0578L86.8448 41.0579L86.8583 41.0606C88.3112 41.3512 89.0714 41.8881 89.4306 42.5039L89.456 42.5474L89.4857 42.5882C89.9552 43.2338 90.2544 44.2364 90.2544 45.72V45.7378L90.255 45.7557C90.3346 47.9842 90.3744 50.1723 90.3744 52.32V52.3322V52.3444V52.3566V52.3688V52.381V52.3932V52.4054V52.4176V52.4299V52.4421V52.4543V52.4666V52.4788V52.4911V52.5033V52.5156V52.5278V52.5401V52.5524V52.5647V52.5769V52.5892V52.6015V52.6138V52.6261V52.6384V52.6507V52.663V52.6754V52.6877V52.7V52.7123V52.7247V52.737V52.7494V52.7617V52.7741V52.7864V52.7988V52.8112V52.8235V52.8359V52.8483V52.8607V52.8731V52.8855V52.8979V52.9103V52.9227V52.9351V52.9475V52.9599V52.9724V52.9848V52.9972V53.0097V53.0221V53.0346V53.047V53.0595V53.0719V53.0844V53.0969V53.1094V53.1218V53.1343V53.1468V53.1593V53.1718V53.1843V53.1968V53.2094V53.2219V53.2344V53.2469V53.2595V53.272V53.2845V53.2971V53.3096V53.3222V53.3348V53.3473V53.3599V53.3725V53.385V53.3976V53.4102V53.4228V53.4354V53.448V53.4606V53.4732V53.4858V53.4985V53.5111V53.5237V53.5364V53.549V53.5616V53.5743V53.5869V53.5996V53.6122V53.6249V53.6376V53.6503V53.6629V53.6756V53.6883V53.701V53.7137V53.7264V53.7391V53.7518V53.7645V53.7773V53.79V53.8027V53.8155V53.8282V53.8409V53.8537V53.8664V53.8792V53.892V53.9047V53.9175V53.9303V53.943V53.9558V53.9686V53.9814V53.9942V54.007V54.0198V54.0326V54.0455V54.0583V54.0711V54.0839V54.0968V54.1096V54.1225V54.1353V54.1482V54.161V54.1739V54.1867V54.1996V54.2125V54.2254V54.2383V54.2511V54.264V54.2769V54.2898V54.3028V54.3157V54.3286V54.3415V54.3544V54.3674V54.3803V54.3932V54.4062V54.4191V54.4321V54.445V54.458V54.471V54.484V54.4969V54.5099V54.5229V54.5359V54.5489V54.5619V54.5749V54.5879V54.6009V54.6139V54.627V54.64V54.653V54.666V54.6791V54.6921V54.7052V54.7182V54.7313V54.7444V54.7574V54.7705V54.7836V54.7967V54.8098V54.8228V54.8359V54.849V54.8622V54.8753V54.8884V54.9015V54.9146V54.9277V54.9409V54.954V54.9672V54.9803V54.9935V55.0066V55.0198V55.0329V55.0461V55.0593V55.0725V55.0856V55.0988V55.112V55.1252V55.1384V55.1516V55.1648V55.1781V55.1913V55.2045V55.2177V55.231V55.2442V55.2574V55.2707V55.2839V55.2972V55.3105V55.3237V55.337V55.3503V55.3635V55.3768V55.3901V55.4034V55.4167V55.43V55.4433V55.4566V55.4699V55.4833V55.4966V55.5099V55.5233V55.5366V55.5499V55.5633V55.5766V55.59V55.6034V55.6167V55.6301V55.6435V55.6568V55.6702V55.6836V55.697V55.7104V55.7238V55.7372V55.7506V55.7641V55.7775V55.7909V55.8043V55.8178V55.8312V55.8446V55.8581V55.8716V55.885V55.8985V55.9119V55.9254V55.9389V55.9524V55.9659V55.9793V55.9928V56.0063V56.0198V56.0333V56.0469V56.0604V56.0739V56.0874V56.101V56.1145V56.128V56.1416V56.1551V56.1687V56.1822V56.1958V56.2094V56.2229V56.2365V56.2501V56.2637V56.2773V56.2909V56.3045V56.3181V56.3317V56.3453V56.3589V56.3725V56.3862V56.3998V56.4134V56.4271V56.4407V56.4544V56.468V56.4817V56.4953V56.509V56.5227V56.5364V56.55V56.5637V56.5774V56.5911V56.6048V56.6185V56.6322V56.646V56.6597V56.6734V56.6871V56.7009V56.7146V56.7283V56.7421V56.7558V56.7696V56.7833V56.7971V56.8109V56.8246V56.8384V56.8522V56.866V56.8798V56.8936V56.9074V56.9212V56.935V56.9488V56.9626V56.9765V56.9903V57.0041V57.018V57.0318V57.0457V57.0595V57.0734V57.0872V57.1011V57.115V57.1288V57.1427V57.1566V57.1705V57.1844V57.1983V57.2122V57.2261V57.24V57.2539V57.2678V57.2817V57.2957V57.3096V57.3236V57.3375V57.3514V57.3654V57.3794V57.3933V57.4073V57.4212V57.4352V57.4492V57.4632V57.4772V57.4912V57.5052V57.5192V57.5332V57.5472V57.5612V57.5752V57.5893V57.6033V57.6173V57.6314V57.6454V57.6594V57.6735V57.6876V57.7016V57.7157V57.7298V57.7438V57.7579V57.772V57.7861V57.8002V57.8143V57.8284V57.8425V57.8566V57.8707V57.8848V57.899V57.9131V57.9272V57.9414V57.9555V57.9697V57.9838V57.998V58.0121V58.0263V58.0405V58.0547V58.0688V58.083V58.0972V58.1114V58.1256V58.1398V58.154V58.1682V58.1825V58.1967V58.2109V58.2251V58.2394V58.2536V58.2679V58.2821V58.2964V58.3106V58.3249V58.3391V58.3534V58.3677V58.382V58.3963V58.4106V58.4249V58.4392V58.4535V58.4678V58.4821V58.4964V58.5107V58.5251V58.5394V58.5537V58.5681V58.5824V58.5968V58.6111V58.6255V58.6398V58.6542V58.6686V58.683V58.6973V58.7117V58.7261V58.7405V58.7549V58.7693V58.7837V58.7981V58.8126V58.827V58.8414V58.8559V58.8703V58.8847V58.8992V58.9136V58.9281V58.9425V58.957V58.9715V58.986V59.0004V59.0149V59.0294V59.0439V59.0584V59.0729V59.0874V59.1019V59.1164V59.1309V59.1455V59.16V81.2146C90.2971 82.7079 89.9998 83.8061 89.5506 84.5761C89.1709 85.2271 88.3689 85.8352 86.9015 86.2778L85.1167 86.7538L84.3744 86.9517V87.72V90ZM91.7801 22.2185C93.8161 24.0774 96.3012 25 99.1744 25C102.048 25 104.533 24.0774 106.569 22.2185C108.623 20.3432 109.654 17.9522 109.654 15.12C109.654 12.2219 108.632 9.81944 106.56 8.01336C104.525 6.15991 102.043 5.23999 99.1744 5.23999C96.3053 5.23999 93.8233 6.15992 91.789 8.01337C89.7172 9.81944 88.6944 12.2219 88.6944 15.12C88.6944 17.9522 89.7262 20.3432 91.7801 22.2185Z" fill="black" stroke="black" stroke-width="2"/>
<path d="M1.76001 90V91H2.76001H32.4H33.4V90V87.48V86.7448L32.6983 86.5255L30.8028 85.9332C29.4251 85.4224 28.5616 84.8132 28.0784 84.1718C27.6537 83.4196 27.4 82.3472 27.4 80.88V52H55.28V80.88C55.28 82.3648 55.0202 83.4453 54.5863 84.1988C54.1988 84.796 53.3731 85.4077 51.8853 85.9306L49.9817 86.5255L49.28 86.7448V87.48V90V91H50.28H79.92H80.92V90V87.48V86.7471L80.2211 86.5264L77.9641 85.8137C76.5856 85.3028 75.7217 84.6934 75.2384 84.0518C74.8137 83.2996 74.56 82.2272 74.56 80.76V19.92C74.56 18.423 74.8242 17.4015 75.238 16.7458C75.7203 16.0276 76.5831 15.3785 77.9641 14.8663L80.2211 14.1536L80.92 13.9329V13.2V10.68V9.67999H79.92H50.28H49.28V10.68V13.2V13.9352L49.9817 14.1545L51.8852 14.7493C53.3641 15.2694 54.1865 15.9157 54.5762 16.5839L54.586 16.6006L54.5963 16.6169C55.0134 17.2722 55.28 18.2962 55.28 19.8V46.4H27.4V19.8C27.4 18.2962 27.6666 17.2722 28.0837 16.6169L28.0941 16.6006L28.1038 16.5839C28.5006 15.9035 29.2949 15.2632 30.6751 14.7497L32.6822 14.1594L33.4 13.9482V13.2V10.68V9.67999H32.4H2.76001H1.76001V10.68V13.2V13.944L2.47266 14.1578L4.85051 14.8712C6.32822 15.3918 7.07516 16.0264 7.38558 16.6472L7.39999 16.676L7.41623 16.7039C7.8562 17.4581 8.12001 18.5438 8.12001 20.04V80.76C8.12001 82.2448 7.86022 83.3253 7.42627 84.0788C7.03864 84.6762 6.21257 85.288 4.724 85.8111L2.45888 86.5264L1.76001 86.7471V87.48V90Z" fill="black" stroke="black" stroke-width="2"/>
</svg>
