<svg width="426" height="115" viewBox="0 0 426 115" fill="none" xmlns="http://www.w3.org/2000/svg">
<path d="M379.281 81.64V81.9375L379.542 82.0794C382.376 83.6175 385.332 84.7921 388.409 85.6024C391.58 86.4961 395.105 86.94 398.981 86.94C407.282 86.94 413.766 85.2082 418.366 81.6766L418.367 81.6758C423.047 78.0627 425.401 73.3175 425.401 67.48C425.401 63.1348 424.127 59.3806 421.568 56.2439C419.001 53.0969 414.736 50.6173 408.851 48.7631L408.851 48.7631L408.846 48.7614L403.692 47.2034C399.639 45.8518 396.752 44.4373 394.984 42.9785C393.259 41.476 392.401 39.5759 392.401 37.24C392.401 34.7637 393.4 32.8814 395.418 31.536L395.418 31.536L395.422 31.5337C397.574 30.0736 400.034 29.34 402.821 29.34C405.495 29.34 407.357 29.8544 408.506 30.788L408.519 30.7987L408.533 30.8085C409.793 31.6981 411.068 33.3712 412.334 35.9036L412.338 35.9113L412.342 35.9189L416.062 42.7589L416.204 43.02H416.501H419.621H420.094L420.12 42.548L420.84 29.708L420.858 29.3841L420.57 29.2355C417.9 27.8602 415.148 26.8074 412.314 26.0779C409.544 25.2641 406.498 24.86 403.181 24.86C398.087 24.86 393.73 25.7087 390.126 27.4287C386.535 29.1427 383.778 31.48 381.881 34.4481C379.987 37.3312 379.041 40.5463 379.041 44.08C379.041 48.5924 380.44 52.397 383.253 55.4583L383.253 55.4584L383.263 55.4685C386.133 58.4207 389.971 60.6183 394.752 62.0773C394.753 62.0776 394.754 62.0779 394.755 62.0782L400.029 63.7564L400.031 63.7569C404.335 65.1118 407.243 66.5643 408.836 68.0821C410.406 69.5774 411.201 71.5212 411.201 73.96C411.201 76.6007 410.157 78.6913 408.046 80.2765C405.917 81.7951 403.031 82.58 399.341 82.58C396.383 82.58 393.973 81.8809 392.077 80.5171C390.238 79.1366 388.563 77.0067 387.066 74.0916L387.063 74.0871L383.463 67.2471L383.323 66.98H383.021H379.781H379.281V67.48V81.64Z" fill="black" stroke="black"/>
<path d="M345.096 83.2143L345.101 83.2193L345.107 83.2241C348.102 85.7202 352.148 86.94 357.187 86.94C361.245 86.94 364.691 86.2098 367.501 84.7219L367.501 84.722L367.511 84.7165C370.308 83.1534 372.494 81.0096 374.06 78.2895L374.238 77.9813L374.005 77.7125L372.445 75.9125L372.093 75.5067L371.714 75.8864C370.459 77.1414 369.211 78.1541 367.972 78.9297C366.776 79.6003 365.425 79.94 363.907 79.94C362.22 79.94 360.795 79.2887 359.606 77.9538C358.515 76.6407 357.927 74.6185 357.927 71.8V31.38H371.227H371.727V30.88V27.16V26.66H371.227H358.058L358.407 10.4908L358.418 9.97998H357.907H354.307H354.052L353.902 10.1872L346.103 20.985C344.776 22.7808 343.301 24.1735 341.684 25.1748L341.684 25.1747L341.675 25.1808C340.144 26.1754 338.254 26.875 335.988 27.2662L332.754 27.7454L332.327 27.8086V28.24V30.88V31.38H332.827H340.847V59.32C340.847 61.6346 340.807 63.6668 340.728 65.4173L340.727 65.4286V65.44V65.4498V65.4597V65.4695V65.4794V65.4892V65.4991V65.509V65.5188V65.5287V65.5386V65.5484V65.5583V65.5682V65.5781V65.5879V65.5978V65.6077V65.6176V65.6275V65.6374V65.6473V65.6572V65.6671V65.677V65.6869V65.6968V65.7068V65.7167V65.7266V65.7365V65.7465V65.7564V65.7663V65.7763V65.7862V65.7961V65.8061V65.816V65.826V65.8359V65.8459V65.8558V65.8658V65.8758V65.8857V65.8957V65.9057V65.9156V65.9256V65.9356V65.9456V65.9556V65.9656V65.9756V65.9855V65.9955V66.0055V66.0155V66.0255V66.0356V66.0456V66.0556V66.0656V66.0756V66.0856V66.0957V66.1057V66.1157V66.1257V66.1358V66.1458V66.1559V66.1659V66.1759V66.186V66.196V66.2061V66.2162V66.2262V66.2363V66.2463V66.2564V66.2665V66.2766V66.2866V66.2967V66.3068V66.3169V66.327V66.337V66.3471V66.3572V66.3673V66.3774V66.3875V66.3976V66.4077V66.4179V66.428V66.4381V66.4482V66.4583V66.4685V66.4786V66.4887V66.4989V66.509V66.5191V66.5293V66.5394V66.5496V66.5597V66.5699V66.58V66.5902V66.6003V66.6105V66.6207V66.6308V66.641V66.6512V66.6614V66.6715V66.6817V66.6919V66.7021V66.7123V66.7225V66.7327V66.7429V66.7531V66.7633V66.7735V66.7837V66.7939V66.8041V66.8144V66.8246V66.8348V66.845V66.8553V66.8655V66.8757V66.886V66.8962V66.9064V66.9167V66.9269V66.9372V66.9474V66.9577V66.968V66.9782V66.9885V66.9988V67.009V67.0193V67.0296V67.0399V67.0501V67.0604V67.0707V67.081V67.0913V67.1016V67.1119V67.1222V67.1325V67.1428V67.1531V67.1634V67.1737V67.1841V67.1944V67.2047V67.215V67.2254V67.2357V67.246V67.2564V67.2667V67.277V67.2874V67.2977V67.3081V67.3184V67.3288V67.3391V67.3495V67.3599V67.3702V67.3806V67.391V67.4014V67.4117V67.4221V67.4325V67.4429V67.4533V67.4637V67.4741V67.4845V67.4949V67.5053V67.5157V67.5261V67.5365V67.5469V67.5573V67.5677V67.5782V67.5886V67.599V67.6094V67.6199V67.6303V67.6407V67.6512V67.6616V67.6721V67.6825V67.693V67.7034V67.7139V67.7243V67.7348V67.7453V67.7557V67.7662V67.7767V67.7872V67.7976V67.8081V67.8186V67.8291V67.8396V67.8501V67.8606V67.8711V67.8816V67.8921V67.9026V67.9131V67.9236V67.9341V67.9447V67.9552V67.9657V67.9762V67.9868V67.9973V68.0078V68.0184V68.0289V68.0394V68.05V68.0605V68.0711V68.0816V68.0922V68.1028V68.1133V68.1239V68.1344V68.145V68.1556V68.1662V68.1767V68.1873V68.1979V68.2085V68.2191V68.2297V68.2403V68.2509V68.2615V68.2721V68.2827V68.2933V68.3039V68.3145V68.3251V68.3358V68.3464V68.357V68.3676V68.3783V68.3889V68.3995V68.4102V68.4208V68.4315V68.4421V68.4527V68.4634V68.4741V68.4847V68.4954V68.506V68.5167V68.5274V68.538V68.5487V68.5594V68.5701V68.5808V68.5914V68.6021V68.6128V68.6235V68.6342V68.6449V68.6556V68.6663V68.677V68.6877V68.6985V68.7092V68.7199V68.7306V68.7413V68.7521V68.7628V68.7735V68.7843V68.795V68.8057V68.8165V68.8272V68.838V68.8487V68.8595V68.8702V68.881V68.8918V68.9025V68.9133V68.9241V68.9348V68.9456V68.9564V68.9672V68.978V68.9887V68.9995V69.0103V69.0211V69.0319V69.0427V69.0535V69.0643V69.0751V69.086V69.0968V69.1076V69.1184V69.1292V69.1401V69.1509V69.1617V69.1725V69.1834V69.1942V69.2051V69.2159V69.2268V69.2376V69.2485V69.2593V69.2702V69.281V69.2919V69.3028V69.3136V69.3245V69.3354V69.3463V69.3571V69.368V69.3789V69.3898V69.4007V69.4116V69.4225V69.4334V69.4443V69.4552V69.4661V69.477V69.4879V69.4988V69.5098V69.5207V69.5316V69.5425V69.5535V69.5644V69.5753V69.5863V69.5972V69.6082V69.6191V69.6301V69.641V69.652V69.6629V69.6739V69.6848V69.6958V69.7068V69.7177V69.7287V69.7397V69.7507V69.7617V69.7726V69.7836V69.7946V69.8056V69.8166V69.8276V69.8386V69.8496V69.8606V69.8716V69.8826V69.8937V69.9047V69.9157V69.9267V69.9377V69.9488V69.9598V69.9708V69.9819V69.9929V70.004V70.015V70.0261V70.0371V70.0482V70.0592V70.0703V70.0813V70.0924V70.1035V70.1145V70.1256V70.1367V70.1478V70.1588V70.1699V70.181V70.1921V70.2032V70.2143V70.2254V70.2365V70.2476V70.2587V70.2698V70.2809V70.292V70.3032V70.3143V70.3254V70.3365V70.3476V70.3588V70.3699V70.381V70.3922V70.4033V70.4145V70.4256V70.4368V70.4479V70.4591V70.4702V70.4814V70.4926V70.5037V70.5149V70.5261V70.5372V70.5484V70.5596V70.5708V70.582V70.5932V70.6043V70.6155V70.6267V70.6379V70.6491V70.6603V70.6715V70.6828V70.694V70.7052V70.7164V70.7276V70.7388V70.7501V70.7613V70.7725V70.7838V70.795V70.8062V70.8175V70.8287V70.84C340.727 76.4341 342.146 80.6016 345.096 83.2143Z" fill="black" stroke="black"/>
<path d="M290.669 83.3989L290.669 83.399L290.675 83.4023C295.153 85.7636 300.155 86.94 305.668 86.94C311.422 86.94 316.396 85.6832 320.568 83.1473L320.57 83.1458C324.825 80.5272 327.972 76.7625 330.01 71.8723L330.159 71.5133L329.848 71.28L327.928 69.84L327.53 69.5414L327.23 69.9381C325.263 72.5343 323.11 74.5264 320.776 75.928C318.473 77.2315 315.527 77.9 311.908 77.9C305.789 77.9 301.36 75.8684 298.515 71.8701C295.64 67.8284 294.168 61.9869 294.168 54.28C294.168 45.265 295.489 38.8696 298.045 34.9964C300.669 31.0607 304.39 29.1 309.268 29.1C310.581 29.1 311.507 29.3338 312.111 29.736L312.121 29.7426L312.131 29.7487C312.765 30.1293 313.272 30.8934 313.577 32.1755C313.726 33.1574 313.726 34.1814 313.573 35.2493L313.571 35.2668L313.569 35.2844C313.487 36.431 313.488 37.8125 313.569 39.425L313.569 39.4366L313.57 39.4481C313.818 42.0104 314.649 44.1524 316.087 45.8438L316.092 45.8492L316.096 45.8545C317.636 47.5646 319.613 48.42 321.988 48.42C324.167 48.42 325.976 47.789 327.365 46.4899C328.853 45.1735 329.568 43.304 329.568 40.96C329.568 38.2068 328.69 35.6266 326.955 33.2299C325.216 30.747 322.703 28.737 319.443 27.1883C316.159 25.6287 312.202 24.86 307.588 24.86C301.912 24.86 296.672 26.1175 291.877 28.6366C287.155 31.0795 283.368 34.6232 280.522 39.2584C277.664 43.9122 276.248 49.5272 276.248 56.08C276.248 62.6231 277.5 68.2295 280.029 72.8789L280.029 72.8789L280.034 72.8881C282.638 77.446 286.185 80.9532 290.669 83.3989Z" fill="black" stroke="black"/>
<path d="M233.943 55.62H269.556H269.929L270.035 55.2637C270.286 54.4298 270.452 53.5567 270.534 52.6453L270.535 52.6415C270.616 51.6667 270.656 50.6528 270.656 49.6C270.656 44.81 269.642 40.566 267.597 36.8828C265.633 33.1213 262.807 30.1734 259.127 28.0471C255.436 25.9147 251.026 24.86 245.916 24.86C240.87 24.86 236.028 26.1225 231.399 28.64C226.839 31.0833 223.097 34.625 220.174 39.253L220.174 39.253L220.17 39.2584C217.312 43.9131 215.896 49.5685 215.896 56.2C215.896 62.583 217.109 68.1066 219.554 72.7529L219.554 72.7529L219.559 72.7621C222.083 77.3209 225.549 80.8299 229.954 83.2771C234.358 85.7241 239.444 86.94 245.196 86.94C250.948 86.94 255.919 85.7244 260.09 83.271L260.093 83.2695C264.332 80.742 267.674 77.2351 270.115 72.7594L270.301 72.4198L270.018 72.1552L268.098 70.3552L267.719 69.9996L267.379 70.3925C265.334 72.7514 263.101 74.5907 260.681 75.9186C258.297 77.1477 255.146 77.78 251.196 77.78C245.549 77.78 241.305 76.021 238.381 72.56C235.591 69.1653 234.079 63.555 233.943 55.62ZM239.5 31.2777L239.502 31.2756C241.171 29.9863 243.102 29.34 245.316 29.34C247.366 29.34 249.049 29.7746 250.391 30.614C251.732 31.4515 252.77 32.7145 253.496 34.4345C254.936 37.8443 255.285 43.4261 254.467 51.26H233.951C234.128 45.5283 234.681 41.1101 235.595 37.9841C236.623 34.6657 237.942 32.4646 239.5 31.2777Z" fill="black" stroke="black"/>
<path d="M169.587 99.8575L169.582 99.8624L169.576 99.8674C167.943 101.328 167.129 103.227 167.129 105.52C167.129 108.075 168.161 110.177 170.195 111.789C172.174 113.421 175.442 114.18 179.869 114.18C183.212 114.18 186.473 113.568 189.649 112.347C192.843 111.118 195.821 109.116 198.583 106.354L198.583 106.354L198.59 106.347C200.63 104.225 202.184 101.855 203.249 99.2371C204.394 96.6994 205.162 93.6101 205.566 89.9807C206.049 86.3521 206.289 81.8501 206.289 76.48V43.7253L206.649 26.6906L206.655 26.441L206.458 26.2868L204.778 24.9668L204.568 24.8019L204.314 24.8846L182.954 31.8446L182.609 31.957V32.32V34.48V34.8899L183.011 34.9703L184.811 35.3303L184.823 35.3327L184.835 35.3345C186.353 35.5622 187.441 36.1119 188.163 36.9387C188.884 37.7653 189.29 38.9287 189.329 40.4862V76.24C189.329 82.4782 189.289 87.6748 189.209 91.8304C189.13 95.987 189.01 100.023 188.85 103.94L188.85 103.94C188.811 104.918 188.694 105.653 188.517 106.167C188.337 106.688 188.124 106.904 187.946 106.983L187.926 106.992L187.907 107.003C187.671 107.134 187.491 107.132 187.312 107.048C187.102 106.949 186.84 106.708 186.547 106.236L185.597 104.336C184.521 102.184 183.06 100.548 181.208 99.4521C179.446 98.3624 177.475 97.82 175.309 97.82C173.118 97.82 171.202 98.4979 169.587 99.8575ZM190.692 16.6092C192.63 18.3787 194.993 19.26 197.749 19.26C200.506 19.26 202.869 18.3787 204.807 16.6092C206.753 14.8316 207.729 12.5761 207.729 9.88C207.729 7.11095 206.758 4.84971 204.802 3.14668C202.865 1.37995 200.504 0.5 197.749 0.5C194.995 0.5 192.634 1.37995 190.697 3.14668C188.741 4.84971 187.769 7.11096 187.769 9.88C187.769 12.5761 188.745 14.8316 190.692 16.6092Z" fill="black" stroke="black"/>
<path d="M131.985 83.1556L131.988 83.1574C136.553 85.6845 141.839 86.94 147.831 86.94C153.898 86.94 159.183 85.7262 163.67 83.2789L163.67 83.279L163.676 83.2756C168.161 80.7476 171.628 77.157 174.072 72.5145C176.598 67.789 177.851 62.2252 177.851 55.84C177.851 49.3733 176.517 43.8426 173.824 39.2706C171.22 34.634 167.634 31.0872 163.071 28.6418C158.59 26.1168 153.505 24.86 147.831 24.86C142.155 24.86 137.03 26.1175 132.47 28.6418C127.986 31.088 124.401 34.6349 121.718 39.2695L121.718 39.2694L121.715 39.2752C119.105 43.9241 117.811 49.4521 117.811 55.84C117.811 62.223 119.023 67.7466 121.468 72.3929L121.468 72.3929L121.471 72.3989C123.995 77.0389 127.501 80.6282 131.985 83.1556ZM158.26 39.618L158.261 39.62C159.051 43.4911 159.451 48.9719 159.451 56.08C159.451 63.1076 159.051 68.5486 158.261 72.42C157.47 76.2957 156.181 78.9281 154.462 80.4227C152.814 81.8461 150.619 82.58 147.831 82.58C145.044 82.58 142.851 81.8471 141.202 80.4257C139.558 78.9279 138.27 76.2907 137.399 72.4153C136.61 68.5442 136.211 63.1047 136.211 56.08C136.211 48.9742 136.61 43.4945 137.4 39.6236C138.272 35.6599 139.561 33.0313 141.197 31.6184L141.197 31.6185L141.207 31.61C142.856 30.1105 145.047 29.34 147.831 29.34C150.614 29.34 152.805 30.1105 154.454 31.61L154.463 31.6179L154.472 31.6255C156.18 33.036 157.468 35.6581 158.26 39.618Z" fill="black" stroke="black"/>
<path d="M66.9395 84.76V85.26H67.4395H97.4395H97.9395V84.76V82.48V82.108L97.5831 82.0011L93.9831 80.9211L93.975 80.9186L93.9667 80.9165C92.5261 80.5374 91.5722 79.9129 91.0205 79.0901C90.4427 78.1474 90.1395 76.966 90.1395 75.52V44.1742C90.6806 42.7946 91.2557 41.6133 91.8627 40.6262C92.5659 39.5329 93.3032 38.6033 94.073 37.8335L94.0866 37.82L94.0991 37.8054C95.0082 36.7447 95.8078 36.4149 96.5173 36.5332L96.5391 36.5368L96.5611 36.5385C97.4403 36.6061 98.2434 37.0417 98.9753 37.9201L98.9899 37.9375L99.0059 37.9535L99.2271 38.1747C101.622 41.1381 104.512 42.66 107.879 42.66C110.155 42.66 112.115 41.9398 113.733 40.4926L113.738 40.4879L113.743 40.483C115.391 38.9225 116.179 36.6941 116.179 33.88C116.179 31.289 115.381 29.1203 113.762 27.4156C112.116 25.6833 109.683 24.86 106.559 24.86C104.303 24.86 102.06 25.4876 99.8366 26.7229C97.6297 27.949 95.5904 29.5407 93.7185 31.494C92.2597 33.0162 90.9973 34.639 89.9323 36.3624L88.9369 26.6291L88.9175 26.4399L88.7773 26.3114L87.3373 24.9914L87.1154 24.788L86.8318 24.8889L67.2718 31.8489L66.9395 31.9672V32.32V34.48V34.8641L67.3106 34.9631L69.1106 35.4431L69.1259 35.4472L69.1414 35.4503C70.6678 35.7556 71.588 36.344 72.0476 37.1319L72.0524 37.1403L72.0576 37.1484C72.5476 37.9184 72.8602 39.1317 72.9395 40.8514V76C72.9395 77.5382 72.6313 78.7109 72.0634 79.5626L72.0551 79.5751L72.0476 79.5881C71.5824 80.3855 70.6505 81.0118 69.1182 81.3949L69.0996 81.3996L69.0813 81.4056L67.2813 82.0056L66.9395 82.1196V82.48V84.76Z" fill="black" stroke="black"/>
<path d="M1 84.76V82.24L3.4 81.64C5 81.16 6.04 80.44 6.52 79.48C7 78.52 7.24 77.2 7.24 75.52C7.32 70.96 7.36 66.36 7.36 61.72C7.36 57 7.36 52.28 7.36 47.56V42.64C7.36 38 7.36 33.36 7.36 28.72C7.36 24.08 7.32 19.44 7.24 14.8C7.24 13.12 6.96 11.84 6.4 10.96C5.92 10 4.88 9.24 3.28 8.68L1 7.96V5.44H29.92C41.6 5.44 50.08 7.64 55.36 12.04C60.72 16.36 63.4 22.08 63.4 29.2C63.4 33.68 62.28 37.84 60.04 41.68C57.88 45.44 54.28 48.44 49.24 50.68C44.2 52.92 37.4 54.04 28.84 54.04H24.52C24.52 57.4 24.52 60.88 24.52 64.48C24.52 68 24.56 71.6 24.64 75.28C24.64 78.56 26.12 80.56 29.08 81.28L32.68 82.24V84.76H1ZM24.52 50.56H29.56C33.56 50.56 36.8 49.96 39.28 48.76C41.84 47.48 43.72 45.32 44.92 42.28C46.2 39.24 46.84 35.04 46.84 29.68C46.84 24.32 46.16 20.16 44.8 17.2C43.52 14.16 41.56 12.04 38.92 10.84C36.28 9.56 33 8.92 29.08 8.92H24.64C24.56 14.44 24.52 20.04 24.52 25.72C24.52 31.32 24.52 36.96 24.52 42.64V50.56Z" fill="black" stroke="black"/>
</svg>
